/* XPM */
static char *_1d9c447f55c4656a19f5f9cdb7953c4uKJ9uciKttHTs8vn[] = {
/* columns rows colors chars-per-pixel */
"50 50 239 2 ",
"   c #2C3C1F",
".  c #27371F",
"X  c #313D1F",
"o  c #30351F",
"O  c #012C3D",
"+  c #1C3B2F",
"@  c #2B2E23",
"#  c #273520",
"$  c #2B3521",
"%  c #273C21",
"&  c #2C3C21",
"*  c #2B3A2A",
"=  c #323521",
"-  c #323D22",
";  c #3B3C22",
":  c #2D421F",
">  c #32431F",
",  c #274321",
"<  c #2C4321",
"1  c #274A21",
"2  c #2C4A22",
"3  c #2A4F29",
"4  c #334421",
"5  c #394623",
"6  c #354922",
"7  c #3A4C22",
"8  c #3B4C28",
"9  c #35452B",
"0  c #2A5221",
"q  c #3D5122",
"w  c #395228",
"e  c #3A4936",
"r  c #3C5336",
"t  c #28453B",
"y  c #425323",
"u  c #435529",
"i  c #425532",
"p  c #414D2B",
"a  c #47643C",
"s  c #506339",
"d  c #003144",
"f  c #013649",
"g  c #003A4E",
"h  c #003C52",
"j  c #002F42",
"k  c #00445B",
"l  c #004B5D",
"z  c #024255",
"x  c #1A505E",
"c  c #386357",
"v  c #004D63",
"b  c #004A6B",
"n  c #024461",
"m  c #015163",
"M  c #02556B",
"N  c #005A6D",
"B  c #0A566B",
"V  c #015D73",
"C  c #065B78",
"Z  c #145B78",
"A  c #105F6F",
"S  c #02657C",
"D  c #04667A",
"F  c #14657A",
"G  c #306F7D",
"H  c #2D5D55",
"J  c #4B6649",
"K  c #537059",
"L  c #647858",
"P  c #477671",
"I  c #657E6C",
"U  c #37827D",
"Y  c #538277",
"T  c #638772",
"R  c #015A85",
"E  c #046B87",
"W  c #1C6782",
"Q  c #027185",
"!  c #027589",
"~  c #08768B",
"^  c #056893",
"/  c #017B93",
"(  c #057A9A",
")  c #16788E",
"_  c #297889",
"`  c #357A89",
"'  c #267091",
"]  c #046EA3",
"[  c #047AAC",
"{  c #067CB5",
"}  c #1779A6",
"|  c #477D8D",
" . c #01849B",
".. c #04859B",
"X. c #1D8195",
"o. c #388496",
"O. c #2D8B96",
"+. c #018DA2",
"@. c #0889AB",
"#. c #0291A6",
"$. c #0194AA",
"%. c #0099AE",
"&. c #0785B9",
"*. c #019DB3",
"=. c #0597B9",
"-. c #1595BA",
";. c #158AB1",
":. c #2998B5",
">. c #3699B6",
",. c #2D8FA8",
"<. c #00A1B6",
"1. c #01A4BB",
"2. c #00A8BD",
"3. c #09A0B4",
"4. c #14A3B8",
"5. c #29A3B8",
"6. c #39ABBE",
"7. c #518D8F",
"8. c #719085",
"9. c #5396AA",
"0. c #57A9BE",
"q. c #4CA6B8",
"w. c #72AAB2",
"e. c #6196A8",
"r. c #098BC5",
"t. c #0C96CB",
"y. c #1997C9",
"u. c #0D9BD1",
"i. c #1696D2",
"p. c #239DDA",
"a. c #2596C6",
"s. c #01ACC3",
"d. c #05A9C7",
"f. c #01B4CB",
"g. c #05B5CB",
"h. c #13A8DC",
"j. c #02BCD4",
"k. c #08B8D6",
"l. c #11B0D0",
"z. c #28B6C7",
"x. c #28A7D7",
"c. c #38AAD9",
"v. c #32B2CC",
"b. c #15ADE1",
"n. c #1ABAE7",
"m. c #0CBEE1",
"M. c #2DB3E7",
"N. c #50B5CF",
"B. c #6BB9C8",
"V. c #79B7C4",
"C. c #65B8D9",
"Z. c #69ACC8",
"A. c #4BBAEB",
"S. c #69BAE1",
"D. c #02C3DB",
"F. c #0AC6DE",
"G. c #1CC3DA",
"H. c #26C6DD",
"J. c #33C4D7",
"K. c #04CCE5",
"L. c #09C8E5",
"P. c #17C4EB",
"I. c #07D3EC",
"U. c #0BD4EC",
"Y. c #19D4EB",
"T. c #0CDAF3",
"R. c #0CD6F0",
"E. c #14DCF4",
"W. c #1BD7F5",
"Q. c #1ECDF4",
"!. c #38C5E9",
"~. c #24D4ED",
"^. c #28CAF4",
"/. c #26D9F6",
"(. c #39D9F7",
"). c #34CFEE",
"_. c #19E4FA",
"`. c #25EAFC",
"'. c #27E5F9",
"]. c #33ECFD",
"[. c #3AEDFE",
"{. c #35E3FA",
"}. c #54C6D7",
"|. c #47C5D7",
" X c #68C5D8",
".X c #77C5D4",
"XX c #7CCDD5",
"oX c #44C5E5",
"OX c #4AD6EB",
"+X c #4AD8F7",
"@X c #55DAF9",
"#X c #58CDED",
"$X c #68D5E8",
"%X c #67DAF6",
"&X c #71CBEE",
"*X c #43EEFD",
"=X c #4AEBFC",
"-X c #48E3FB",
";X c #57E6FB",
":X c #4EF0FE",
">X c #53F0FE",
",X c #5BF0FE",
"<X c #68E8FB",
"1X c #77E8FC",
"2X c #62F0FE",
"3X c #6CF1FE",
"4X c #7BF2FE",
"5X c #75F1FE",
"6X c #70E1EF",
"7X c #93B8BA",
"8X c #8AB9C3",
"9X c #94BDC5",
"0X c #8BC3D3",
"qX c #ACCCD4",
"wX c #B7D3D9",
"eX c #A7CBD4",
"rX c #96D5E4",
"tX c #8DD5ED",
"yX c #ABDAEB",
"uX c #89EAFB",
"iX c #98E9F9",
"pX c #8CF3FE",
"aX c #83F2FE",
"sX c #94F3FE",
"dX c #9CF4FE",
"fX c #87E0EA",
"gX c #BEE2EF",
"hX c #A9EAF9",
"jX c #B8E8F9",
"kX c #A4F5FE",
"lX c #ABF5FE",
"zX c #ADF8FF",
"xX c #B4F9FF",
"cX c #BDFBFF",
"vX c #C8DBDD",
"bX c #C5DDE1",
"nX c #C5EAF7",
"mX c #C2FBFF",
"MX c #C8E8F4",
/* pixels */
"5 8 8 8 4 8 # $ 8 4 < 2 4 8 8 8 2 4 = & - & 8 & 8 8 q % 0 & 2 5 4 4 6 % - 8 4 8 4 , & 4 % $ & & < 4 ",
"8 4 8 2 2 2 < 8 8 - & 8 2 8 4 8 & < - - = 8 8 4 8 8 - & & 4 8 - 8 4 4 2 4 & 6 7 4 & 4 8 & < & 2 & & ",
"u 8 2 w 8 8 % 8 8 < = < & = 8 & 8 & 8 8 - & - 5 4 8 4 4 8 5 u 4 6 4 < 2 < 2 6 8 8 7 7 4 w < 4 & - 8 ",
"u 5 < 8 8 8 & $ 8 8 ; - = < 2 4 8 8 8 & @ @ < < 8 4 7 q 7 8 4 2 4 4 $ < & 2 8 q 7 4 4 & 4 4 8 7 8 < ",
"< 8 8 8 8 8 8 % 4 4 2 - 6 4 8 7 - < 4 $ = 8 < - 4 & 5 y > 5 7 < % & & & < 4 7 7 X 4 4 7 7 4 4 7 8 8 ",
"- 4 & = < 8 8 % 4 5 8 4 8 4 & 8 & & $ 4 & = 8 4 6 7 6 7 y y 4 1 & , 2 2 4 7 7 7 & % - 7 4 - < 4 4 5 ",
"- 8 8 8 i 8 8 8 8 i r J w.9XeXqXqXwXqXqXwXvXvXvX7XV.wXbXbXgXyXrXrX.X0.9.9.e.T L i 1 5 5 7 7 4 6 4 & ",
"8 - 2 < 4 8 8 5 r K J 7.q.>.0.w.w.V.8X7X7Xw.q.,.~ E D G e.V.B. Xq.5.@.@.-.@.^ x t 3 - 4 & 4 7 > 4 4 ",
"= 8 8 < 8 % i I w.9X0XC.x.-.( >.C. X.X.XN.!.n.h.=./ E E V M W >.!.n.h.b.u.[ ^ R b f + - - - 7 4 , 4 ",
"- 8 4 8 8 8 o.qXyXtX&X#Xh.t.&.( :.%X%X@X+X^.n.l.=.( ! Q S M m v M :.oXb.u.&.^ C b g j O 8 < 6 7 4 4 ",
"4 8 p 8 4 E w.MXjX&XoXM.h.t.^ M d.b.(./.Q.P.k.d.$. ./ ( S V M V / ) rX&Xy.[ ^ b k f f d n * & 7 7 & ",
"< & 2 r W R yXMXhX#X!.n.t.E v S b.P./.Q.P.m.k.d.$. . ./ S V Q $.( S V.jXtX>.S k h g f O b b * < & - ",
"& $ c ;.] ' MXMXtX%XM.;.V k k ;.^.(./.L.L.L.k.*.$.#.+.! Q 4.P.L.=.V G hXhXhXN.Z k h d O h k n x & * ",
"9 ` c.i.r.C.MXnXyXN.} C v k B oX@X;X@X~.L.j.f.<.*.%. ...H./.W.L.d.Q z 0XhXhX%X!.y.B d O h ^ C &.[ = ",
"a.A.M.i.r.yXjX&Xy.( E M l k o.uXaXaX1X<X-XY.D.f.<.$.5.OX{._.R.g.$.Q g | hXhX@X(.).n.( h O &.&.{ [ ] ",
"&X#XA.t.a.tXM.t.@.^ C M l l V.lXlXlXkXkXsX3X'.U.j.z.<X>X{.E.D.<./ V h x rXiX%X+X^.h.r.^ k } p.p.p.p.",
"S.S.S.C.tXtXA.c.x.:.,.) E Q ,.6.N.}.}.}.|.J.G.D.D.L.Y.W._.R.L.g.4.-.5.v.%X$X#XA.v.a.>.9.Z.&X&XA.A.c.",
"Z Z Z W 7.jXjXjXjXhXiXfXOXG.}.OX).U.D.f.1.#. . .+.OX-X]._.K.g.*...~ A F ) F A B B B B Z W ,.x.y.{ ^ ",
"W b b b b 8XnXjXjXhXhXuX<X/.;X1X=X'.R.D.f.*. .Q ~ dX3X`.T.K.j.*. .D z l S M m v v v v v b [ u.&.^ R ",
"e _ R b b Z gXjXhXhXhXiX<X{./.uX<X[._.I.j.2.#.! ,.lX4X[.T.j.f.<. .N k Q Q M m m v v v h ^ &.t.[ ] ] ",
"- c ;.b b b e.nXhXuX1X;X(.{.E.6X4X>X`.T.K.f.<.+.B.xX4X=X_.D.1.+. .N N %.! N m l v v z B u.t.r.{ &.,.",
"& e c.R C b A MXhXuX1X+X/./.E.OXpX2X]._.I.D.f.%.XXcX4X>XE.g.<. .Q N Q f. .N m v v l O -.h.u.r.i.y.9 ",
"% 8 P c.t.C v 9.nXiX1X-X/.E.'.Y.uX4X=X`._.T.D.2.hXmX3X`.I.f.1.+.Q N d.j.#.S m m v d F n.h.u.p.c.2 < ",
"4 & 8 7.x.@.v v rXhX<X(.W.T.'.U.6XsX3X>X[._.K.k.mXmX4X`.T.j.s.+.Q ~ Y.K.<.! M l f O oXn.b.x.P * & , ",
"4 5 7 & ` u.=.V _ hXiX(.U.j.G.E.J.sXsX4X>X`.T.).mXcXaX].T.D.s.+.Q 5.].U.s. .V z d O.@XP.n.P 7 9 & 5 ",
"& 8 4 4 = :.n.d.V B.uX<XW.D.g.~.@.fXdXpX5X:X`.3XmXzX*X[._.D.1.+.~ $X{.{.Y.$.M l M +X^.^.7.i 5 4 7 4 ",
"8 q 8 6 - 4 :.n.=.X.$X<X-XL.s.4.! 0.kXdXsX4X*XsXcX4X].*Xk.f.2.#.:.<XD.l.)...N D v.(.(.@X> 6 : 4 4 - ",
"4 8 4 4 $ < < :.n.%XOX1X;X/.f...! X.iXdXdXpX2XxXcXaX[.U.f.*.<.$. X=XK.2. .S N >.@X+X+XL q 2 0 > , 4 ",
"& 4 & 2 $ 2 % $ ,.%X@X@X<X{.F...! D .XkXdXsXpXxXkXsX*XT.j.<.#.4.uX].I.1./ S ) $X1XOXi 4 . $   @ . q ",
"2 & 2 4 5 9 - < & o.).~.;X-XE.2.N m o.lXkXdXkXxXaX3X,X_.D.2.$.N.sX].F.%. .! B.uX@X7Xq 8 & - < , & - ",
"< 2 % % 7 4 7 4 4 4 9.~.(.-X_.K. .m A rXlXkXxXxXpX:X`._.K.s.3.fXpX'.f.*...>.iX$Xa 8 : : 4 1 . & % # ",
"2 4 4 < 4 4 4 7 X < r q.(./.'.U.f.S m B.zXlXkXzXsX>X_._.K.f.z.kX4XY.g.<.#..XXXK & 4 7 7 - 6 < & , 4 ",
"5 7 y 7 8 7 4 6 & % 4 8 7.).L.U.D.<.S ` hXzX2XkXsX,X`.*XE.j.$XkX*XI.j.s.v.T a < > 4 4 4 7 > o : % 7 ",
"8 8 7 y 7 4 4 6 2 $ 9 7 i 7.~.j.D.j.2.D w.kX[.kXaX*X>X2X'.H.iX5X'.I.K.l.7.J 6 4 7 4 4 : 7 7 4 6 - > ",
"6 7 5 4 8 & < , & % - 5 4 - Y k.f.1.1.1.O.dX`.aX>X2X3X,XH.6XdX>X'.T.I.N.s y 4 5 q q > 4 : > 6 > = & ",
"& 6 4 4 4 & % @ & % $ 5 7 > < U g.*.#.f.g.6X].=X3X5X3XOX~ sXpX>X{.E.z.L 4 >   > > 7 q > 6 4 4 q > & ",
"< < < < $ 2 < $ < 4 & 7 y 8   < 5.2.$.*.f.(.=X=XaX5X<X) o.sX5X-X(.~.8 y u : 4 X % & 7 4 > > 7 4 % < ",
"$ 2 $ $ @ 4 , 2 4 6 - < 6 > - 6 8 O.*.*.s.F.;X{.4X3X6.M .XuX;X-XOXY 8 8 4 7 > - ; > 4 4 5 7 > > & & ",
"< & % = - & 2 8 4 < < 6 q > 7 > & % O.1.*.j.+X{.1XOXQ F iX1X;XOXe 8 7 > 7 > 7 > >   q > > y 7 o < & ",
", $ 8 2 < & 4 2 , % , 6 q 7 q y 6 4 8 O.d.f.H.-X<X-.S 9.fX$X}.J - 4 4 6 > X q q   - > 7 6 > q 4 < 4 ",
"$ $ 6 - - ; % < , = $ 4 8 > 6 q 6 7 & - U k.k.@Xz./ D w.w.7.r 8 > : < >   q > 7 7 6 4 4 X -   4 4   ",
"6 q 4 & ; 4 # # < < & < 4 : 4 : , : < < 7 z.m.).=./ _ 8.J 8 q q 7 6 : : 7 > q > > 7 > % 7 > 6 7 > - ",
"4 8 4 4 % 1 < # , & 2 , : > w > : 1 % > o 9 M.P.$./ c r > 4 6 > 7 >   4 4 4 4 7 q > 7 7 > y   - 7 > ",
"7 7 8 6 2 2 7 6 & # 2 4 6 7 4 7 6 2 & - 4 7 8 o...C e - 5 - >   > > 6 7 > 6 7 > > 6 > q > 7 > 5 4 = ",
"7 4 7 8 8 < 6 & & # 1 4 4 4 q 7 >   - 4 6 4 u s X.` e 8 q X 1 = 4 4 7 > : > - > - > 7 > > > 4 6 , 4 ",
"4 4 7 y < < 1 < $ < 0 4 7 q y 4 - . 6 4 u > p L 8.8.r 4 > - $ & < < & & 1 6 & 4 y y q 7 > 7 y > & - ",
"8 4 6 4 & 4 4 $ 4 8 < 4 > 6 6 >   5 y > > > > q q 7 4 4 < 4 : % , : & & > > > 7   > > 4 5 7 7 7 4 4 ",
"6 7   < 6 4 4 7 7 6 > 2 q y 7 7 7 q y 4 6 > : : : 7 q 4 4   1 < , < 1 , 6 4 7 y 4 4 > > 7 7 > 6 7 7 ",
"4 q 7 8 q 4 4 4 7 7   & 7 7 5 > y 7 y X o - - 4 4 4 q q 4 1 6 - & 7 > 4 > & y y 7 4 7 : 4 X 4 4 7 - ",
"4 7 4 7 > 4 & 8 y 6 1 < 7 7 7 7 7 > 7 > 4 , $ 4 : 7 7 > % , & 4 8 q 7 . & 4 7 4 q > 4 y # = & & , 2 "
};
