/* XPM */
static char *_c9bca91eb064c1697ae94672d1b0230wkAVklodsvJJzoU9[] = {
/* columns rows colors chars-per-pixel */
"50 50 158 2 ",
"   c black",
".  c #1F180D",
"X  c #000B11",
"o  c #00101B",
"O  c #111F1C",
"+  c #3E1C08",
"@  c #1B2F17",
"#  c #13241D",
"$  c #1F231E",
"%  c #222E16",
"&  c #222E1A",
"*  c #232616",
"=  c #362913",
"-  c #3A2C16",
";  c #253217",
":  c #25341A",
">  c #29351E",
",  c #27381F",
"<  c #2C3C1E",
"1  c #30351F",
"2  c #3E3019",
"3  c #313C1F",
"4  c #001523",
"5  c #001A2A",
"6  c #1C1523",
"7  c #0F2C2A",
"8  c #0D262B",
"9  c #11292A",
"0  c #182E2C",
"q  c #0F312E",
"w  c #1C3226",
"e  c #1C342C",
"r  c #002035",
"t  c #0C2D35",
"y  c #052A3B",
"u  c #0A2D3B",
"i  c #102C31",
"p  c #0E313C",
"a  c #183431",
"s  c #133439",
"d  c #14383B",
"f  c #1B3A3A",
"g  c #183B33",
"h  c #212C26",
"j  c #2B2E23",
"k  c #263520",
"l  c #2B3521",
"z  c #273C21",
"x  c #2C3C21",
"c  c #2F342D",
"v  c #233B2A",
"b  c #323521",
"n  c #323D22",
"m  c #3B3C22",
"M  c #233F37",
"N  c #363D35",
"B  c #700000",
"V  c #713019",
"C  c #2D421F",
"Z  c #24451F",
"A  c #32431F",
"S  c #1B413E",
"D  c #274321",
"F  c #2C4321",
"G  c #274A21",
"H  c #2C4A22",
"J  c #334421",
"K  c #394623",
"L  c #354922",
"P  c #3A4C22",
"I  c #3B4C28",
"U  c #2A5221",
"Y  c #3D5122",
"T  c #345324",
"R  c #3E4034",
"E  c #3E453C",
"W  c #424E23",
"Q  c #554020",
"!  c #425323",
"~  c #445822",
"^  c #435429",
"/  c #51522B",
"(  c #464433",
")  c #5D5237",
"_  c #6D5126",
"`  c #646534",
"'  c #7D6033",
"]  c #012B45",
"[  c #093346",
"{  c #0F3946",
"}  c #00304E",
"|  c #0C3549",
" . c #09384B",
".. c #1F3840",
"X. c #153B47",
"o. c #003556",
"O. c #043A56",
"+. c #083850",
"@. c #003658",
"#. c #023B5E",
"$. c #213E43",
"%. c #11444C",
"&. c #0E465D",
"*. c #10415D",
"=. c #20424F",
"-. c #024065",
";. c #0A4765",
":. c #004169",
">. c #09496B",
",. c #0C4964",
"<. c #10526C",
"1. c #004672",
"2. c #014976",
"3. c #004B7B",
"4. c #03517F",
"5. c #0D5474",
"6. c #4E564B",
"7. c #5D5840",
"8. c #7D6A44",
"9. c #806B37",
"0. c #806B3B",
"q. c #9B763B",
"w. c #A37A39",
"e. c #CE7233",
"r. c #E26033",
"t. c #8C7141",
"y. c #AD833E",
"u. c #A98847",
"i. c #AD8E4C",
"p. c #BB8F4C",
"a. c #B68C4A",
"s. c #BA994F",
"d. c #BA9750",
"f. c #C29146",
"g. c #C99440",
"h. c #D19B46",
"j. c #D49F4A",
"k. c #CB9E54",
"l. c #D5A14E",
"z. c #D9A24C",
"x. c #CAA254",
"c. c #D3A255",
"v. c #DAA758",
"b. c #E2AA53",
"n. c #E5B35E",
"m. c #EAB25B",
"M. c #F1B85F",
"N. c #EBB761",
"B. c #EEB961",
"V. c #F4BB62",
"C. c #F9BF65",
"Z. c #015487",
"A. c #025486",
"S. c #035485",
"D. c #005183",
"F. c #015588",
"G. c #00558A",
"H. c #00558A",
/* pixels */
"K I I I J I k l I J F H J I I I H J b x l e f &.<.5.5.&.g a D J J J L z n I J I J D x J z l x x F J ",
"I J I H H H F I I n x I H I J I x k | S.G.G.G.G.G.G.G.G.G.G.A.4.S k J H J x L P J x J I x F x H x x ",
"^ I H T I I z I I F b F x b I g +.3.G.2.G.G.G.G.G.G.G.G.G.G.G.2.G.4. .S F H L I I P P J T F J x n I ",
"^ K F I I I x l I I m n b F %.-.#.o.3.] G.G.D.D.G.G.G.D.D.G.G.] 3.o.#.-.;.H I Y P J J x J J I P I F ",
"F I I I I I I z J J H n L >.:.#.G.G.] 3.G.G.} D.G.G.G.D.} G.G.3.] D.G.#.o.>.L P 3 J J P P J J P I I ",
"n J x b F I I z J K I J f G.G.G.G.G.G.] G.G.] G.G.G.G.G.] G.G.] G.G.G.G.G.3.v P x z n P J n F J J K ",
"n I I I I I J I I I F F p A.G.G.G.G.G.] G.:.+ r G.G.G.] + :.G.] G.G.G.G.G.G.f ! J G m K P P J L J x ",
"I n H F J I I J F L L A A.G.3.3.G.G.G.G.] 3.]   :.G.:.X ] G.] G.3.3.D.G.G.A.A.< , G n J x J P A J J ",
"b I I F I z J I F I I ; G.G.3.3.G.G.G.G.1.#.D.r ] :.] r D.1.o.G.D.1.Z.D.1.3.A.: z m J n n n P J D J ",
"n I J I I J I J J H H > 3.G.G.G.G.G.1.3.1.) 1.G.3.:.3.G.1.t.o.D.D.Z.G.G.D.A.2.: H z l K I F L P J J ",
"J I I I J I I l x x n J y D.Z.G.G.G.D.G.c v.6.:.o.6 o.:.6.m.) D.1.Z.G.G.G.A.u x L J x J L , x P P x ",
"F x H I x J I x x l J n O :.D.G.G.G.G.G.= c.p.. :.B :.$ p.v._ G.G.G.G.G.G.G.h F J L z F L k l F x n ",
"x l H F z I J I x x F F l :.G.G.G.G.3.3.2 y.p.C.V r.V v.p.w.' G.G.3.3.G.G.-.K H F J F z F x x x x k ",
"n l H F l I J I x F F x l 7 3.G.G.G.G.3.:.' w.z.e.z.e.z.w.p.] G.G.D.D.G.3.v P A H L J x z x D I P b ",
"J n x x F I I J n l I I I & O.G.D.D.G.G.:.' p.C.m.m.m.V.p.p.] G.G.G.G.G.3.L A P < z P J x j l F P K ",
"I F F z l I x I I J x I x I w D.3.1.G.G.D.( l.m.C.C.C.m.l.Q 3.G.G.G.G.D.i A < Y x n P P x m b k J P ",
"I m n H F Y I J J x J P J x J O.G.G.G.G.G.E m.m.z.z.z.b.m.2 G.1.3.G.G.O.A A J L A Y A 3 n m m m P P ",
"Y I b n J J I J J J J < ! L l 9 G.G.G.G.G.E C.C.C.C.C.C.C.2 G.3.G.G.G.w L H 3 A L J A n n n n l > A ",
"L J n J I J J J L L n x n K n < :.G.3.:.G.N M.C.C.C.C.C.M.= G.G.G.G.-.L J C J J x J C D k k D F F A ",
"z J I I J J L I L x x J x J F k 8 G.G.G.G.E b.z.z.z.z.z.b.2 G.G.G.3.w A A , < J L P z J x F F F J F ",
"n x H I F J F F J I L J F : -.u ; ] G.G.G.E C.C.C.C.C.C.C.2 G.G.G.-.A Y J J H C < C F Y A C H H F z ",
"x n I J J J l F n Y I n x t D.-.; # G.G.G.E C.C.C.C.C.C.C.2 D.D.G.t A P A A C C G L J Y L , H L D x ",
"z I J K I J F J J J P < x ] 3.3.t & ] 1.G.E V.C.C.C.C.C.V.- 1.D.o.Y P Y Y ! J L < P P J C z D F H F ",
"J x I x z H x x P P J C z ] G.G.D.y X D.G.E h.g.C.C.C.j.h.- G.G.X P A P A A ~ A P A A 3 C > z k x D ",
"J K P , l H D l P L > x x 9 3.D.D.G.] G.1.E C.C.z.z.z.M.C.2 G.G.4 ] ] ] ] ] ] ] < A L L A K P x x K ",
"x I J x b J L J K P K J l x [ G.G.G.:.:.D.R C.C.C.C.C.C.C.2 G.@.:.D.1.G.G.G.A.G.G.{ A A A P A J P L ",
"I Y I L x J I x , K J F x F L O.G.G.G.] G.E C.C.C.C.C.C.C.2 G.] G.3.3.G.G.G.:.G.G.G.{ J A L C J J n ",
"J I J J l F F x n K J x x H L J #.G.G.] Z.N z.m.C.C.C.m.z.= G.] G.G.G.G.G.G.1.G.Z.2.G.d Y H U A D J ",
"x J x H l H z k x b n k x A J A J 9 -.] :.E V.m.z.z.z.b.V.2 D.] G.G.G.D.3.G.G.G.Z.Z.G.A.# l < j , Y ",
"H x H J K n n F x n F J J P P P A J : X A.E C.C.C.C.C.C.C.2 D.X 4 4 4 r 3.G.G.G.G.G.G.G.] n F D x n ",
"F H z z P J P J J J K P P J < % # ] ] 4 G.E C.C.C.C.C.C.C.2 G.] G.G.G.G.G.G.3.D.D.G.A.A.] G , x z k ",
"H J J F J J J P 3 F F ; 9 ] 2.G.G.G.G.G.5 E C.C.C.C.C.C.C.2 r 3.3.G.G.G.G.G.G.1.G.G.G.G.] L F x D J ",
"K P ! P I P J L > k o.G.G.G.G.G.G.G.3.3.4 N z.z.C.C.C.b.z.= ] G.3.G.G.G.G.G.G.G.G.D.:.G.] A 1 C z P ",
"I I P ! P J J L H #.G.G.D.3.G.G.G.G.D.3.4 E V.m.z.z.z.b.V.2 ] G.G.G.G.3.3.G.G.G.G.G.D.G.t P J L n A ",
"L P K J I x F D #.A.G.G.D.G.G.G.3.3.G.G.o R C.C.C.C.C.C.C.2 ] D.G.G.G.3.3.G.G.G.G.G.G.,., A L A b x ",
"x L J J J x z | Z.2.G.G.G.G.G.G.3.3.G.G.4 E C.C.C.C.C.C.C.2 ] 3.A.G.G.G.A.D.3.G.G.G.2.A L J J Y A x ",
"F F F F l H , G.D.D.G.G.3.G.G.G.G.G.G.G.4 E C.C.C.C.C.C.C.2 r 3.G.G.G.G.G.3.G.G.G.2.J J A A P J z F ",
"l H l l j J a G.G.G.G.G.G.G.G.G.G.G.G.G.4 N z.z.C.C.C.b.z.= ] G.G.G.G.G.A.G.A.p s A J J K P A A x x ",
"F x z b n x %.G.G.G.G.G.G.3.3.1.] :.G.:.o.E C.C.z.z.z.M.C.2 ] @ * ; ; % < : L A A < Y A A ! P 1 F x ",
"D l I H F , <.A.2.2.G.G.G.D.1.Z.1.o.] o.G.E C.C.C.C.V.C.C.2 ] A 1 J J L A 3 Y Y < n A P L A Y J F J ",
"l l L n n b M G.Z.Z.G.G.D.G.G.G.G.G.D.G.G.E C.C.C.C.C.C.C.2 u J A C F A < Y A P P L J J 3 n < J J < ",
"L Y J x m J / $.D.G.G.G.:.G.G.G.G.G.3.3.D.7.C.C.C.C.C.C.C.2 s Y P L C C P A Y A A P A z P A L P A n ",
"J I J J z G ` 0.=.G.G.G.3.G.G.D.D.G.3.G.:.p.C.C.C.C.C.C.C.2 s A P A < J J J J P Y A P P A ! < n P A ",
"P P I L H H W s.c.=.A.G.G.:.D.D.1.G.G.G.= z.M.C.C.C.C.b.z.= p < A A L P A L P A A L A Y A P A K J b ",
"P J P I I F L i.n.k.f -.G.3.G.G.G.G.G.] C.C.b.z.z.z.z.M.C.2 q b J J P A C A n A n A P A A A J L D J ",
"J J P W F F G L k.n.B.q...3.G.G.G.G.G.' C.C.C.C.C.C.C.C.m.c 0 x F F x x G L x J ! ! Y P A P ! A x n ",
"I J L J x J J l K d.N.V.v.8.E *.:.:.X.v.C.C.C.C.C.C.C.C.p.-.: z D C x x A A A P < A A J K P P P J J ",
"L P < F L J J P P L u.n.C.C.C.k.p.p.f.M.C.C.C.C.C.C.C.V.a.[ G F D F G D L J P ! J J A A P P A L P P ",
"J Y P I Y J J J P P < 1 x.B.V.C.C.V.C.z.C.C.C.C.C.C.C.C.q.Z L n x P A J A x ! ! P J P C J 3 J J P n ",
"J P J P A J x I ! L G F L P / 9.n.N.B.V.z.z.z.z.z.l.j.y.> D x J I Y P > x J P J Y A J ! k b x x D H "
};
