/* XPM */
static char *_3e9967427c34fabe01fdd6c7c656f80UpEpFtffiPz4zuFz[] = {
/* columns rows colors chars-per-pixel */
"50 50 164 2 ",
"   c #091B17",
".  c #0E1E1A",
"X  c #172414",
"o  c #1B2314",
"O  c #172814",
"+  c #1E2914",
"@  c #18241D",
"#  c #1C2C1C",
"$  c #162C1D",
"%  c #1F3217",
"&  c #1C3816",
"*  c #1F3B1A",
"=  c #1C341D",
"-  c #222D15",
";  c #2C2F17",
":  c #232D1A",
">  c #2D2E1A",
",  c #3C281D",
"<  c #253115",
"1  c #23341C",
"2  c #2A341D",
"3  c #27381F",
"4  c #2C3C1E",
"5  c #30351F",
"6  c #313D1F",
"7  c #373419",
"8  c #001421",
"9  c #0A1E23",
"0  c #001A2A",
"q  c #101F20",
"w  c #001E31",
"e  c #0D292F",
"r  c #142B24",
"t  c #192D22",
"y  c #122C29",
"u  c #132725",
"i  c #16322E",
"p  c #1C3226",
"a  c #022335",
"s  c #082332",
"d  c #0D2C33",
"f  c #00243C",
"g  c #042A3D",
"h  c #0A2E3E",
"j  c #102D30",
"k  c #0B313E",
"l  c #232B20",
"z  c #2B2E23",
"x  c #263520",
"c  c #2B3521",
"v  c #273C21",
"b  c #2C3C21",
"n  c #2D332C",
"m  c #323521",
"M  c #323D22",
"N  c #3B3C22",
"B  c #3E3B28",
"V  c #283737",
"C  c #233538",
"Z  c #283A3C",
"A  c #323F3D",
"S  c #43070C",
"D  c #660B05",
"F  c #6E1208",
"G  c #721B0C",
"H  c #472E16",
"J  c #473B1A",
"K  c #4B391C",
"L  c #543E1C",
"P  c #693417",
"I  c #483E20",
"U  c #2D421F",
"Y  c #32431F",
"T  c #384B1F",
"R  c #274321",
"E  c #2C4321",
"W  c #274A21",
"Q  c #2C4A22",
"!  c #334421",
"~  c #394623",
"^  c #354922",
"/  c #3A4C22",
"(  c #3B4C28",
")  c #2A5221",
"_  c #345324",
"`  c #3D5122",
"'  c #41431E",
"]  c #6A511E",
"[  c #404D21",
"{  c #514121",
"}  c #594320",
"|  c #5E4824",
" . c #425323",
".. c #445822",
"X. c #435429",
"o. c #504B36",
"O. c #544F38",
"+. c #59543C",
"@. c #644C28",
"#. c #6D5627",
"$. c #615639",
"%. c #032B42",
"&. c #002D49",
"*. c #073144",
"=. c #083447",
"-. c #01314C",
";. c #003353",
":. c #043953",
">. c #0A3854",
",. c #003659",
"<. c #033B5C",
"1. c #0A3B59",
"2. c #003D63",
"3. c #1E4759",
"4. c #2F4649",
"5. c #2C4548",
"6. c #32484B",
"7. c #3C4C4A",
"8. c #284752",
"9. c #024064",
"0. c #00436C",
"q. c #144660",
"w. c #004673",
"e. c #004976",
"r. c #004C7C",
"t. c #434E46",
"y. c #585743",
"u. c #645D43",
"i. c #786844",
"p. c #85160C",
"a. c #89601F",
"s. c #846433",
"d. c #816937",
"f. c #95733D",
"g. c #A67C3B",
"h. c #907340",
"j. c #9A7C48",
"k. c #B9883C",
"l. c #9F814C",
"z. c #A98245",
"x. c #A78348",
"c. c #B38641",
"v. c #B68B47",
"b. c #BD904A",
"n. c #C0924B",
"m. c #CB9949",
"M. c #D39C47",
"N. c #D59F49",
"B. c #C79951",
"V. c #DAA34D",
"C. c #D1A055",
"Z. c #DFA851",
"A. c #DBA859",
"S. c #E5AC55",
"D. c #E5AE59",
"F. c #E5B05D",
"G. c #ECB35B",
"H. c #F1B85F",
"J. c #EFB761",
"K. c #F5BB62",
"L. c #F9BF65",
"P. c #004F80",
"I. c #005184",
"U. c #00558A",
/* pixels */
"~ ( ( ( ! ( x c ( ! E Q ! ( ( ( Q ! m b M b ( b ( ( ` v ) b Q ~ ! ! ^ v M ( ! ( ! R b ! v c b b E ! ",
"( ! ( Q Q Q E ( ( M b ( Q ( ! ( b E M M m ( ( ! ( ( M b b ! ( M ( ! ! Q ! : - - + o + ( b E b Q b b ",
"X.( Q _ ( ( v ( ( E m E b m ( b ( b ( ( M b M ~ ! ( ! ! ( ~ X.! ^ ! E % s 0.U.U.0.w.U.a u E ! b M ( ",
"X.~ E ( ( ( b c ( ( N M m E Q ! ( ( ( b z z E E ( ! / ` / ( ! Q ! ! @ 0.U.U.U.r., w U.0.8 ! ( / ( E ",
"E ( ( ( ( ( ( v ! ! Q M ^ ! ( / M E ! c m ( E M ! b ~  .Y ~ / E v @ r.0.I.U.U.U.U.U.0.S G ! ! / ( ( ",
"M ! b m E ( ( v ! ~ ( ! ( ! b ( b b c ! b m ( ! ^ / ^ /  . .! W 2 g I.U.r.w.r.&.;.&.0 . D p.E ! ! ~ ",
"M ( ( ( ( ( ! ( ( ( E E ( ^ ! b z m m c ! ( ( E ~  ./ ! / / ! / $ e.w.r.-.0 f 0 0   : ! ' F K ^ ! b ",
"( M Q E ! ( ( ! E ^ ^ ^ ( ( ! b ! ( Q E E c ! ( ! (  .! / ..6 + g U.r.,.2.o.B.v.V r M ! b H P Y ! ! ",
"m ( ( E ( v ! ( E ( ( E ! ~ ! ( ! ^ / E ! ^ ^ / ^ E / ..! / b r r.U.2.I.Z F.L.B.;.h ! M M M / ! R ! ",
"M ( ! ( ( ! ( ! ! Q Q b ! ^ ! ( ! ! ! ! ` / / ! Y / ! ` / ! ! k r.r.U.U.n G.G.c.-.<.o ~ ( E ^ / ! ! ",
"! ( ( ( ! ( ( c b b M ! ! c ! ^ x E ! ( E ! ! ! ! ! v ! / ! 3 k r.r.U.w.x.S.S.j.2.2.o ! ^ 3 b / / b ",
"E b Q ( b ! ( b b c ! M c E ( ( b b M / x W 3 / ^ b / ! v E E h U.I.w.2.B.L.L.u.I.0.X E ^ x c E b M ",
"b c Q E v ( ! ( b b E E c Q E Q E ( ( Y ! E ! ! b / / E 6 M Y # w.U.I.0.n.L.G.O.r.w.s v E b b b b x ",
"M c Q E c ( ! ( b E E b c Q Q E b ~ ! W ! / ( ^ ! / / Y 2 E 4 - 2.w.I.0.v.M.S.u.I.I.a b v b R ( / m ",
"! M b b E ( ( ! M c ( ( ( b E ! ` ^ E 4 ! Q ! U 4 ! ^ ^ x b b 4 s I.I.2.B.L.L.i.0.I.a ! b z c E / ~ ",
"( E E v c ( b ( ( ! b ( b ( ( ( ^ ! E x v R R W U ! 6 ! E v ! / 1 w.r.e.o.L.K.c.;.I.w / b N m x ! / ",
"( N M Q E ` ( ! ! b ! / ! b ^ ^ 4 b c c R ^ _ b c 4 ! ! U E ^ ! 4 g I.U.C m.Z.b.-.w.0 6 M N N N / / ",
"` ( m M ! ! ( ! ! ! ! 4  .^ c ! ! ! ! m b ^ ! b N c ! Y 4 M U ^ M # 2.I.0.f.L.F.7.U.a M M M M c 2 Y ",
"^ ! M ! ( ! ! ! ^ ^ M b M ~ M ^ 6 / ! 4 E ` ~ 3 v b ! / Y / ! ^ Y 4 *.U.0.f.L.G.+.U.a R x x R E E Y ",
"v ! ( ( ! ! ^ ( ^ b b ! b ! / / ! / ! ^ U ! / Y b 4 b !  ...Y U ! Y # 9.0.y.Z.S.l.0.0.1 b E E E ! E ",
"M b Q ( E ! E E ! ( ^ ! E ! E ! ~ / ~ ! Y U Y / ! ! / Y `  .Y ` ..Y Y x 0.8.F.L.F.7.U.< Y U Q Q E v ",
"b M ( ! ! ! c E M ` ( M b R b ^ ^ Y 4 / Y ! ^ ! Y / Y 2 Y Y / Y Y  .Y / 9 0.f.L.L.h.0.< ^ 3 Q ^ R b ",
"v ( ! ~ ( ! E ! ! ! / 4 b b E E U b W b ! Q ^ 6 ` / ^ b 6 b Y Y Y  ./ ` Y %.A S.N.b.8 + U v R E Q E ",
"! b ( b v Q b b / / ! U v R E v R R W R U ) W Q Y Y U ! ^ Y ~ ..Y ` Y / Y 1 -.f.L.L.b.o U 3 v x b R ",
"! ~ / 3 c Q R c / ^ 2 b b b b c v U _ ! Y _ U U U E ! / Y ^ 6 Y Y _ Y 4 E 4 &.y.L.L.L.L Y ~ / b b ~ ",
"b ( ! b m ! ^ ! ~ / ~ ! c b b M R R Y ! / ^ E E 4 4 Y ! ! Y 6 Y U E ! 4 ! ! y q.g.M.V.L.+ / Y ! / ^ ",
"( ` ( ^ b ! ( b 3 ~ ! E b E ^ ! E ! U ! Y Y 4 U ! 3 ! ! 5 4 b 4 / ^ Y / Y U * 0 f.L.L.L.@.^ U ! ! M ",
"! ( ! ! c E E b M ~ ! b b Q ^ ! ^ ! U ^ Y ! E ) E ! 4 6 E U U b 6 Y / ..4 U 1 a f.L.L.L.L.+ ) Y R ! ",
"b ! b Q c Q v x b m M x b Y ! Y / / _ / Y ! ^ Y Y ! 4 Y Y Y M M Y Y / Y _ Y W y 6.L.L.G.V.o 4 z 3 ` ",
"Q b Q ! ~ M M E b M E ! ! / / / Y ! Y Y Y ^ Y ^ U Y ^ E Y / 4 4  ...Y Y U / U y 5.M.M.G.L.7 E R b M ",
"E Q v v / ! / ! ! ! ~ / / ! Y ^ ! ` ! Y / Y _ U ! ` U E Y Y x c Y ` ` ` Y ` Y y 6.L.L.L.L.@.3 b v x ",
"Q ! ! E ! ! ! / 6 E E ! ! R / Y / [ ^ Y 4 U U 1 % + + 4 Y E ~ 6 ! Y Y Y Y / _ u >.z.L.L.L.@.E b R ! ",
"~ /  ./ ( / ! ^ 2 v b ~ / U ` E ^ ` 6 ! + i k :.0.0.2.%.k # 4 U 3 ^ ^ Y .. .U -.0.f.L.L.L.} 5 U v / ",
"( ( /  ./ ! ! ^ Q x M / M ! ^ 4 ! 4 < k 2.e.U.P.U.U.0.I.U.w.=.x v ~ Y ` Y ` t w.2.s.Z.Z.Z.| ! ^ M Y ",
"^ / ~ ! ( b E R b v M ~ ! 4 3 > y <.0.U.I.P.U.U.U.U.I.U.P.w.I.2.l U 4 !  .T d r.0.f.H.G.K.I ^ Y m b ",
"b ^ ! ! ! b v z b v c ~ / 4 y <.r.w.U.U.U.;.;.;.w.U.U.U.I.U.U.U.<.1 b / Y 1 0.U.0.f.L.L.L.+ ! ` Y b ",
"E E E E c Q E x E ! b / ` i r.U.U.0.0.-.a 0.0.,.w -.0.0.2.U.U.U.I.q Y ` / y I.0.1.z.L.L.A.- / ! v E ",
"c Q c c z ! R Q ! ^ M E i r.U.e.0.a 0.r.w.U.U.I.U.r.0.0.I.e.I.U.U.9 ^ Y 2 %.I.I.4.K.L.L.@./ Y Y b b ",
"E b v m M b Q ( ! E E d r.U.U.0.<.w.U.U.w.U.r.U.U.U.0.U.U.I.I.w.U.9 / Y j w.e.I.t.V.M.M.;  ./ 5 E b ",
"R c ( Q E b ! Q R v d I.e.U.U.-.U.U.U.U.U.U.f I.U.U.0.U.I.U.I.I.w.1 ! d I.U.U.0.f.L.L.s.Y Y ` ! E ! ",
"c c ^ M M N v E = s I.r.e.U.2.-.U.U.U.I.w.U.f P.w.U.U.U.P.e.U.r.e # s I.w.I.0.2.f.L.L.2 6 M 4 ! ! 4 ",
"^ ` ! b N ! : u :.U.I.I.U.P.0.;.P.r.U.r.r.U.w.;.0.r.P.P.P.I.r.-.e <.U.r.U.U.P.3.C.J.f.1 / Y ^ / Y M ",
"y b 2 2 t y -.r.I.U.U.I.P.r.*.-.P.r.U.U.U.I.U.w.;.&.;.&.;.;.;.,.I.U.I.e.I.U.r.$.D.d.Y / Y  .4 M / Y ",
"U.&.-.;.0.U.P.U.r.I.I.I.9.t 4 p r.U.I.U.U.P.I.U.P.w.U.U.U.I.U.e.I.U.U.U.0.P.4.k.#.4 Y ` Y / Y ~ ! m ",
"k r.P.P.I.U.U.r.U.I.9.d - ! ` Y -.U.r.P.U.U.0.U.U.r.U.r.U.P.U.U.U.U.r.U.I.1.a.] 2 Y / Y Y Y ! ^ R ! ",
"! r k 9.0.0.0.=.h d & ! / `  .! x <.U.U.U.U.P.U.U.U.U.P.I.U.U.I.U.I.e.U.0.B J 4  . .` / Y /  .Y b M ",
"( ! ^ - o + + 2 ! ( E ! Y ^ ^ Y 4 2 0.U.U.r.U.U.r.U.U.U.U.U.U.w.I.U.U.r.{ 7 Y / 4 Y Y ! ~ / / / ! ! ",
"^ / 4 E ^ ! ! / / ^ Y Q `  ./ / / ` 6 0.r.r.U.U.0.U.U.U.w.I.U.P.I.U.r.s < ! /  .! ! Y Y / / Y ^ / / ",
"! ` / ( ` ! ! ! / / 4 b / / ~ Y  ./  .: o a a ,.U.U.U.U.P.I.U.U.&.s - ! Y b  . ./ ! / U ! 6 ! ! / M ",
"! / ! / Y ! b (  .^ W E / / / / / Y / Y ! R c 4 + - - + X O o + ~ ` / 2 b ! / ! ` Y !  .x m b b R Q "
};
