/* XPM */
static char *_4c89727fc0d47e5f3fa757f11c215bap1yFaqprYiE3XJkp[] = {
/* columns rows colors chars-per-pixel */
"50 50 168 2 ",
"   c #394623",
".  c #3B4C28",
"X  c #334421",
"o  c #273520",
"O  c #2B3521",
"+  c #2C4321",
"@  c #2C4A22",
"#  c #323521",
"$  c #2C3C21",
"%  c #323D22",
"&  c #26341D",
"*  c #162720",
"=  c #002B45",
"-  c #152910",
";  c #354922",
":  c #273C21",
">  c #274321",
",  c #2C2E1D",
"<  c #07344A",
"1  c #00558A",
"2  c #0D262B",
"3  c #3A4C22",
"4  c #435429",
"5  c #345324",
"6  c #1D2614",
"7  c #161E10",
"8  c #0F282C",
"9  c #003556",
"0  c #192210",
"q  c #1A2411",
"w  c #1B2A15",
"e  c #3B3C22",
"r  c #26411E",
"t  c #001523",
"y  c #005082",
"u  c #005386",
"i  c #004570",
"p  c #081D20",
"a  c #29381F",
"s  c #3D5122",
"d  c #29371B",
"f  c #004673",
"g  c #004D7E",
"h  c #0E3036",
"j  c #30401F",
"k  c #313D1F",
"l  c #283924",
"z  c #033A58",
"x  c #004977",
"c  c #004B7B",
"v  c #005081",
"b  c #123336",
"n  c #364720",
"m  c #004E7E",
"M  c #004068",
"N  c #313E1A",
"B  c #425323",
"V  c #274A21",
"C  c #324420",
"Z  c #0B2E3B",
"A  c #1D2B1B",
"S  c #27381F",
"D  c #32431F",
"F  c #213219",
"G  c #212D19",
"H  c #2D3B1D",
"J  c #063349",
"K  c #004A79",
"L  c #101F1E",
"P  c #0B222B",
"I  c #00426B",
"U  c #252819",
"Y  c #202819",
"T  c #0B1309",
"R  c #2B3919",
"E  c #2C3C1F",
"W  c #2B2E23",
"Q  c #212D17",
"!  c #2E401E",
"~  c #072B3A",
"^  c #192C22",
"/  c #033E61",
"(  c #23341F",
")  c #2A351F",
"_  c #182921",
"`  c #2A3D20",
"'  c #2D421F",
"]  c #1D3022",
"[  c #22331E",
"{  c #15251F",
"}  c #37471C",
"|  c #26341B",
" . c #13241D",
".. c #0B242B",
"X. c #253217",
"o. c #132110",
"O. c #445822",
"+. c #24371E",
"@. c #263319",
"#. c #062E41",
"$. c #0C242A",
"%. c #0F282B",
"&. c #181E0F",
"*. c #0D262A",
"=. c #16210F",
"-. c #2A5221",
";. c #191E11",
":. c #192C21",
">. c #031E2D",
",. c #061D26",
"<. c #36431C",
"1. c #2C3B1B",
"2. c #1A2F22",
"3. c #0F292B",
"4. c #26381E",
"5. c #394C20",
"6. c #20301D",
"7. c #0A262B",
"8. c #073449",
"9. c #00446F",
"0. c #103035",
"q. c #2F3F1D",
"w. c #123136",
"e. c #153636",
"r. c #3E4E21",
"t. c #30351F",
"y. c #25321E",
"u. c #102E36",
"i. c #004672",
"p. c #172F26",
"a. c #0F2726",
"s. c #043A58",
"d. c #243119",
"f. c #162822",
"g. c #00304F",
"h. c #002136",
"j. c #222E1C",
"k. c #11261E",
"l. c #19210F",
"z. c #132C22",
"x. c #283719",
"c. c #293F1F",
"v. c #112C26",
"b. c #023A58",
"n. c #1D2611",
"m. c #162D26",
"M. c #0B2E3A",
"N. c #1F2B1E",
"B. c #252E17",
"V. c #2B341A",
"C. c #252E19",
"Z. c #0B242A",
"A. c #092C3A",
"S. c #00304E",
"D. c #33421E",
"F. c #0A2C3A",
"G. c #404D21",
"H. c #152522",
"J. c #063249",
"K. c #213423",
"L. c #263B1D",
"P. c #004671",
"I. c #14261E",
"U. c #202A15",
"Y. c #16271E",
"T. c #1F2A13",
"R. c #273A1B",
"E. c #072938",
/* pixels */
"  . . . X . o O . X + @ X . . . @ X # $ % & * = = = = = - $ @   X X ; : % . X . X > $ X : O $ $ + X ",
". X . @ @ @ + . . % $ . @ . X . $ + % % , < 1 1 1 1 1 1 1 2 . % . X X @ X $ ; 3 X $ X . $ + $ @ $ $ ",
"4 . @ 5 . . : . . + # + $ # . $ 6 7 6 8 9 1 1 1 1 1 1 1 1 1 = 0 q 0 w @ + @ ; . . 3 3 X 5 + X $ % . ",
"4   + . . . $ O . . e % # + r t 1 1 1 y y u 1 1 1 1 1 1 1 y y 1 1 1 i p a @ . s 3 X X $ X X . 3 . + ",
"+ . . . . . . : X X @ % ; d < y y 1 1 y f u 1 1 1 1 1 1 1 y f 1 1 u y g h j 3 3 k X X 3 3 X X 3 . . ",
"% X $ # + . . : X   . X l z 1 y f 1 1 1 1 x x 1 1 1 1 1 f c 1 1 1 u f u v b n 3 $ : % 3 X % + X X   ",
"% . . . . . X . . . + + 8 1 1 1 1 1 1 1 y m u 1 1 1 1 1 y y y 1 1 1 1 1 1 M N B X V e   3 3 X ; X $ ",
". % @ + X . . X + ; ; C Z 1 1 1 1 c f 1 c c u y u 1 y y 1 f y c x y 1 1 1 i A X S V % X $ X 3 D X X ",
"# . . + . : X . + . . F M 1 1 1 1 1 y 1 1 1 u f u 1 y f 1 1 1 1 m 1 1 1 1 1 t X : e X % % % 3 X > X ",
"% . X . . X . X X @ @ G M 1 f f 1 1 1 1 1 1 1 1 1 1 1 1 1 1 1 1 1 1 1 f f 1 t : @ : O   . + ; 3 X X ",
"X . . . X . . O $ $ % H J 1 c 1 1 1 1 1 1 1 1 1 1 1 1 1 1 1 1 1 1 1 1 y y K L $ ; X $ X ; S $ 3 3 $ ",
"+ $ @ . $ X . $ $ O X % P 1 1 1 1 1 I c 1 1 f f 1 1 1 I c 1 1 I f 1 1 1 1 M U + X ; : + ; o O + $ % ",
"$ O @ + : . X . $ $ + + Y M 1 1 1 1 1 1 1 1 1 1 1 1 1 1 1 1 1 1 1 1 1 1 1 2   @ + X + : + $ $ $ $ o ",
"% O @ + O . X . $ + + $ O T 1 1 I c 1 1 1 1 1 1 1 1 1 1 1 1 1 1 1 f f 1 M R 3 D @ ; X $ : $ > . 3 # ",
"X % $ $ + . . X % O . . . $ = 1 1 1 1 1 1 1 1 y I I I 1 1 1 1 1 1 1 1 1 2 3 D 3 E : 3 X $ W O + 3   ",
". + + : O . $ . . X $ . $ . 6 1 1 1 1 1 1 1 1 1 1 1 1 1 1 1 1 1 1 1 1 M Q D E s $ % 3 3 $ e # o X 3 ",
". e % @ + s . X X $ X 3 X $ ! 9 1 1 1 c f y 1 1 1 1 1 1 1 c f 1 1 1 1 ~ j D X ; D s D k % e e e 3 3 ",
"s . # % X X . X X X X E B ; O ^ K 1 1 1 y 1 1 1 1 1 1 1 1 1 y 1 1 1 / ( ; @ k D ; X D % % % % O ) D ",
"; X % X . X X X ; ; % $ %   % ; _ K 1 1 1 1 y y 1 1 1 y y 1 1 1 1 / ` ; X ' X X $ X ' > o o > + + D ",
": X . . X X ; . ; $ $ X $ X 3 3 X ] K 1 1 1 c c 1 1 1 f y 1 1 1 z [ D D D S E X ; 3 : X $ + + + X + ",
"% $ @ . + X + + X . ; X + X + X   3 { 1 1 1 1 1 1 1 1 1 1 1 1 9 } D D s X X @ ' E ' + s D ' @ @ + : ",
"$ % . X X X O + % s . % $ > $ ; ; D | 9 1 1 1 1 1 1 1 1 1 1 1  .D B D 3 D D ' ' V ; X s ; S @ ; > $ ",
": . X   . X + X X X 3 E $ $ + + ' $ V ..K y c y 1 1 1 c c 1 M X.D B 3 s s B X ; E 3 3 X ' : > + @ + ",
"X $ . $ : @ $ $ 3 3 X ' : > + : > > V o.M 1 c 1 1 1 1 1 c 1 = O.D s D 3 D D O.D 3 D D k ' +.: o $ > ",
"X   3 S O @ > O 3 ; ) $ $ $ $ O : ' 5 @.#.I y 1 1 1 1 1 c I $.D D 5 D E + 3 D s O.D ; ; D   3 $ $   ",
"$ . X $ # X ; X   3   X O $ $ % > > D X %.1 1 1 1 1 1 1 1 1 &.D ' + X E X X D 3 s B D D D 3 D X 3 ; ",
". s . ; $ X . $ S   X + $ + ; X + X ' X *.1 f f 1 1 1 I c 1 7 E 3 ; D 3 D ' V + D D X X D ; ' X X % ",
"X . X X O + + $ %   X $ $ @ ; X ; X ' ; *.1 1 1 1 1 1 1 1 1 =.$ k D 3 O.E ' ' > E X ' D s @ -.D > X ",
"$ X $ @ O @ : o $ # % o $ D X D 3 3 5 3 *.1 1 1 1 1 1 1 1 1 ;.% D D 3 D 5 D V V $ ; s D +.O E W S s ",
"@ $ @ X   % % + $ % + X X 3 3 3 D @.:.*.>.= = = = = = = = = ,.Q <.O.D D ' 3 ' ' S % 3 ; $ % + > $ % ",
"+ @ : : 3 X 3 X X X   3 3 X 1.2.2 M K 1 1 1 1 1 1 1 1 1 1 f 1 M z 3.4.5.D s D ' 5 X ' ' X V S $ : o ",
"@ X X + X X X 3 k + + j 6.7.8.K 1 1 1 c c 1 1 1 y c 1 1 1 f 1 1 9.u i 0.q.3 5 ' S D 3 3 k ; + $ > X ",
"  3 B 3 . 3 X ; ) : a w.i 1 1 1 f 1 1 c c 1 1 1 y c 1 1 1 1 1 1 9.u 1 v e.r.5 ' D D ' X 3 D t.' : 3 ",
". . 3 B 3 X X ; @ y.u.v 1 1 1 1 y 1 1 1 1 u u 1 1 1 1 1 1 1 f 1 1 1 y 1 i.p.D D 3 D D ' 3 3 X ; % D ",
"; 3   X . $ + > $ a.v 1 1 1 f 1 1 1 1 1 1 u 9.1 1 1 1 1 1 1 I 1 1 1 y 1 1 s.d.X s s D X ' D ; D # $ ",
"$ ; X X X $ : W f.K 1 1 1 1 c c 1 1 1 M 1 y g.= = h.= = = = = = 9 1 1 1 1 1 t D D 3 s D ; X X s D $ ",
"+ + + + O @ + j.J 1 1 c 1 1 1 1 1 1 1 M = = K 1 1 1 1 1 1 1 1 1 K = = K f y 1 &.: $ 3 X D D 3 X : + ",
"O @ O O W X > k.K 1 y c y 1 1 1 1 1 1 1 y y 1 1 1 1 1 c 1 1 1 c 1 1 1 9 = K 1 &.e D X X   3 D D $ $ ",
"+ $ : # % $ @ t 1 1 1 1 1 1 1 c c 1 1 1 f y 1 1 1 1 1 1 1 1 1 I 1 1 1 1 1 9 = l.D E s D D B 3 t.+ $ ",
"> O . @ + $ X k.K 1 1 y y 1 1 1 1 1 1 1 1 1 1 1 y y 1 1 1 c 1 1 1 1 1 1 1 c 1 M Q % D 3 ; D s X + X ",
"O O ; % % e : + z.K 1 c 1 1 1 1 1 1 c 1 1 1 1 1 f y 1 1 1 I 1 1 1 c 1 1 y f 1 1 M x.X X k % E X X E ",
"; s X $ e X o o c.h v 1 1 1 1 1 1 c c 1 1 u u 1 u u 1 1 1 y 1 1 y c 1 1 1 y 1 1 1 8.1.: 3 D ; 3 D % ",
"X . X X : V + o > a v.b.M v 1 1 1 1 y 1 1 u u 1 1 i M M M M M 1 1 K 1 1 1 1 1 1 1 1 n.3 D B E % 3 D ",
"3 3 . ; @ @ 3 ; $ o @ d x.m.2 8.M M M M M M.*.*.$.N.U B.V.C.X.Z.A.S.1 1 1 1 m f 1 9 1.s D 3 D   X # ",
"3 X 3 . . + ; $ $ o V X X X s D.X.Q C.@.x.q.s s O % % ; s k V , F.v u f u 1 m y K :.3 D D D X ; > X ",
"X X 3 G.+ + V + O + -.X 3 s B X % S ; X 3 D D s t.+ D D D % H.J.u u u y u 1 1 M K.B s 3 D 3 B D $ % ",
". X ; X $ X X O X . + X D ; ; D E   O.D D D D s s 3 X X L.^ P.1 u x 1 1 i z *.R E D D X   3 3 3 X X ",
"; 3 E + ; X X 3 3 ; D @ s B 3 3 3 s B X ; D ' ' ' 3 s 0 2 M I 1 1 1 K = I.U.3 B X X D D 3 3 D ; 3 3 ",
"X s 3 . s X X X 3 3 E $ 3 3   D B 3 B k t.% % X X ^ = 1 c 1 1 M = Y.T.X D $ B B 3 X 3 ' X k X X 3 % ",
"X 3 X 3 D X $ . B ; V + 3 3 3 3 3 D 3 D X > O X R.E.= = = = 7 @.. s 3 ) $ X 3 X s D X B o # $ $ > @ "
};
