/* XPM */
static char *_93f36d87e164edb8f9f7c2f008d899eoeKLbIBanrr0txmb[] = {
/* columns rows colors chars-per-pixel */
"50 50 247 2 ",
"   c #394623",
".  c #3B4C28",
"X  c #334421",
"o  c #273520",
"O  c #2B3521",
"+  c #2C4321",
"@  c #2C4A22",
"#  c #323521",
"$  c #2C3C21",
"%  c #323D22",
"&  c #3D5122",
"*  c #273C21",
"=  c #2A5221",
"-  c #354922",
";  c #274321",
":  c #3A4C22",
">  c #435429",
",  c #345324",
"<  c #303E20",
"1  c #16271B",
"2  c #001523",
"3  c #081C20",
"4  c #292B1B",
"5  c #043550",
"6  c #004570",
"7  c #00558A",
"8  c #002B45",
"9  c #1F3949",
"0  c #005081",
"q  c #033A58",
"w  c #112C26",
"e  c #30401F",
"r  c #2B2E23",
"t  c #04151D",
"y  c #003A5F",
"u  c #00416A",
"i  c #123336",
"p  c #2F3920",
"a  c #425323",
"s  c #32431F",
"d  c #313D1F",
"f  c #161D0F",
"g  c #003556",
"h  c #004A79",
"j  c #005082",
"k  c #004B7B",
"l  c #112726",
"z  c #274A21",
"x  c #374725",
"c  c #132A26",
"v  c #072939",
"b  c #002034",
"n  c #005386",
"m  c #004977",
"M  c #033351",
"N  c #3B3C22",
"B  c #2D3B1D",
"V  c #11241E",
"C  c #000509",
"Z  c #00436C",
"A  c #004E7E",
"S  c #0B1F21",
"D  c #445822",
"F  c #27381F",
"G  c #0B262B",
"H  c #3E453C",
"J  c #F9BF65",
"K  c #5D5237",
"L  c #1D2611",
"P  c #004068",
"I  c #0D262B",
"U  c #322E22",
"Y  c #151A10",
"T  c #D9A24C",
"R  c #E9B159",
"E  c #F1B85F",
"W  c #363E36",
"Q  c #004673",
"!  c #2C3C1F",
"~  c #161E10",
"^  c #BB8F4C",
"/  c #E1A952",
"(  c #2A351F",
")  c #1D2614",
"_  c #7D6033",
"`  c #003B60",
"'  c #00426B",
"]  c #29371B",
"[  c #6D5126",
"{  c #B38846",
"}  c #13241E",
"|  c #2C391E",
" . c #AB813F",
".. c #162110",
"X. c #2D421F",
"o. c #212D19",
"O. c #003C62",
"+. c #9C773F",
"@. c #00253C",
"#. c #263B1D",
"$. c #30351F",
"%. c #00263D",
"&. c #5D5840",
"*. c #004672",
"=. c #19271B",
"-. c #C99440",
";. c #323A32",
":. c #0A2C3A",
">. c #263319",
",. c #00375A",
"<. c #182419",
"1. c #283719",
"2. c #073449",
"3. c #162C22",
"4. c #004671",
"5. c #192C22",
"6. c #0B222B",
"7. c #162822",
"8. c #0B242B",
"9. c #0B1F22",
"0. c #1F3339",
"q. c #003659",
"w. c #182F1D",
"e. c #24371E",
"r. c #1A1D0E",
"t. c #947039",
"y. c #29381F",
"u. c #96753B",
"i. c #423D1F",
"p. c #D9A552",
"a. c #D2A052",
"s. c #111F16",
"d. c #232B1B",
"f. c #9E7B41",
"g. c #75582C",
"h. c #35321D",
"j. c #DAA758",
"k. c #4C4122",
"l. c #1D2D19",
"z. c #A37A39",
"x. c #002136",
"c. c #1C2311",
"v. c #1E2811",
"b. c #192210",
"n. c #19210F",
"m. c #203416",
"M. c #213219",
"N. c #223B1D",
"B. c #062837",
"V. c #13241D",
"C. c #16210F",
"Z. c #35471E",
"A. c #2B3919",
"S. c #33421E",
"D. c #063349",
"F. c #0F282B",
"G. c #313E1A",
"H. c #2C351E",
"J. c #092B3A",
"K. c #192C21",
"L. c #1D2822",
"P. c #1E3322",
"I. c #A77D3C",
"U. c #EDB45C",
"Y. c #1F3840",
"T. c #072838",
"R. c #00446F",
"E. c #162726",
"W. c #2F3F1D",
"Q. c #B78C49",
"!. c #E5AD55",
"~. c #1B2515",
"^. c #072938",
"/. c #102B36",
"(. c #004169",
"). c #1D3022",
"_. c #202819",
"`. c #00304F",
"'. c #061E28",
"]. c #003D64",
"[. c #00385B",
"{. c #003658",
"}. c #113236",
"|. c #16211E",
" X c #103036",
".X c #354221",
"XX c #2C2E1D",
"oX c #826737",
"OX c #1A2411",
"+X c #253217",
"@X c #494122",
"#X c #0D242B",
"$X c #252E19",
"%X c #17291E",
"&X c #162821",
"*X c #34341E",
"=X c #7B6131",
"-X c #0F292B",
";X c #333D1D",
":X c #2E3D19",
">X c #243C1C",
",X c #9F7C41",
"<X c #2F4143",
"1X c #004876",
"2X c #062939",
"3X c #2B341A",
"4X c #343E1E",
"5X c #D19D4C",
"6X c #4E564B",
"7X c #004D7E",
"8X c #063249",
"9X c #132F22",
"0X c #062739",
"qX c #003E65",
"wX c #2B3B1C",
"eX c #404D21",
"rX c #72582A",
"tX c #E9B35F",
"yX c #26341D",
"uX c #1B2F1D",
"iX c #082C3A",
"pX c #00446E",
"aX c #192F27",
"sX c #836938",
"dX c #2A3E1D",
"fX c #1B2B1D",
"gX c #082B3A",
"hX c #123032",
"jX c #364720",
"kX c #2E401E",
"lX c #38391C",
"zX c #826937",
"xX c #DDA855",
"cX c #C18F3F",
"vX c #45422D",
"bX c #0C3D59",
"nX c #043A58",
"mX c #172F26",
"MX c #253F1F",
"NX c #162D26",
"BX c #4C3B18",
"VX c #745320",
"CX c #B98533",
"ZX c #2E372F",
"AX c #202A15",
"SX c #212911",
"DX c #1C2913",
/* pixels */
"  . . . X . o O . X + @ X . . . @ X # $ % $ . $ . . & * = $ @   X X - * % . X . X ; $ X * O $ $ + X ",
". X . @ @ @ + . . % $ . @ . X . $ + % % # . . X . . % $ $ X . % . X X @ X $ - : X $ X . $ + $ @ $ $ ",
"> . @ , . < 1 2 2 2 2 2 3 4 . $ . $ . . % $ %   X . X X .   > X - X + @ + @ - . . : : X , + X $ % . ",
">   + . < 5 6 7 8 9 7 7 0 q w e . . . $ r r + + . X : & : . X @ X X O + $ @ . & : X X $ X X . : . + ",
"+ . . . < t y 7 8 9 7 7 7 7 u i p + X O # . + % X $   a s   : + * $ $ $ + X : : d X X : : X X : . . ",
"% X $ # + f 2 g 7 7 h 7 7 j k 0 l $ O X $ # . X - : - : a a X z $ ; @ @ X : : : $ * % : X % + X X   ",
"% . . . . x c v b 8 g 7 y h n m M 4 # O X . . +   a : X : : X : ; + ; + $ % a a X z N   : : X - X $ ",
". % @ + X . . B V g 2 2 C 2 Z A 0 S @ + + O X . X . a X : D d + - + , ; $ X X X F z % X $ X : s X X ",
"# . . + . * X . G H J J K h g h 7 g L + X - - : - + : D X : $ X $ - X ; o $ $ X * N X % % % : X ; X ",
"% . X . . X . X 8 8 J J J H 7 P 7 7 I X & : : X s : X & : X X : : + * U X * O * @ * O   . + - : X X ",
"X . . . X . . Y k 8 T R E W 7 7 k Q 8 . + X X X X X * X : X F : X ! o O % $ O $ - X $ X - F $ : : $ ",
"+ $ @ . $ X . ~ k P ^ R / ^ P 7 j j 8 : o z F : - $ : X * + + % d ( N % % % # + X - * + - o O + $ % ",
"$ O @ + * . X ) k k _ J J ^ ` ' j 7 8 s X + X X $ : : + d % s : s   X :   X   @ + X + * + $ $ $ $ o ",
"% O @ + O . ] v Q j [ E J { P j 7 7 } z X : . - X : : s ( + !   s : X X s : : s @ - X $ * $ ; . : # ",
"X % $ $ + . | 8 j j _ / T  .P j Q j ..! X @ X X.! X - - o $ $ d @ X.% + X : s : ! * : X $ r O + :   ",
". + + * O . o.8 j O.+.J J ^ ` j j @.#.o * ; ; z X.X d X + * X : X X.$.d ! s ! & $ % : : $ N # o X : ",
". N % @ + & | %.j 8 / J J &.*.k 6 =.O O ; - , $ O ! X X X.+ - X + $ ( * X s X - s & s d % N N N : : ",
"& . # % X X | %.' 8 E -.-.;.7 7 :.e X # $ - X $ N O X s ! % X.- % + X X - @ d s - X s % % % % O ( s ",
"- X % X . X >.8 7 H J J ^ P j ,.<.: X ! + &   F * $ X : s : X - s X & - X X.X X $ X X.; o o ; + + s ",
"* X . . X X 1.8 7 [ J J ^ P 7 2.B : X - X.X : s $ ! $ X a D s X.X s s s s F ! X - : * X $ + + + X + ",
"% $ @ . + X 3.P P ^ T T K O.4.5.  :   X s X.s : X X : s & a s & D s s & X X @ X.! X.+ & s X.@ @ + * ",
"$ % . X X X 6.7 H J J J 2 h 7.- - s ! : s X - X s : s ( s s : s s a s : s s X.X.z - X & - F @ - ; $ ",
"* . X   . X G P  .J J _ 7 8.+ + X.$ z $ X @ - d & : - $ d $ s s s a : & & a X - ! : : X X.* ; + @ + ",
"X $ . $ * @ 9.b / R E 0.q.w.+ * ; ; z ; X.= z @ s s X.X - s   D s & s : s s D s : s s d X.e.* o $ ; ",
"X   : F O @ r._ J R t.` l y.$ O * X., X s , X.X.X.+ X : s - d s s , s ! + : s & D s - - s   : $ $   ",
"$ . X $ # ] u.J J J K %.O $ $ % ; ; s X : - + + ! ! s X X s d s X.+ X ! X X s : & a s s s : s X : - ",
". & . - $ i.p./ R a.g s.$ + - X + X X.X s s ! X.X F X X $.! $ ! : - s : s X.z + s s X X s - X.X X % ",
"X . X X d.f.J E R g.7 ~ $ @ - X - X X.- s X + = + X ! d + X.X.$ d s : D ! X.X.; ! X X.s & @ = s ; X ",
"$ X $ @ h.j.J J J 8 8 o $ s X s : : , : s X - s s X ! s s s % % s s : s , s z z $ - & s e.O ! r F & ",
"@ $ @ X k.J J J _ 7 8 X X : : : s X s s s - s - X.s - + s : ! ! a D s s X.: X.X.F % : - $ % + ; $ % ",
"+ @ * l.z.E J J x.' c.: : X s - B v.b.n.L n.m.X.X & X.+ s s o O s & & & s & s X., X X.X.X z F $ * o ",
"@ X X M.^ / T T 8 7 ..X X N.L B.8 h 7 7 7 7 h x.8 V.C.Z.s +   d X s s s s : , X.F s : : d - + $ ; X ",
"  : a A.^ J J J 8 7 ~   S.D.k 7 7 7 ' 7 7 7 j j 7 7 7 g F.A.X.X.F - - s D a , X.s s X.X : s $.X.* : ",
". . : G.^ J J J 8 g H.S.J.0 k j 7 7 Q 7 7 7 7 7 7 7 m n 4.D.K.s *   s & s & s s : s s X.: : X - % s ",
"- :   >.^ J J J 8 x.% c.7 7 7 7 7 7 7 7 j 7 7 j 7 7 m n j 7 h L.N X.! X a & ! X & P.K.e X.s - s # $ ",
"$ - X >.I.U.J J Y.8 O T.7 7 7 7 n R.7 h j 7 7 Q j 7 7 A 7 7 7 h E.y.$ : s s ! s K.P P.W.- X X & s $ ",
"+ + + M.Q.!.T T [ h ~.^.7 7 7 7 n n 7 h g P P ` P 6 7 A 7 7 k j 0 /.W.& : X.X d 8 (.).e s s : X * + ",
"O @ O _.^ J J J j.`.'...7 n Q n 7 7 7 7 h P P P ].[.8 8 {.7 7 j A 0 }.W.s : s d |.7 4. X.X: s s $ $ ",
"+ $ * XXoXJ J J J x.P OXg j k j 7 7 7 7 k 7 j j j j 7 7 8 P 7 7 Q 7 h K.: s : s +XP k h K.a : $.+ $ ",
"; O . @ @XJ J J J _ 7 {.2 7 7 7 7 7 ' 7 7 7 ' j 7 7 7 Q 7 8 7 7 7 7 7 h K.d & & ! #X7 j 4.K.& X + X ",
"O O - % $X .J J J J 8 k h 8 h j j 7 k 7 7 7 7 7 7 Q j 7 k P {.k Q 7 k 7 h %Xs : : 1.P 7 7 h &XX X ! ",
"- & X $ *X=XT T T T [ 7 7 j `.x.8 8 7 7 P 8 7 7 7 7 7 7 7 7 8 7 7 7 Q j 7 7 -Xs s : n.P 7 7 2.S.s % ",
"X . X X * ;Xj.J J J J H j Q 7 7 k 7 8 8 {.7 7 k 7 7 7 7 7 k 8 7 7 7 7 7 j j 7 F.:X+XP 7 7 k P $X: s ",
": : . - @ >X,XJ J J J j.<X1Xn n j 7 7 7 k k 7 7 j k 7 7 k j 8 k A 7 k 7 7 7 7 4.2X2.k 7 j Q ` 3XX # ",
": X : . . + 4XoXJ J E T 5X6X7Xn j m 7 7 j 7 7 7 j k 7 A 7 8X9X0XqX7 7 j k 7 7 j 7 7 j n 7 7 q wX; X ",
"X X : eX+ + z #.rXT / R J tX6X0 j m 7 7 j 7 n n 7 j 7 A D.H.O yXuXiX6 j k 7 7 7 7 7 Q n n pXaXs $ % ",
". X - X $ X X O B sXj.J J J tX6X0 7 7 j j 7 j Q 7 j 0 :.#.X X.* ; dXfXgXP 0 7 k 7 j 7 7 7XhXjX: X X ",
"- : ! + - X X : : kXlXzX^ xXR cXvXbXh ' 7 7 n n 6 nXmXe X ! z + ; + z MX1.c F.P P ` P q NXjXs - : : ",
"X & : . & X X X : : ! o.L BXVXCXCXVXZX{.P 8 8 8 } AX& & X z - % $ : s X s $ a SXL b.L DXX d X X : % ",
"X : X : s X $ . a - z + : : S.L L n.L n.>.; O X X.: : s * ; $ X . & : ( $ X : X & s X a o # $ $ ; @ "
};
