/* XPM */
static char *_575905b06e44acca48e6f847ec966d6kXcFgN4Vu6QdVnEc[] = {
/* columns rows colors chars-per-pixel */
"50 50 236 2 ",
"   c #391401",
".  c #2D3D1F",
"X  c #2C351D",
"o  c #343C1E",
"O  c #3A3E1E",
"+  c #2C3522",
"@  c #2C3C22",
"#  c #313622",
"$  c #323D23",
"%  c #383D22",
"&  c #461A03",
"*  c #562506",
"=  c #4F3512",
"-  c #773C0B",
";  c #68310C",
":  c #403D25",
">  c #2C421F",
",  c #33421F",
"<  c #3C441E",
"1  c #3E4B1F",
"2  c #364B1D",
"3  c #2C4322",
"4  c #2C4A22",
"5  c #274621",
"6  c #334422",
"7  c #3A4522",
"8  c #364923",
"9  c #364A25",
"0  c #354922",
"q  c #394A23",
"w  c #3B4C23",
"e  c #394A25",
"r  c #3A4D25",
"t  c #3A4C22",
"y  c #3B4C28",
"u  c #345225",
"i  c #3D5123",
"p  c #3B5129",
"a  c #43461C",
"s  c #434C1E",
"d  c #4C4C1C",
"f  c #49441D",
"g  c #534C1A",
"h  c #584716",
"j  c #4E521E",
"k  c #53531C",
"l  c #5A531B",
"z  c #5B5B1D",
"x  c #5E400D",
"c  c #69460D",
"v  c #78480B",
"b  c #79550D",
"n  c #6C4E13",
"m  c #674914",
"M  c #774D15",
"N  c #635416",
"B  c #6C5414",
"V  c #6D5A15",
"C  c #635B1B",
"Z  c #6C5C1B",
"A  c #665719",
"S  c #735312",
"D  c #725B14",
"F  c #7D5B13",
"G  c #7A5A18",
"H  c #6E500E",
"J  c #6C671E",
"K  c #7F6A1C",
"L  c #796717",
"P  c #434C22",
"I  c #464924",
"U  c #435323",
"Y  c #4B5423",
"T  c #495729",
"R  c #565A24",
"E  c #525E31",
"W  c #615A22",
"Q  c #785E25",
"!  c #5B6128",
"~  c #566036",
"^  c #64632A",
"/  c #696425",
"(  c #746B24",
")  c #766825",
"_  c #797325",
"`  c #7A7537",
"'  c #8C3902",
"]  c #903E03",
"[  c #884705",
"{  c #9C4B01",
"}  c #924804",
"|  c #8B5C0B",
" . c #85530B",
".. c #985908",
"X. c #874813",
"o. c #875B14",
"O. c #9A5718",
"+. c #A95A04",
"@. c #8A630D",
"#. c #99680B",
"$. c #8A6A12",
"%. c #83631E",
"&. c #8D6B1D",
"*. c #856716",
"=. c #926B13",
"-. c #936C1C",
";. c #986A1C",
":. c #88711B",
">. c #94741B",
",. c #997619",
"<. c #A76707",
"1. c #B96B05",
"2. c #AA7209",
"3. c #A6760D",
"4. c #BA7503",
"5. c #B87808",
"6. c #A86615",
"7. c #A37C1C",
"8. c #A97B16",
"9. c #B47C12",
"0. c #B6681B",
"q. c #8A6B21",
"w. c #866924",
"e. c #936E22",
"r. c #9A6727",
"t. c #887828",
"y. c #967D23",
"u. c #997625",
"i. c #867835",
"p. c #896F35",
"a. c #A57626",
"s. c #A97C24",
"d. c #A37D25",
"f. c #A37E32",
"g. c #C67C06",
"h. c #C37F11",
"j. c #9C851D",
"k. c #B8820C",
"l. c #AC831D",
"z. c #A9861B",
"x. c #BC8A1B",
"c. c #B58618",
"v. c #BB961D",
"b. c #8B812C",
"n. c #9A8428",
"m. c #9A8634",
"M. c #8F8231",
"N. c #AB8325",
"B. c #A88728",
"V. c #BA8B24",
"C. c #B58726",
"Z. c #B8972A",
"A. c #A38432",
"S. c #A88834",
"D. c #B48932",
"F. c #A99636",
"G. c #B49432",
"H. c #BA9B34",
"J. c #A7942E",
"K. c #BDA333",
"L. c #C78507",
"P. c #D88803",
"I. c #D2940C",
"U. c #C48C11",
"Y. c #C88C18",
"T. c #CD9B1D",
"R. c #C5971B",
"E. c #D89B1A",
"W. c #CF9607",
"Q. c #E99808",
"!. c #EA8A02",
"~. c #C9A41F",
"^. c #DAA41A",
"/. c #E9A207",
"(. c #E8A718",
"). c #E8B51B",
"_. c #F4B41A",
"`. c #F2A706",
"'. c #C69626",
"]. c #D29D25",
"[. c #C49632",
"{. c #C8A427",
"}. c #DEAB24",
"|. c #D7A525",
" X c #DDB228",
".X c #C9A535",
"XX c #D3AB38",
"oX c #DDB532",
"OX c #D8B838",
"+X c #CDB037",
"@X c #E2AF26",
"#X c #E5BB24",
"$X c #ECBC2D",
"%X c #E7B725",
"&X c #E9BD34",
"*X c #F3B823",
"=X c #EDC22E",
"-X c #F5C32F",
";X c #ECC639",
":X c #F0C331",
">X c #F4CB3B",
",X c #F8C934",
"<X c #F8D13E",
"1X c #93894D",
"2X c #B79941",
"3X c #BBA855",
"4X c #CAA548",
"5X c #C8B154",
"6X c #D9AC49",
"7X c #E3BB50",
"8X c #ECCA41",
"9X c #F1CD46",
"0X c #F6D54C",
"qX c #F8D54E",
"wX c #F5D344",
"eX c #F7D956",
"rX c #EECA57",
"tX c #D9C270",
"yX c #F8D878",
"uX c #F0CF69",
"iX c #FAE269",
"pX c #FBE272",
"aX c #FDEA7B",
"sX c #FBDA85",
"dX c #FDEA88",
"fX c #FDEE9D",
"gX c #FCED96",
"hX c #FEF29B",
"jX c #D1D4B3",
"kX c #FDEFA2",
"lX c #FEF3AB",
"zX c #FFF7B9",
"xX c #FFFBCC",
"cX c #FEFAC4",
"vX c #FFFCD6",
"bX c #FFFEE1",
/* pixels */
"y e y r 6 9 @ $ r 6 3 6 6 e 9 u 6 6 # + $ 3 6 6 6 y i @ 4 @ 6 w 6 q 8 @ 6 q 9 r 9 3 @ 6 3 + @ @ 4 8 ",
"p 6 y 9 u 3 9 $ e 6 6 u 9 r 6 r $ 9 $ % % e y e e q @ @ @ 6 i 6 y 6 6 3 6 6 r t 6 @ e 8 @ @ 3 3 $ $ ",
"T e 9 u p 9 3 6 e 6 # 3 @ @ 6 @ e 6 r 6 $ @ $ 6 6 q 6 6 e e P 6 8 6 3 4 3 4 6 q q t 6 q 0 4 6 6 $ 7 ",
"y 9 9 9 p r 3 6 9 e % 6 $ 3 9 6 r e 9 @ + + 6 3 e 6 t y q q 6 4 6 6 @ 3 3 0 t t t 6 6 @ 8 6 9 q y @ ",
"6 y y r 9 6 6 @ 9 6 4 $ 6 6 r q 6 6 6 @ + $ 6 + 9 6 e U q q 8 3 @ @ @ 3 7 k t i 6 0 6 9 q 6 8 q t r ",
"6 $ $ $ 6 y e 3 6 6 U *.9 9 @ q 6 @ $ 6 $ 6 e 9 9 y 8 6 U U 6 4 @ 3 3 4 P U.R q @ 3 6 q 6 6 3 0 6 6 ",
"$ e e e e e 6 y e y  X Xy 9 6 6 + % $ + 6 y Y R ^ ^ ! E T T U t 3 3 3 4 P &X:Xt.0 4 % 7 t 6 6 8 q 6 ",
"e e 4 6 6 r y 6 9 ( 9XOXy r 6 6 R >.=.&.u.{.#X:X;X9XiXfXjXjXjXtXu.b >.3 @ K.8XT.o 3 7 3 @ 6 t . 6 6 ",
"$ 6 y 6 y @ e i j U.&XF.Y 6 e r d.l.8.e.u.~.#X:X>X0XpXkXvXbXbXsXN.@.9.3 + R OX'.l $ 6 7 # @ t 6 3 8 ",
"6 y e 9 u 6 P 6 j L..XG.K q.Y T l.l.8.e.u.~.#X:X>X0XpXkXvXbXvXyXN.#.x.: ` G.n.4X1X@ C C t 3 8 t 6 6 ",
"3 r i 6 6 R c.6 7 4.2XZ 6 < Z ( ,.V.l.u.u.~.#X:X>XqXpXkXxXvXvXyXs.3.c.t.w.P # ) 5XU +Xv.8 @ 6 q q @ ",
"3 @ e 9 6 B.:X( @ ) m.I % k t t L V.C.u.e.~.#X:X>XqXpXkXxXvXxXuXs.k.-.a 5.c.K.t.H.` wX;X8 @ + 3 @ 6 ",
"@ + 4 3 @ +XwXF.< ` B.-X/.$.3 4 A V.C.u.q.R.#X:X>XqXpXfXcXxXzXrXa.x.w.q :.-X<X^.Z.1X;X].7 @ @ @ @ @ ",
"@ @ 4 3 6 6.}.B.A c.A.>X;XP 4 3 d '.V.d.w.v.#X:X>XqXpXfXcXcXlX7Xa.R./ 6 t J.8X|.G.i.U.g.< 3 3 7 6 # ",
"6 % 3 3 3 o.g.,.2.5.A.H.( 6 9 @ Y '.V.s.w.v.#X=X>XqXpXfXzXzXfX6Xa.T.W @ 6 t Y :.2X-.2.#.@ # o < q 6 ",
"6 6 s 7 @ a <.#.2.=.A.D $.t i 8 q V.V.N.w.v.#X=X>XqXpXgXzXzXdX6Xa.T.f @ a 8.,.y.4X7 @.k I G.T.a 6 t ",
"y 7 :.^.J.Y k V Y {.XXd.c.@ 8 q 3 7.V.C.%.c. X$X>X0XiXgXlXlXyX[.s.].o @ 8 j.*X[.6X$.l a 6.;XOX7 8 i ",
"y 9 I OXoX#.P C k.@X8XS.C 8 # 6 6 L V.C.%.7.^.$X>X0XiXdXhXhXuXD.8.V.3 6 8 t H.4X].L.L B 5.oXI + + 6 ",
"6 6 6 b.oX4.Z =.L.^.oXd.w.7 6 6 o N V.C.%.,.^.$X:XwXiXdXgXgX7Xa.x.-.t 8 6 3 i.2X8.L.$.#.5.*.5 3 3 8 ",
"3 9 6 e >.5.@.3.5.*.3.*.p.l 6 8 6 < C.N.%.*.T.%X:XwXeXaXdXdX4X-.x.l t 6 6 I 4XE.>._ c.2.*.3 3 3 3 3 ",
"@ 3 8 q 6 V #.k.b.Z.(.y.q u.a 6 q t u.C.e.F R.@X$X>XeXpXaXyXD.&.x.t 8 0 q F.M.,X,Xn.h L j 3 3 4 3 @ ",
"$ $ 6 6 6 j @.D _ <X<XB.o P t.1 8 3 / D.u.S c.}.$X;X0XiXpXuXq.;.7.t 6 q M.^ B OXwXE.k z / R.#Xk.3 @ ",
"3 e C B.j.Z 7 N 9.&X8Xq.S 3 7 t.1 @ Y S.d.n 7.].%X=XwXeXiX4XS 8.A t q i.^ k 1.:.}.L.*.D 5.).).W.3 5 ",
"$ 6 9._.).I.@.l 5.E.z.#.5.6 3 6 ( R 0 t.B.S =.'.}.#X>X0XrXf.c 8.s U i.R @ K P.9.$.g.$.<.L.^.x.% @ @ ",
"e 6 C /.(.I.4.o.2.L.K Q.(.z a o @ / / / S.G F x.|.#X;X9X7XG b -.Y ^ P < , n.(._.j.E.#.<.2.*.P @ @ 8 ",
"@ e 6 3 Z 2.4.2.3.%XZ._._.( D $.3 @ Y w.S.e.S 8.T.}.&X&X[.= ;.u.y 3 6 ..d _ *X(.,.D B s , q 6 6 q 8 ",
"e y q 8 $ 6 k A V D 8.(.%X! 3.^.U 0 6 W ) A.n ;.R.|.|.|.e.c G ^ 8 8 j 5.b d Y.L.o.l g j 1 8 3 6 6 6 ",
"6 q 6 $ + 3 > A h l ..5.h.R %X,Xt.6 3 t 6 i.%.F s.'.V.s.c | 6 $ $ , >.E.I.s <.<.b V ..g./.`.<.N 3 6 ",
"3 6 @ 3 % J W.1.v n b +..._ <XwXF.8 0 0 6 P &.n F e.q.m c f @ $ d B ,.(.E./ H { S { +.P.Q.Q.1.: + t ",
"4 @ 3 h 1.Q.`.P.+.} F }  .( }.;XB.@.l 6 6 8 d B c c x = m 6 . I U.$.Z Y.5.Z a  . .{ +.g.g.@.3 @ @ 3 ",
"3 4 3 @ <.!.!.P.1.{ ..| g K L.E.K #.R.y.q 6 8 R ) -.%.Z 8 , + n.|.z.j +.{ 5.V B #.m h d , 4 3 + @ + ",
"6 6 6 6 6 6 g | } ..#.| N #.4.L.C >.^.oXR @ 3 p Q H.n.! 6 3 R K.+Xn.6 [ v N N 2 O 6 t q 6 6 @ @ 3 0 ",
"q t U t t t 8 6 + @ c - c D C 4.( v.oXoXn.8 > u p.&.t.t 6 6 Z z.l.:.Z.m D b X.' ' o.@ 6 7 6 @ 3 3 7 ",
"t t t i q 6 6 t q Y.+.] } [  .S J $.l.x.9.k > 0 1XN.m.8 6 q B @.@.g $.A g v { +.9.(.I.o t t 6 8 @ 6 ",
"6 t q 6 6 # 3 3 2.(.E.h...[ h B N l B <.#.b @ u 1XN.A.6 3 6 S S N D o.| L t c ..E.E.k.D @ 6 6 6 # @ ",
"@ 8 6 6 6 @ @ f =.x.l.;.S 7 6 4.- - v | ..| 6 6 1XB.A.7 6 6 a f <.1.1.1.l.Y . , t Y Y < 8 6 6 i 6 @ ",
"3 3 3 3 @ 3 3 @ 6 t $ t t 6 R 6.] } [ v q 1 < T i.D.A.Y q 6 0 @ #.5.T.XX;X X6 @ 3 @ q 6 , t 6 6 @ 3 ",
"@ 3 + + + 6 3 4 8 8 6 6 8 s U.E.Y.<.v 6 6 6 3 ~ w.G.B.m.4 6 8 6 @ d c.OX>X@X3.a # 6 6 3 6 q 6 6 @ @ ",
"@ @ @ # $ @ 3 q 6 4 3 3 q B 9.R.7.N 4 @ 3 6 T 1X&.G.N..XT 6 8 3 o 6 q Y t.t.J t 6 @ t 6 q t q $ 3 @ ",
"3 @ 6 3 4 + 6 6 3 @ 3 t P k z U 8 + 3 # % I 3XG.l.Z.B.B.H./ 6 6 # 6 6 0 6 . i q , 8 6 t 6 t t 8 3 @ ",
"@ + e 3 $ $ X 4 5 + 6 6 q 8 6 i 0 0 @ # B.+XG.y.B.C.N.B.G.tX2X6 6 > 6 > . 8 t 6 q 8 6 6 $ $ $ 6 @ + ",
"6 t 6 $ 6 6 + @ 4 4 @ 3 0 0 0 @ 3 4 @ = .XH.n m &.l.7.G m 5X6XM P 0 3 > t q t 6 t 8 3 3 q q q 8 U 6 ",
"6 i 6 6 3 3 3 @ 3 # 4 3 3 0 t 8 3 4 : ; - M - m o.;.-.M m r.O.O.M t . 6 6 6 q q q 6 8 6 , t @ $ q 6 ",
"q i q 8 3 4 t 6 @ @ 3 8 6 8 6 t 8 3 = & & * * ; ; - - X.X.O.6.0.X.6 8 t 6 6 6 6 6 8 t t t 8 q q 8 @ ",
"8 6 t t t 3 0 @ @ + 4 8 8 8 i t 6 @ < &       & & * * ; - X.O.6.f 6 6 8 3 6 6 @ 6 $ 6 , 6 6 6 6 3 $ ",
"6 6 8 t 6 3 3 3 @ 6 4 3 q t i 6 @ + 6 6 t 6 q 1 X o , < < O # @ 3 3 @ @ 3 0 6 6 i U i t 6 6 i 6 3 6 ",
"q 6 8 6 @ 6 6 $ $ 8 3 6 q 8 8 6 @ q i t 6 q q q t t 6 6 6 3 @ + @ 3 @ @ 6 6 6 q 6 6 6 6 6 8 q q 6 8 ",
"q t @ 6 9 6 6 q t q 4 4 q i t t q t q 8 6 6 4 . 0 q t 6 6 3 3 4 3 3 4 3 0 6 t i 6 6 6 7 q q q 6 6 q ",
"6 i t t t 6 6 6 t t @ $ t t 8 q i i i 6 # # $ 3 6 t i q 6 4 8 $ @ t 0 0 6 6 t U t 6 8 6 6 # 6 6 q 6 ",
"6 y 6 t 6 6 6 y i 8 4 3 q t i q 6 $ t $ 3 3 # $ 4 t q 6 @ 3 @ 6 q i q @ + 6 t 3 i 8 q t @ # @ @ 3 4 "
};
