/* XPM */
static char *_0cff53bbea249edbde17c397d459d20JDIIN4BMLwz59jX9[] = {
/* columns rows colors chars-per-pixel */
"50 50 222 2 ",
"   c #2C3D1F",
".  c #27361F",
"X  c #313C1F",
"o  c #2C3522",
"O  c #2C3C22",
"+  c #273820",
"@  c #313422",
"#  c #323C22",
"$  c #3A3D24",
"%  c #5D0B07",
"&  c #560707",
"*  c #631107",
"=  c #6E1A07",
"-  c #631208",
";  c #6D1907",
":  c #751E07",
">  c #721D09",
",  c #610E07",
"<  c #76210A",
"1  c #7B2409",
"2  c #7D290B",
"3  c #7C2807",
"4  c #7C340B",
"5  c #6F200B",
"6  c #33431F",
"7  c #2D481F",
"8  c #274521",
"9  c #2C4322",
"0  c #2C4A22",
"q  c #334422",
"w  c #394523",
"e  c #364923",
"r  c #324926",
"t  c #364925",
"y  c #354922",
"u  c #394A23",
"i  c #3A4D23",
"p  c #394A25",
"a  c #3A4D25",
"s  c #3D4E25",
"d  c #3A4C23",
"f  c #344529",
"g  c #3B4428",
"h  c #3C4C29",
"j  c #374D28",
"k  c #355124",
"l  c #3D5123",
"z  c #3E5029",
"x  c #2F5022",
"c  c #454B28",
"v  c #415323",
"b  c #44532A",
"n  c #49552B",
"m  c #495737",
"M  c #56582F",
"N  c #645E24",
"B  c #59633B",
"V  c #68743A",
"C  c #5B6945",
"Z  c #70794B",
"A  c #737E63",
"S  c #822C0B",
"D  c #812E06",
"F  c #86330B",
"G  c #8A340E",
"H  c #8E390D",
"J  c #833708",
"K  c #923D0E",
"L  c #873913",
"P  c #923B10",
"I  c #97460E",
"U  c #964211",
"Y  c #9B4511",
"T  c #8B4108",
"R  c #A04F0F",
"E  c #A4580C",
"W  c #A24D13",
"Q  c #A55213",
"!  c #A95613",
"~  c #AD5A13",
"^  c #A95D18",
"/  c #B15D14",
"(  c #AA620B",
")  c #AA640B",
"_  c #B56C0D",
"`  c #B97A05",
"'  c #B4750B",
"]  c #BD750F",
"[  c #BB7909",
"{  c #AC6517",
"}  c #B36313",
"|  c #B66A12",
" . c #BA6D11",
".. c #BC7312",
"X. c #B87419",
"o. c #AE7208",
"O. c #8C772F",
"+. c #B37629",
"@. c #A07524",
"#. c #C27C0E",
"$. c #7A8546",
"%. c #7A855D",
"&. c #7A8464",
"*. c #9E851F",
"=. c #BD860B",
"-. c #BF8110",
";. c #908B30",
":. c #BB8326",
">. c #A29D3B",
",. c #C5830B",
"<. c #CA8A0B",
"1. c #C88908",
"2. c #CD9306",
"3. c #CE930A",
"4. c #CD980A",
"5. c #D59C04",
"6. c #D39B0B",
"7. c #D19506",
"8. c #C38611",
"9. c #C48B15",
"0. c #CA9617",
"q. c #D29A15",
"w. c #D9A405",
"e. c #D6A20C",
"r. c #D9A50A",
"t. c #DCAB0A",
"y. c #D9A505",
"u. c #C8A41E",
"i. c #DBAC12",
"p. c #D7A619",
"a. c #DDB418",
"s. c #CCAD16",
"d. c #E3B80B",
"f. c #E2B817",
"g. c #CA9926",
"h. c #D09F3E",
"j. c #D6A929",
"k. c #DAB325",
"l. c #CCA034",
"z. c #D8AD36",
"x. c #DBBA3B",
"c. c #CEA722",
"v. c #E1BC2E",
"b. c #DDC41B",
"n. c #E8C30E",
"m. c #E9C413",
"M. c #EBC815",
"N. c #EFD11A",
"B. c #DFC63A",
"V. c #E7C929",
"C. c #EED225",
"Z. c #F4DD2A",
"A. c #F1D623",
"S. c #EBCC34",
"D. c #E7C938",
"F. c #EDD334",
"G. c #F1DA3A",
"H. c #F6E12C",
"J. c #F7E638",
"K. c #8B955A",
"L. c #8B9153",
"P. c #BA9848",
"I. c #A39C5F",
"U. c #A18C4D",
"Y. c #A6A559",
"T. c #B9AD57",
"R. c #B6A44D",
"E. c #8D9470",
"W. c #9EA269",
"Q. c #B8AC6D",
"!. c #B8B668",
"~. c #ABA87A",
"^. c #BABC76",
"/. c #ACA86D",
"(. c #C89344",
"). c #DBBC49",
"_. c #D4AA57",
"`. c #D8BB54",
"'. c #CBA554",
"]. c #CBAA69",
"[. c #C8BB75",
"{. c #CDB26F",
"}. c #D5C75C",
"|. c #E8DA58",
" X c #ECCF47",
".X c #F6E545",
"XX c #F9EB4B",
"oX c #F6EA56",
"OX c #EEE35B",
"+X c #C6C068",
"@X c #D4C463",
"#X c #D2C778",
"$X c #D6D273",
"%X c #D0C96E",
"&X c #E7CC68",
"*X c #E5C977",
"=X c #EDD679",
"-X c #ECD967",
";X c #F9EE64",
":X c #F6E869",
">X c #F6EE79",
",X c #F9F073",
"<X c #EEE875",
"1X c #AAA981",
"2X c #D6B992",
"3X c #D3C983",
"4X c #E9D997",
"5X c #E3C685",
"6X c #F5EA87",
"7X c #F9F38C",
"8X c #FAF393",
"9X c #FAF49C",
"0X c #F7EB98",
"qX c #F5EEA9",
"wX c #FAF5A3",
"eX c #FAF5AB",
"rX c #FCF8B7",
"tX c #F3E8BA",
"yX c #FCF9C6",
"uX c #FCF8D9",
"iX c #FDFBE7",
"pX c #FFFEF9",
/* pixels */
"h p h a r r O # a f 9 r f p t k r q # o # 9 q # f a z O 0 o r s q u y o q u t a f 9 O y 9 o O O 0 y ",
"z f h r 0 9 r # p q q r r a f a # t # $ $ p a p p u O O o q z q z q q 9 y q a d q O p y o O 9 9 # # ",
"b p r k j r 9 q p q @ O O O f O p q a q # O # q f u q q a p v q y q 9 0 9 0 y u u d q u i 0 q q # e ",
"a t r j z a 9 q t p # q # 9 t q a p t O o o r 9 p q d a u u q 0 q q O 9 9 y d s d q y O y y t u a O ",
"q h h a p f f O t q 0 # f q a u q q q O o # r o y q u v u u y 9 O O o 9 9 q d l q y q t u q y u d a ",
"q # # # r h p 9 q f a r t r O e q O # q # q p y t s y q v v q 0 o 9 9 0 y u u e o 9 q u q q 9 y q q ",
"# p p p p p q h p a r q a j q q o $ # o # a d q q v u y d s u d 9 8 9 9 # q l s y 0 $ w d q y y u q ",
"p p 0 r f a a f t r r f a a q q q f 9 9 r o q s q l v y u v # O 0 O x 9 o y q q . 9 w 9 O q d   q q ",
"# q a y a O p z y f r y q y p a O y d q f p u s y 9 v v y l . q q y y O o O O 9 9 # y w # O d y 9 y ",
"q a p j k f p f y f t 9 q q q z q y y y z y y q y d # s u y y u u 9 o @ q O o 9 0 o o q d 9 y s q q ",
"9 p z r q p q # O o # 9 q O f u o 9 y a O y q q y q O q d q o u q 9 o o # o o O y y O q y o q u u O ",
"9 O p t q t p O o o q # O q j d O O # l o 0 . d y O y y O 9 # q q $ # q # q # 9 y y O 9 y O o 9 O q ",
"O o 0 9 O q f q O O O y O 0 9 0 9 p s y 9 9 q q O f y q O q q d q # q u q q q 9 9 q 9 O 9 o O O o o ",
"O O 0 9 q s h t f m $.Y.@X`.).}.].[.!.Y.Q.I.I.Y.~.1X1X~.~.~.Q.[.#X@X{.+X+X!.L.B j t q O 9 9 9 w q # ",
"q $ 9 9 9 f h m A #XOXoXA.t.y.w.) Y 6.4.^ { ,.7.e.i.g.+.L G Q | | #...e.H.oXOX$Xm O q q O @ o q u q ",
"q q 9 O O # m &.4XoX;X;XG.d.5.y.q.:.*X=Xx.6.<.,.,.<.6.p.).{._.X.Q | #.M.XX,X;XoX$XZ q u O # # o q d ",
"a w # 0 r v %.%XqX,X6X>XoXV.i.r.r.D.qXx.#.} Q W Q ~ } ] ,.t.g.~ Q ..r.J.,X7X7X>X6X3Xn X # # $ # y l ",
"a f # O E.3XF.7XrX7X9X9X9X:XD.m.n.t.r.t.9.K S : : H Y H ' 2.e.j.r.D.G.;X7X8X8X7X9X8XG.T.# g # o o q ",
"q f q p W.V.XX7XrX9XeXeX7X.XM.d.t.#.1.2.r.j.+.L 2 { X.0.5.7.S.6XS.>X9X9X9X8X8X8XeX8XoXV.o f 8 9 9 y ",
"9 t C W.|.J.;X9XyXeXeX,XoX;X.Xm.t.<.] #.2.w. X*X2X4Xz.3.<.i.:XeXeX8XwXwXwX8XwXeXyXwX:XJ..XK.9 9 9 9 ",
"O 9 C T.D.S.&X4XiXuX0X&X{.].].g.=.' ( _ 8.j.`.tXpXuX5X_.g.l.].{.2X*X=X6X0X6X8XyXiX4X&XD.V.T.9 0 9 O ",
"# # q p 0.,.] ^ (.B.S._ ; % % & % % % , * * F '._.h.{ P F S 1 ; J f.M.A.Z.Z.H.F.(.{ | ,.6.;.y y 9 O ",
"9 p p q Y.p.,.| Y I q.,.U G 2 % - S 1 > ; ; Q U H | ~ Q Y U H 1 c.Z.Z.C.M.f.e.( U | ,.q.|.%.9 9 9 8 ",
"# q p q 9 9 0.#.! 2 R } ~ U P > - Q W U G Q G S D ] ! ~ ~ W P F f.i.q.<.#.E Y 2 Q #.0.}.9 o O o O O ",
"p q u o o 9 K.0...Y 2 W | ! Y G * ) #. .| Q U H 3 ,.} / / ! P K E Y W W H U S K  .0.-XK.y q u O O y ",
"O p q 9 O y a b 0.| H G } <.] W 1 4 5.7.,.| ~ Y < 1.../ / ! P > ; H Y H H K G } <.}.6 q q y q q u y ",
"a a u y # q p O B 8.~ G K _ 5.#.Y = 2.y.7...! U 1 =.,.| / Q F % < Y U K Q S ! -.x.W.6 u q y 9 q q q ",
"q u e # o 9 O O O c 8.! H F ` 5._ 2 o.y.5.#.Q Y H ' 7.../ W < * H Y U ~ K W #.k.q f q q y 0 0 y 9 q ",
"9 q O 9 o r 9 o O $ R.<. .U ; ` <.Y T 2.5.,.Q W ! ..t.#./ Y * < Y W ~ Q W #.f./.O p d y o O O o o d ",
"0 O 9 q q q q O 9 # r p e.4.K 3 ` _ S ` 1...W ~ #.6.d.<.} G * G W ~ } } 8.a.y 9 O q u y o 9 9 9 O 9 ",
"9 0 9 O y q u q q y a q Z b.9.G D [ U E ,.} Q <.t.m.M.6.} > > Y ~ / #.p.V.^.y 9 k t 9 y 9 0 9 o O o ",
"y q y y y q q l q 9 r q q 9 s.{ F J ( U t.#.X.C.A.Z.M.6.~ % F } / :.;.>.q l i 0 o r d u q q O o 9 y ",
"y d v u d d t y o O # p z 9 Z u.Q 1 J Y u.m.i.H.H.H.m.<.U * ] | +.V $.V l s i 0 y q O q e y   9 9 e ",
"s s d l u q y i y 9 # y q y a # *.Y > 2 { H.f.d.N.H.f.] > l.,.X.b b y s d s d q q u q O s s y y O q ",
"f d u q q # 9 9 9 O O q q O o g q @.G * 2 C.q.3.n.H.p.{ P.f.1.z.c r . q d d q q s v y y q y q q @ O ",
"O y y q y O o o o O o w u q y O $ $ @.F % 0.0.w.M.H.k.(.:Xw.q.;.c 9 # d q q X 6 u u d q y q q l q O ",
"9 9 9 9 O 9 9 o 9 q O u s q 9 9 9 y h N H 4 a.S.Z.H.V.-XS.5.;.h g $ 9 d d y q # 9 q d q 6 s y q O 9 ",
"o 9 o o o y 9 0 y y q q y y q q y 0 O f M H T.$XoXJ.XX:Xi.f.y y 9 y q u u u q # $ q y q q u q q O o ",
"O O O @ # O 9 u y 0 9 9 y q s q O 9 9 o 9 P.U.^.<XXX;X Xe.K.u 9 # q u y d y y u q O d q d s u # 9 O ",
"9 O y 9 0 o q y 9 O 9 d s d l d y o 9 $ @ # O.M m n |.a.e 9 q q # q q d q # l u q u q d q d s y 9 O ",
"O o p 9 # # . 0 8 o q y u y q l i i O # g a b b n n ;.U.# q # q q 9 q 9 O y s q u u q q # q # q O o ",
"q d y # # 9 o O 0 0 o 9 y y y O 9 8 O O q y d y q k 9 u u q s u s 6 9 9 s u u q s y 9 9 u u u y v q ",
"q z q q 9 9 9 O 9 # 0 9 9 y d y 9 0 O q # # u q X q 9 6 q # 6 d u d . y y q u u u q y q 6 s O # u q ",
"u l u y 9 0 i y O o 9 y q y q d y 9 O q q u d u # q $ 9 e q 7   6 q y s y q q q q y u s d y u u y O ",
"y q d d d 9 i O o o 0 y y y l d q O q O q   s s o O # y d # 0 o # q q y 9 6 q   q # q 6 q q q q 9 # ",
"q q y s y 9 9 9 o y 0 9 u d l q O o q q d q d v O y y q u q o O 9 9 O o 9 y q q l v l s q q l q 9 q ",
"u q y q O q q # # y 9 y u y y y O u l s 6 u u u u u q q q 9 O o O 9 O O y y q u q q 6 q q y u u q y ",
"u d O y t q q u d u 0 0 u l d d u s u y y y 0   y u d q q 9 9 0 9 9 0 9 y q s l q q q e u u u q q u ",
"q z s d d y q q d d O # d s y u l s l q # # # 9 q u s u q 0 y # o s i y q q s v d q y q y # q q u q ",
"y a q d q q q a l y 0 9 u d l u q # s # 9 9 @ # 9 d u y   9 O q d l u O o y d 9 l y u d . @ O O 9 0 "
};
