/* XPM */
static char *_ed9fc1a78754731acb385b5feee743eRo4Fc99wctqfdm5l[] = {
/* columns rows colors chars-per-pixel */
"50 50 226 2 ",
"   c #063302",
".  c #073C02",
"X  c #0A3906",
"o  c #12360D",
"O  c #27381F",
"+  c #2C3C1F",
"@  c #27361F",
"#  c #30351F",
"$  c #313D1F",
"%  c #2B2E23",
"&  c #273520",
"*  c #2B3521",
"=  c #273C21",
"-  c #2C3C21",
";  c #323521",
":  c #323D22",
">  c #3B3C23",
",  c #074A02",
"<  c #094D03",
"1  c #0A4705",
"2  c #085401",
"3  c #0A5C02",
"4  c #075601",
"5  c #13580D",
"6  c #154413",
"7  c #2D421F",
"8  c #32431F",
"9  c #20511D",
"0  c #0B6403",
"q  c #0A6B02",
"w  c #0F6309",
"e  c #14680D",
"r  c #0C7303",
"t  c #0C7C02",
"y  c #137B0B",
"u  c #14770C",
"i  c #196513",
"p  c #1C7B15",
"a  c #216B1C",
"s  c #247C1D",
"d  c #24731D",
"f  c #274321",
"g  c #2C4321",
"h  c #274A21",
"j  c #2C4A22",
"k  c #334421",
"l  c #394623",
"z  c #354923",
"x  c #3A4C22",
"c  c #3B4C28",
"v  c #334A29",
"b  c #2A5221",
"n  c #3D5122",
"m  c #3D522B",
"M  c #375726",
"N  c #2A7524",
"B  c #337E2B",
"V  c #326F2B",
"C  c #414828",
"Z  c #425323",
"A  c #42532B",
"S  c #455926",
"D  c #435932",
"F  c #4B6F3A",
"G  c #507547",
"H  c #0C8402",
"J  c #0D8B02",
"K  c #148A0A",
"L  c #168A0B",
"P  c #0E9502",
"I  c #119405",
"U  c #159B09",
"Y  c #1C8713",
"T  c #1D9C12",
"R  c #1D9413",
"E  c #23841B",
"W  c #248B1B",
"Q  c #26931C",
"!  c #25981A",
"~  c #0EA101",
"^  c #0FAB02",
"/  c #16A40A",
"(  c #18A90A",
")  c #14B806",
"_  c #1EA812",
"`  c #1EB311",
"'  c #0FB001",
"]  c #25A719",
"[  c #2ABC1D",
"{  c #26B619",
"}  c #2B8624",
"|  c #35882C",
" . c #2D9823",
".. c #35992B",
"X. c #3B9534",
"o. c #2DA722",
"O. c #31AB26",
"+. c #35A32C",
"@. c #35AA2A",
"#. c #2DB421",
"$. c #38B52D",
"%. c #35B829",
"&. c #3CA833",
"*. c #3EBC33",
"=. c #3CB331",
"-. c #43993C",
";. c #43853B",
":. c #43AA3A",
">. c #45B93B",
",. c #18C509",
"<. c #1FCD10",
"1. c #29C51C",
"2. c #28D818",
"3. c #2BE21C",
"4. c #2DC022",
"5. c #39C42C",
"6. c #3ACC2D",
"7. c #34C826",
"8. c #36D728",
"9. c #3EC931",
"0. c #3DD630",
"q. c #36E526",
"w. c #3FEB30",
"e. c #3CF22C",
"r. c #45C43A",
"t. c #45C839",
"y. c #4AD53D",
"u. c #4ADB3D",
"i. c #44D737",
"p. c #4AE63B",
"a. c #45F235",
"s. c #489542",
"d. c #54904B",
"f. c #679A5E",
"g. c #658559",
"h. c #4BA943",
"j. c #55A94D",
"k. c #4CB843",
"l. c #55B54A",
"z. c #59AA52",
"x. c #5CB652",
"c. c #63BB59",
"v. c #6BB864",
"b. c #73B66B",
"n. c #70B06C",
"m. c #6F9C63",
"M. c #4CC342",
"N. c #4ECC43",
"B. c #55C64B",
"V. c #4DD441",
"C. c #4EDB41",
"Z. c #51DA44",
"A. c #55D34A",
"S. c #59D84D",
"D. c #54D748",
"F. c #5DC852",
"G. c #5CD451",
"H. c #5DDD52",
"J. c #63C75A",
"K. c #61DC55",
"L. c #67DB5C",
"P. c #4EE442",
"I. c #57E74A",
"U. c #5AF34C",
"Y. c #56F748",
"T. c #5EE751",
"R. c #4FF041",
"E. c #62EB55",
"W. c #64E559",
"Q. c #68EA5B",
"!. c #66F559",
"~. c #6CC664",
"^. c #74C56D",
"/. c #6CD862",
"(. c #74D86A",
"). c #7AC673",
"_. c #7CD473",
"`. c #6DE761",
"'. c #74EC6A",
"]. c #74E769",
"[. c #6DF461",
"{. c #75F36A",
"}. c #74F468",
"|. c #7CEA73",
" X c #7EF373",
".X c #7EF972",
"XX c #82BA7B",
"oX c #81D87A",
"OX c #80CE7A",
"+X c #84E87B",
"@X c #84F47A",
"#X c #87F77C",
"$X c #8CBA88",
"%X c #A7BF9F",
"&X c #8BD785",
"*X c #94CE8F",
"=X c #8CED83",
"-X c #93E68B",
";X c #8BF482",
":X c #94F58B",
">X c #9CE495",
",X c #99EE92",
"<X c #9BF292",
"1X c #9CF894",
"2X c #A4EA9E",
"3X c #A4F49D",
"4X c #A4F89D",
"5X c #A8DBA4",
"6X c #B4DBB1",
"7X c #ACECA5",
"8X c #B3ECAE",
"9X c #AAF5A3",
"0X c #ACF4A5",
"qX c #B2F4AC",
"wX c #B4F8AE",
"eX c #BAECB6",
"rX c #BAF3B5",
"tX c #B9F9B4",
"yX c #BDF4B9",
"uX c #BAF6B4",
"iX c #C2EABE",
"pX c #C2F5BD",
"aX c #C7EDC4",
"sX c #C7F7C3",
"dX c #D6F2D4",
"fX c #E2F5E1",
/* pixels */
"l c c c k c & * c k g j k c c c j k ; - : - c - c c n = b - j l k k z = : c k c k f - k = * - - g k ",
"c k c j j j g c c : - c j c k c - g : : ; c c k c c : - - k c : c k k j k - z x k - k c - g - j - - ",
"A c j M c c = c c g ; g - ; c - c - c c : - : l k c k k c l A k z k g j g j z c c x x k M g k - : c ",
"A l g c c c - * c c > : ; g j k c c c - % % g g c k x n x c k j k k * g - j c n x k k - k k c x c g ",
"g c c c c c c = k k j : z k c x : g k * ; c g : k - l Z 8 l x g = - - - g k x x $ k k x x k k x c c ",
": k - ; g c c = k l c k c k - c - - * k - ; c k z x z x Z Z k h - f j j k x x x - = : x k : g k k l ",
": c c c c c k c c c g g c z k - % ; ; * k c c g l Z x k x x k x f g f g - : Z Z k h > l x x k z k - ",
"c : j g k c c k g m %X6X2X-X0XqXyXpXrXrXdXfXfXiXb.b.6XdXsXqX,X,X&Xv.z.j.v.XXg.m O h : c - z x 8 k k ",
"; c c g c = k c v D *X+X/.F.>.L.'.=X,XaXaX7X/.$.J H r } v.].'.W.B.! ! +.! y 0 V g C k : : : x k f k ",
": c k c c k c c g.*X2X=XL.=.! R r.].|.+X`.S.r.$.T H t q 0 w } :.>.=.=.o.L r q ,   = * l m g z x k k ",
"k c c c k c D s eXeX-X/.G.O.! L y M.L.W.H.N.*.o.T J t t 0 3 2 3 Y _.>.] L t 0 1     o z z O - x x - ",
"v - v c - D W s.iXeX].G.>.O.Y 0 p $.r.S.t.r.%.] U J J H q 3 0 K t &X>Xk.K q 2 . . . , 5 z & * g - : ",
"- * v v s.W q $XaX7XK.N.@.e , < &.t.S.t.r.*.#.] U I I t r Q >.T q B rXqX&XN 1 1 .   . < 1 v - - - & ",
": * G x.&. .Q aXaXeX&X..q 2 , i H.Q.E.D.5.%.{ _ / U J K r.D.t.#.L 1 *XqX3X].>.i       5 1 E d c x ; ",
"k D +.B.>...h.dXeX^.Q r 3 2 , -. X X X{.S.6.[ _ / U _ V.I.C.5._ H 1 f.qX3XW.A.k.s X   s E Y Y u n c ",
"F ../.J.>. .b.&X&.R t 0 3 < 5 *X9X9X3X3X1X|.u.6.{ r.'.!.I.i.{ I r , 9 2X<X].K.M.o.L < i  ...+.+.p m ",
"-._._.(.v.v.*XF.$.] K r 3 3 e j.).&X&X&XoX/.y.7.1.6.u.p.i.7.{ T W } +.(.=X].G.>.&...s.b.~.x.k.k.k.} ",
"_.-.a a V ;.*XeX8X8X7X>X(.M.O.B.V.t.7.{ ( ~ I I / D.P.p.0.1.` T Y p } ..s i e e i a B d.l.&.Q p E  .",
"f.J.3 2 2 2 V aXyXrXqX9X;X`.V.+X{.I.u.7.{ ^ P t } 9X}.p.0.1.) P r , < r 3 2 2 2 2 4 , y  .Q r q u ;.",
"= d.l.E 2 2 2 $XrXqXqX9X:X[.Z.L.;X!.P.0.1.) ~ J h.0X@XR.8.1.) P r < r t 3 2 2 2 2 2 1 L ! Y y y B v ",
": - ^.F.u 2 2 a aXqX<X@X].T.I.y.<X XU.p.8.<.' P ^.wX#XU.8.,.~ P q 3 T J 3 2 2 2 2    .o.! Y Q | v g ",
"- : A d.>.E r 4 n.pX<X{.E.Z.P.i.+X:X[.p.q.2.,.' >XyX#XU.2.) ~ H q p [ P 0 2 2 2   a =.O.! +.j.z f - ",
"= A k l ~.M.R 3 i 5X3X'.E.Z.y.u.G.4X@XY.a.q.2.,.yXsX[.a.2.,.^ H q O.4./ r 2 2 . 6 M.*.O.&.c.f g j g ",
"k - c - = j.@.y 2 | 7X+XZ.t.5.P.6.<X4X;X!.a.3.8.sXsX.Xa.2.,.^ H y P.6._ H 3 ,   h.A.>.M.M O = & - f ",
"k l x = * j x.@.! w ).<X`.9.{ 6.6.~.9X4X@XU.e.E.sXtX}.R.q.,.~ J :.!.i.#.I 3 1 N W.A.N.oXc l x - - l ",
"- c z - ; k z :.>.! | =X[.y.[ [ { Q 9X9X1X#XU.:XsX:XU.Y.2.,.^ J |.u.Z.I.! 3 3 k.S.A.c.k k x 8 k x z ",
"c n c c - k c - &.$.>.(.{.E.7.` P t OX0X9X1X.XtXpX#XR.q.,.) ^ =.;X7.` { r 0 ..W.K./.k k k z 7 k k : ",
"k c k k * g g - : &.'.K.'.!.u.` P t s.wX0X4X:XyXtX:XY.2.,.^ ^ (.|.8.` J r e `.`.J.c 7 8 n j b 8 f k ",
"- k - j * j = - - ; k.H.S.[.I.6.J 0 w 7XqX9X0XyX1X:X!.q.,.' T 9X!.0./ J r x.+Xc.- z n 8 O * + % O n ",
"j - j k l : : g k : v h.V.W.T.i.{ 0 3 b.wXqXtXyX1X!.U.q.<.' B.9XU.1./ P  .F v 7 O : x z - : g f - : ",
"g j = = x k x k k z c c l.S.Z.C.7.T 3 B rXwXqXtX1X!.w.w.2.) -X4Xu.[ ` U c n k 7 M k 7 7 k h O - = & ",
"j k k g k k k x : g g z c v.Z.9.6.[ R 3 5XwX@XwX4X!.Y.!.8.7.yX'.0.4.{ :.z x M 7 O 8 x x $ z g - f k ",
"l x Z x c x k z * = - c c 7 n.r.[ 4.{ R d.wXE.9X;X!.{.}.0.-X<XP.i.5.$.m.S S M 7 8 8 7 k x 8 # 7 = x ",
"c c x Z x k k z j & : x : z m M #.] U [ W >XU.:X!. X X`.t.qX XI.y.9.M n c n 8 8 x 8 8 7 x x k z : 8 ",
"z x l k c - g f - = : A k + = > :.{ U ( 1./.U.!.#X@X{.+.j.1X[.T.V.k.- z Z n + k n n 8 k 7 8 z 8 ; - ",
"- z k k k - = % - = * l x 8 g = : ../ U { t.Q.`.;X XG.w ).:XE.T.l.v - x 8 k + 8 8 x n 8 z k k n 8 - ",
"g g g g * j g * g k - x Z x + v 7 g +._ _ %.Q.T.#X'.Y d ,X{.E.L.C ; k n x g k $ = - x k 8 8 x k = g ",
"* j * * % k f j k z : g z 8 : A z j - ..] { S.I. X$.q z.:X[.c.c 7 g z k k x 8 $ > 8 k k l x 8 8 - - ",
"g - = ; : - j c k g g z n 8 x 8 + = j k o.o.*.W.K.J q oX(.x.m f ; k x k x k x 8 8 + n 8 8 Z x # g - ",
"f * c j g - k j f = f z n x n Z z + g ; > | *.K.] H X.D z - + 8 # k k z 8 $ n n + : 8 x z 8 n k g k ",
"* * z : : > = g f ; * k c 8 z n z x = ; k A M.r.U t S n ; z + k 8 7 g 8 + n 8 x x z k k $ : + k k + ",
"z n k - > k & & g g - g k 7 k 7 f 7 g g x k x M y s 7 x z k n n x z 7 7 x 8 n 8 8 x 8 = x 8 z x 8 : ",
"k c k k = h g & f - j f 7 8 M 8 7 h = 8 ; : z l M M g k k k z 8 x 8 + k k k k x n 8 x x 8 Z + : x 8 ",
"x x c z j j x z - & j k z x k x z j - : k x 8 k k l ; $ l : 8 + 8 8 z x 8 z x 8 8 z 8 n 8 x 8 l k ; ",
"x k x c c g z - - & h k k k n x 8 + : k z 8 n n * : : z n $ h ; k k x 8 7 8 : 8 : 8 x 8 8 8 k z f k ",
"k k x Z g g h g * g b k x n Z k : O z k x 8 8 n # g 8 8 8 : * - g g - - h z - k Z Z n x 8 x Z 8 - : ",
"c k z k - k k * k c g k 8 z z 8 + l S 8 8 8 8 n n x k k g k 7 = f 7 - - 8 8 8 x + 8 8 k l x x x k k ",
"z x + g z k k x x z 8 j n Z x x x n Z k z 8 7 7 7 x n k k + h g f g h f z k x Z k k 8 8 x x 8 z x x ",
"k n x c n k k k x x + - x x l 8 Z x Z $ # : : k k k n n k h z : - x 8 k 8 - Z Z x k x 7 k $ k k x : ",
"k x k x 8 k - c Z z h g x x x x x 8 x 8 k f * k 7 x x 8 = f - k c n x @ - k x k n 8 k Z & ; - - f j "
};
