/* XPM */
static char *land1708715386[] = {
/* columns rows colors chars-per-pixel */
"50 50 34 1 ",
"  c #292F1F",
". c #24371E",
"X c #2A351F",
"o c #27381F",
"O c #2C3C1F",
"+ c #30351F",
"@ c #313D1F",
"# c #2B2E23",
"$ c #322E22",
"% c #273520",
"& c #2B3521",
"* c #273C21",
"= c #2C3C21",
"- c #323521",
"; c #323D22",
": c #3B3C22",
"> c #2D421F",
", c #32431F",
"< c #274321",
"1 c #2C4321",
"2 c #274A21",
"3 c #2C4A22",
"4 c #334421",
"5 c #394623",
"6 c #354922",
"7 c #3A4C22",
"8 c #3B4C28",
"9 c #2A5221",
"0 c #345324",
"q c #3D5122",
"w c #404D21",
"e c #425323",
"r c #445822",
"t c #435429",
/* pixels */
"588848%&8413488834-=;=8=88q*9=35446*;8484<=4*&==14",
"848333188;=83848=1;;-88488;==48;84434=674=48=1=3==",
"t83088*881-1=-8=8=88;=;5484485t4641313688774014=;8",
"t51888=&88:;-134888=##11847q784344&1=38q744=448781",
"1888888*443;6487;14&-81;4=5e,571*===1477@447744788",
";4=-188*458484=8==&4=-846767ee42=<334777=*;74;1445",
";88888488811864=#--&48815e747747<1<1=;ee42:577464=",
"8;3148841666884=48311&4848e47r@1610<=444o2;4=47,44",
"-8818*481881454846714667617r47=4=64<%==4*:4;;;74<4",
";8488484433=46484444q774,74q744771*$4*&*3*&5816744",
"4888488&==;44&46%148144444*474o74O%&;=&=64=46o=77=",
"1=38=48==&4;&188==;7%2o76=74*11;@X:;;;-146*16%&1=;",
"=&31*848==11&313188,4144=771@;,7,5475453141*1====%",
";&31&848=11=&331=5424786477,X1O5,744,77,364=*=<87-",
"4;==1884;&888=14q61O434>O466%==@3>;147,7O*74=#&175",
"811*&8=884=8=888641%*<<2>4@41*474>+@O,Oq=;77=:-%47",
"8:;31q844=474=66O=&&<60=&O44>1641=X*4,46,q,@;:::77",
"q8-;4484444Oe6&4444-=64=:&4,O;>6;14463@,64,;;;;&X,",
"64;4844466;=;5;6@74O1q5o*=47,746,4q64>44=4><%%<11,",
"*48844686==4=4774746>47,=O=4er,>4,,,,oO467*4=11141",
";=381411486414145754,>,7447,qe,qr,,q443>O>1q,>331*",
"=;8444&1;q8;=<=66,O7,464,7,X,,7,,e,7,,>>264q6o36<=",
"*8458414447O==11>=2=436@q76=@=,,,e7qqe46O774>*<131",
"4=8=*3==774>*<1*<<2<>923,,>46,5r,q,7,,r,7,,@>.*%=<",
"457o&3<&76X====&*>04,0>>>147,6@,,0,O17,qr,66,57==5",
"=84=-4645754&==;<<,47611OO,44,@,>14O44,7qe,,,7,476",
"8q86=48=o541=16414>4,,O>4o44+O=O76,7,>21,,44,6>44;",
"4844&11=;54==36464>6,41914O@1>>=@,7rO>><O4>,q39,<4",
"=4=3&3*%=-;%=,4,7707,46,,4O,,,;;,,7,0,22=6q,.&O#oq",
"3=345;;1=;144777,4,,,6,6>,61,7OOer,,>7>>o;76=;1<=;",
"13**7474445774,64q4,7,0>4q>1,,%&,qqq,q,>04>>42o=*%",
"34414447@1144<7,7w6,O>>>0,>q,15@4,,,,70>o,77@61=<4",
"57e78746X*=57>q16q@4,7>94,>,77>>o66,re0>,,>47,+>*7",
"887e74463%;7;46O4qq,,4>34q>3,,,,*5,q,q,,7,,>7746;,",
"67548=1<=*;54Oo:>=@7eOO2q,,115,::>O4eqO4qq,4>,6,-=",
"=6444=*#=*&57,1*;+;4r7OO>67O7,>;:==7,,O,,7q,644q,=",
"1111&31%14=7e7O1>14O7746,4,O6>,4:-,q7>4@*=74,,74*1",
"&3&&#4<346;16,;643=;,,>>,7>>>474>16,,7,@:,4457,,==",
"1=*-;=384116q,7,O*2=>6,>>7,1236<+47,7,7,,Oq,,e7+1=",
"<&831=43<*<6q7qe6O1--=,+;47,,OO,+446,@qqO;,76,q414",
"&&6;;:*1<-&48,6q67o-477,:4q7+4O4,>1,Oq,77644@;O44O",
"6q4=:4%%11=14>4><>117,76,,>764qq76>>7,q,,7,*7,67,;",
"4844*21%<=3<>,0,>2*,+;65,,1,,46,7,O44447q,77,eO;7,",
"77863376=%34674763=;47,,@;-@5;,O,,67,67,,6,q,7,54-",
"7478816==%2444q7,O;46,qq&;;6q@2-447,>,;,;,7,,,46<4",
"447w1121&1947qe4;o647,,q+1,,,;&=11==26=4eeq7,7e,=;",
"8464=44&4814,66,O5r,,,,qq74414>*<>==,,,7O,,4577744",
"67O1644776,3qe777qe46,>>>7q44O21<12<647e44,,77,677",
"4q78q44477O=775,e7e@+;;444qq426;=7,4,=ee747>4@447;",
"4747,4=8e62177777,7,4<&4>77,*<=48q7X=474q,4e%-==<3"
};
