/* XPM */
static char *New_Project__10__copy_31709042607[] = {
/* columns rows colors chars-per-pixel */
"50 50 175 2 ",
"   c #030303",
".  c #0A0A0A",
"X  c #0F140B",
"o  c #11130E",
"O  c #151E0F",
"+  c #080D11",
"@  c #08131B",
"#  c #121212",
"$  c #1A1B14",
"%  c #1C1C1C",
"&  c #101519",
"*  c #241A0E",
"=  c #1B2313",
"-  c #1E2119",
";  c #1F2819",
":  c #1C2E16",
">  c #322106",
",  c #212517",
"<  c #232C16",
"1  c #252E19",
"2  c #272619",
"3  c #342615",
"4  c #273417",
"5  c #25351C",
"6  c #2B351E",
"7  c #24381D",
"8  c #2E3C1F",
"9  c #323D1E",
"0  c #30351E",
"q  c #0F1E2A",
"w  c #141E26",
"e  c #051D30",
"r  c #0C232D",
"t  c #11262C",
"y  c #13292C",
"u  c #1F3526",
"i  c #1C322B",
"p  c #062136",
"a  c #0E2935",
"s  c #06243C",
"d  c #0D273B",
"f  c #122636",
"g  c #152B34",
"h  c #1D3430",
"j  c #2B2B2B",
"k  c gray15",
"l  c #233426",
"z  c #2B3522",
"x  c #263D21",
"c  c #2C3C22",
"v  c #253929",
"b  c #323522",
"n  c #323D22",
"m  c #3A3C23",
"M  c #393E2C",
"N  c #222E30",
"B  c #21393D",
"V  c #343134",
"C  c #4A320A",
"Z  c #4C3C0E",
"A  c #553A0A",
"S  c #492E1A",
"D  c #423210",
"F  c #403E17",
"G  c #43321C",
"H  c #462E06",
"J  c #613C00",
"K  c #67381B",
"L  c #2C401F",
"P  c #33431F",
"I  c #3B451F",
"U  c #274621",
"Y  c #2C4322",
"T  c #2D4A22",
"R  c #334422",
"E  c #394523",
"W  c #354923",
"Q  c #3A4C23",
"!  c #3F4728",
"~  c #3C4C28",
"^  c #355126",
"/  c #3D5123",
"(  c #3E5029",
")  c #4E400F",
"_  c #57410E",
"`  c #45481A",
"'  c #6D420E",
"]  c #6B4A1B",
"[  c #754816",
"{  c #424A2A",
"}  c #415423",
"|  c #46542B",
" . c #5E5C28",
".. c #474F30",
"X. c #52473E",
"o. c #4D5631",
"O. c #545E36",
"+. c #586238",
"@. c #6F682E",
"#. c #606B3D",
"$. c #72773E",
"%. c #072A44",
"&. c #082E4C",
"*. c #0A2A42",
"=. c #09314E",
"-. c #103048",
";. c #093353",
":. c #093658",
">. c #0A395D",
",. c #363F46",
"<. c #2D5156",
"1. c #2A4E55",
"2. c #124973",
"3. c #54504D",
"4. c #57595A",
"5. c #475159",
"6. c #6E7C47",
"7. c #677341",
"8. c #6E6156",
"9. c #4E6679",
"0. c #984B1C",
"q. c #864F2B",
"w. c #895324",
"e. c #855B3E",
"r. c #9D5D3E",
"t. c #A25728",
"y. c #95613E",
"u. c #807834",
"i. c #9D6A29",
"p. c #B66E3F",
"a. c #985941",
"s. c #876C56",
"d. c #A66344",
"f. c #B86D4F",
"g. c #B16853",
"h. c #C5745D",
"j. c #CB7764",
"k. c #728049",
"l. c #A38269",
"z. c #AB8466",
"x. c #CB895A",
"c. c #DC8170",
"v. c #D6866E",
"b. c #E48676",
"n. c #E68B78",
"m. c #E9967B",
"M. c #D8A47C",
"N. c #ECA07F",
"B. c #3A6484",
"V. c #2169A0",
"C. c #3C79A9",
"Z. c #708596",
"A. c #6A8EAB",
"S. c #76A6CC",
"D. c #999FA5",
"F. c gray68",
"G. c #EDA581",
"H. c #F2B586",
"J. c #F3B98B",
"K. c #EEBAB1",
"L. c #F6C194",
"P. c #F9CA9D",
"I. c #E2C8BD",
"U. c #FFDAB0",
"Y. c #F1C4B4",
"T. c #82ADCE",
"R. c #9AB9D2",
"E. c #B0C9DC",
"W. c #BCD0E1",
"Q. c #D7D7D7",
"!. c #F7E3D3",
"~. c gray89",
"^. c #FDFDFD",
"/. c #F8EDEB",
"(. c #F3D3CE",
/* pixels */
"~ ~ ~ ~ R T v V ~ R T T R ~ W ^ Y y l r p v l e i ~ W e a l i i n ~ Q c R W W Q W Y c Y Y z v c U W ",
"~ R ~ T ^ Y ^ R ~ R M ^ W W E ~ l s g e >.a i p e i a e ;.e s e v R R Y Y R ~ Q R c ~ Q c x Y R c R ",
"| W W ^ ~ R v E ~ R n v v n E v i ;.*.s >.&.s &.%.s &.s ;.%.;.&.h Y Y U c T Y Q Q Q E W W T Y n n ~ ",
"~ ~ W ^ ( ~ Y R E ~ m Y n Y W v s ;.%.&.:.:.:.:.:.:.;.:.:.;.;.;.p v c Y Y W ~ Q Q W E c W R ~ Q ~ n ",
"Y ~ ~ ^ ^ ~ R v W R T M E E v v e &.*.p &.&.&.&.=.&.&.p &.&.;.s e u t Y Y R Q / P Y E Q Q R W Q Q Q ",
"M n n c R ( ~ R M R ~ R W T q r e %.s e &.&.%.&.&.p %.e &.&.%.s e r e T R Q Q Q c Y P E E n Y T R R ",
"c ~ ~ ~ ~ E R ~ ^ ~ R Y ^ ~ e e *.>.>.&.&.s %.s &.p e e &.%.s >.*.e e Y n R / Q T T m E Q W R I W n ",
"E ! T R R ~ ~ R W R W W ~ W e %.:.:.;.>.&.&.%.p =.=.s &.&.&.;.;.:.s e Y 7 E E E 7 Y E Y c E Q L P E ",
"n M ^ R ~ c ~ ~ R R T W R R s ;.:.:.;.=.=.&.:.>.:.=.;.%.&.&.;.=.:.;.e x z c c Y Y n R E n x Q E Y W ",
"R ~ ~ W ^ R E R Y ~ ~ Y Y E e s =.=.p e e p &.:.:.:.;.e e e s =.=.p e b R c z Y U z 8 E Q Y W Q R E ",
"Y ~ ~ R n ~ R R c c c Y R z a e p p e 3.3.e p d %.%.e e 3.,.e s e e t z c v n c R R c E Q 8 Y Q Q c ",
"Y c ~ W Y E ~ c c v R n c R v e e e 8.H.H.l.8.e e e 8.l.H.M.8.e e e m R n n n c W W x Y R c z W 8 Y ",
"c v W Y v E R E c v c Y c T l e e e l.H.s.z.M.l.l.l.M.s.z.H.g.s e e n W E P E Y Y W L x Y c x c c z ",
"n c T Y R ~ E W R R Y R c Y J D e l.H.X.X.X.s.H.H.J.s.X.X.s.J.5.e D J E Q Q Q P T R R Y Y c Y m R n ",
"R m Y c Y E ~ W R v R W E Y J D V j.G.Q.Q.S e.H.H.H.e.S Q.I.N.g.V D J x P Q W W Y 8 E E z b z R Q E ",
"n R Y v c n E ~ E E R ! R E ` J ' h.b.~.~.K y.J.L.J.y.K ~.I.n.d.' J c 8 8 L P E c Y R I 0 n n z E W ",
"~ R n T W } ~ R R c R E E Y ` A A f.b.(.^.t.x.P.U.P.x.0./.K.b.w.J A 6 8 W I R I L Q I P n R m n W / ",
"/ E M b W x E R W W R 8 / I 0 9 J d.c.b.!.x.J.U.U.U.L.f.Y.b.c.w.A ` P E Q U P P R W W x n n n b 6 P ",
"E E R W ~ E E Q W ~ R c 8 E R I Z ' r.g.m.N.J.P.U.P.J.m.v.g.r.' ) P Q W R L L W c W Y 7 z c U Y Y Q ",
"U W R ~ R R Q ~ E Y n L Y R R |  .J q.r.b.m.H.J.L.J.H.b.h.r.w.A  .( I P L c Y E W Q Y R x Y Y Y T U ",
"c Y R ~ R R Y T R Q E R Y P R | $.@.] [ g.n.N.H.H.H.N.b.r.[ ] u.$.| Q Q L W L L L L Y ^ I L Y T Y 8 ",
"n n R R R Y v Y R Q Q R c c ~ O.{ { A J J J J J J J J J J J A { { O.P W Q P P L P W I ^ W U T W Y c ",
"Y W ~ R ~ R Y Y R E Q 6 c Y o.{ { o.n . H C C C C C C C > # n ..{ { O.I / / L ^ L Q W P L x U R Y U ",
"n c ~ c Y Y Y Y E Q Q Y x x { { { 7.7.. $ % % w % % % % # 1 7.+.{ ~ ( Q P I / I Q W I Y U x x z Y x ",
"~ E W z z Y Y z E W 8 c c c { ! M 7.6.m % % % % % % % % 2 ..6.O.{ { { c c Q Q Q } I W W R R W x c E ",
"c W E Y c W W W R Q W R c c m , 2 n O.6.% k % % % % % % M 6.O.b 6 , { R E P P / Q ^ P P P Q P W Q W ",
"~ / ~ W c R W c 8 Q R T c Y z o , $ B <.% % % % % % % k N 1.B $ % o / I 8 L T L P P P Q I T Y W R R ",
"E W E c z Y Y c c R R z c T # o % f :.>.-.g % % % % % -.=.>.:.w % o = Q x L T L L R P W I T P P Y R ",
"Y R Y Y z R Y x c b n x c R . . . F.^.R.>.-.% % % % % >.B.W.^.4.. .   Q T P T L c W Q W c c x z z Q ",
"T x Y Y E R R c Y n Y E R Q   . . D.E.R.S.>.-.% % % -.>.T.R.E.4.o . . P P ^ T L x P Q P 6 Y Y c x L ",
"Y T Y Y E Y E R R R Q R W E o o % Z.R.S.V.;.f k % % f >.C.T.R.5.- + O / ^ I ^ L W E L R Y T L z x z ",
"R R E Y R R R Q R Y Y R E Y 1 . # 9.A.V.>.-.# % % % & >.2.C.A.,.X . P P P / T P 7 T / Q P R Y c U W ",
"~ Q } Q Q Q W W 6 x c Q Q L P = . @ &.:.q w $ w % % % q d >.&.+ . = I Q / / ^ L T P L P I P 8 L Y E ",
"~ Q / / Q E R Q R Y n W P R Q 6 ;   @ q # # % % % % % # & q @ . $ 6 P / I / Q P P W P L / Q W W 8 P ",
"W Q Q R E c Y U Y x n E P c 7 n 6 o . # # $ % % % % % % o + . * 0 8 7 R Q Q L P / / ^ P L W R R z n ",
"c W P W R v x z z x z E Q E R x 9 o     . . . . . . . o # o   , m x R Q P E 8 P I P Q P W P Y / P x ",
"Y T R Y c Y U z Y Y c Q / E Y P :     .   . .   . . # . # # # . 1 m P ^ I P P c L Y Q W P Q P W 8 Y ",
"v Y z b z R U T W E R R W P L L O     . . . . # # # % % # # . . = 9 P ^ ^ I I L n R P L E Q R P n x ",
"x c x n n c Y ~ R T U T I E Q 4       . . . . # # # # % % # # . . 1 E P I W P I R 6 / P I Q W 9 Y c ",
"Y c W Y T z R R Y c Y Q / Q / 4     . . .     . # # % % j % # .   5 E Q P P ^ Q P Q W I W Q Q W Y n ",
"c z Q Y n n c Y U z R Y Q P W 4     . . .     . . o % % V k # . . : W L 8 W Q P E W P R R Y n P c z ",
"E Q R c m Y z x U Y c Y R W P 7 O     .       . # # & % k k # . . 4 Y P Q I Q P Q W P Y W I Q W / R ",
"E / E E Y T Y c Y c Y Y L ^ ^ Q :     . .       . # % % % % #     4 8 Y R W W Q I P W P P Q 8 n I R ",
"W / ~ W T Y Q W Y x Y W P P I Q Q L o   .       . o . % % # # . : P W / R P P E R Q Q Q Q P Q Q W c ",
"W W ~ Q Q Y Q Y x c U W ^ I / Q R n =             . o # . # . 2 9 E W I P L R 8 P R I P P R E P Y n ",
"W E Q Q Y Y U Y c R T Y I ^ / P c 6 W .   .   .     * 3 G 2   , Y x c x U T R R / / / Q Q P / W Y R ",
"Q R W P c R Y n n W U W Q I Q P 9 W Q 9 # % # # o   C [ i.]   = Y U x c P R R I R E R R E W Q W P W ",
"Q Q Y Y W R E Q Q W T P Q ^ Q / Q / Q P 6 7 z , & # 3 3 G 3 . 5 Y L T Y W W Q / E L P P Q W Q I E Q ",
"E Q / Q / P R R ~ Q P Y Q / I Q / / / R 8 n 9 x 6 - # # $ & - c c Q / T P R Q } Q P W P W 9 E E W R ",
"R ~ P Q R E Y / / W L Y Q Q Q Q E P Q 9 Y Y b n T P R 8 7 z z R Q / P c z E Q L / Q Q Q z z c c Y T "
};
