/* XPM */
static char *New_Project__10_1709042509[] = {
/* columns rows colors chars-per-pixel */
"50 50 185 2 ",
"   c #020302",
".  c #070904",
"X  c #0A0C06",
"o  c #0A0A0A",
"O  c #0D1208",
"+  c #141414",
"@  c #171C14",
"#  c #1B1B15",
"$  c #1C1D1D",
"%  c #181716",
"&  c #2B1C05",
"*  c #1D2417",
"=  c #2A2116",
"-  c #282D1A",
";  c #2A2B18",
":  c #382B17",
">  c #26341D",
",  c #2B341C",
"<  c #2D3B1E",
"1  c #2F3416",
"2  c #30361F",
"3  c #333E1D",
"4  c #333015",
"5  c #081B29",
"6  c #051D31",
"7  c #0A1F30",
"8  c #0B222E",
"9  c #11262C",
"0  c #13292B",
"q  c #192C29",
"w  c #1A2A27",
"e  c #1C3128",
"r  c #062035",
"t  c #092031",
"y  c #06243C",
"u  c #132933",
"i  c #172937",
"p  c #242424",
"a  c #272B26",
"s  c #223325",
"d  c #2B3522",
"f  c #263C23",
"g  c #2C3C22",
"h  c #2A392B",
"j  c #313522",
"k  c #323C22",
"l  c #393D24",
"z  c #303D2B",
"x  c #213C37",
"c  c gray19",
"v  c #5E3B03",
"b  c #4E2E1A",
"n  c #473510",
"m  c #543915",
"M  c #4F3708",
"N  c #623D01",
"B  c #613A16",
"V  c #473925",
"C  c #4F3E2A",
"Z  c #453737",
"A  c #2C401F",
"S  c #33421F",
"D  c #274621",
"F  c #2C4322",
"G  c #2C4A22",
"H  c #2E472B",
"J  c #334422",
"K  c #394524",
"L  c #354923",
"P  c #3A4C23",
"I  c #3C4B28",
"U  c #3D4428",
"Y  c #355126",
"T  c #3D5123",
"R  c #3E5029",
"E  c #26443E",
"W  c #484515",
"Q  c #684007",
"!  c #664418",
"~  c #794C16",
"^  c #7F5218",
"/  c #424A2A",
"(  c #415423",
")  c #47532C",
"_  c #49522E",
"`  c #52463D",
"'  c #4E5732",
"]  c #4F5932",
"[  c #535D35",
"{  c #6F4B2C",
"}  c #795221",
"|  c #7C4C27",
" . c #576137",
".. c #5B663A",
"X. c #5E6A3C",
"o. c #616D3E",
"O. c #072740",
"+. c #072A45",
"@. c #082C47",
"#. c #072C48",
"$. c #082E4C",
"%. c #09314F",
"&. c #1E3F42",
"*. c #163040",
"=. c #093353",
"-. c #0A3759",
";. c #0A395C",
":. c #1B3A51",
">. c #273641",
",. c #103F62",
"<. c #1B496C",
"1. c #254F70",
"2. c #554940",
"3. c #59524D",
"4. c #685D54",
"5. c #657140",
"6. c #6E7C46",
"7. c #717F48",
"8. c #7A6456",
"9. c #834F1F",
"0. c #814D26",
"q. c #865121",
"w. c #8A522F",
"e. c #835B27",
"r. c #90573F",
"t. c #935A3D",
"y. c #916225",
"u. c #9D6A29",
"i. c #A9643A",
"p. c #985941",
"a. c #A05E46",
"s. c #92735B",
"d. c #896C59",
"f. c #AA6B4F",
"g. c #AD7846",
"h. c #C57461",
"j. c #D27B69",
"k. c #728049",
"l. c #7D8D56",
"z. c #848E4E",
"x. c #88914F",
"c. c #82925C",
"v. c #909851",
"b. c #B2804B",
"n. c #A9AD59",
"m. c #A3A857",
"M. c #909370",
"N. c #AE8365",
"B. c #ADBC7B",
"V. c #CF9771",
"C. c #D8876F",
"Z. c #E48676",
"A. c #E78E79",
"S. c #EA9C7D",
"D. c #E5A677",
"F. c #B3C27F",
"G. c #1E6195",
"H. c #28618D",
"J. c #557A97",
"K. c #496C87",
"L. c #6B8091",
"P. c #6A8FAB",
"I. c #629CC9",
"U. c #D6BA99",
"Y. c #ECAC83",
"T. c #EBAB82",
"R. c #F2B586",
"E. c #E3BE98",
"W. c #F0BF92",
"Q. c #EDB386",
"!. c #B3C280",
"~. c #B6CC96",
"^. c #BCD29C",
"/. c #E5C19B",
"(. c #F9C99D",
"). c #EECDA7",
"_. c #F5CDAF",
"`. c #FED6AB",
"'. c #E6C9B2",
"]. c #F5CEB0",
"[. c #FFDAB0",
"{. c #97B7D2",
"}. c gray86",
"|. c #DEE8F0",
" X c #F9F1EB",
/* pixels */
"I I I I H L f z I J F H K I I L G 6 7 s r =.6 q q 6 6 s t 6 F J 8 L L g J L L P P F d G F d g g G L ",
"I J I G Y F H k I J J Y L P P P f r -.7 y -.=.O.r =.O.6 t ;.6 r r 0 J F J J Y P J k P L d g F F g g ",
") L Y Y Y H F K I H j F g h K g t =.=.#.=.-.-.-.-.-.=.%.y ;.y %.=.u f G F L J L P P K L Y G J J J K ",
"I I H I ( P z J J I l l z F F k t 6 -.6 @.$.$.$.$.%.%.$.-.-.-.%.-.@.0 F f H L T P L J k P F K L I J ",
"H I I I I I J g J J L k I J 0 s 6 6 =.6 r %.$.$.#.$.r #.O.$.$.%.=.6 0 f f K P T J J J L L S L P P P ",
"k k F g J I I F J P Y H L L 8 6 6 +.=.+.O.$.O.y O.$.r y 6 $.$.+.-.y 8 0 e P L L < F l P K K F L J J ",
"z K I I P P J I I I F F I L 9 6 +.=.;.=.=.$.O.$.y +.+.6 y $.$.+.;.=.y 6 q J T T G G k J P L J S L k ",
"I K H J J I I J L J H L R P 8 @.;.$.;.-.-.=.=.=.$.-.%.+.$.$.-.-.-.=.$.6 w L S K > F K J < K P A J J ",
"l J I L I h P R J J L G J J 9 y -.%.;.y y y y #.-.;.-.-.$.$.O.O.-.=.-.+.w g < J F J J J k F P J F P ",
"J I L L Y J K J J L I F F K 9 6 r $.y 6 r 6 6 r r #.=.=.y $.+.#.$.r r i g g d A G d , J P F J T J J ",
"F P ( H k I J J g d g F J < F 8 6 r 6 >.U.M.3.4.6 6 6 r 6 $.$.r +.6 9 d k d g h J J g K L < F P P g ",
"F k P K J J P < g h J J h J L L t 6 i )._.Q.T.Q.4.6 6 6 6 $.6 $.+.6 9 J k J g F J L A F K g d J d J ",
"z d H F F J K K g g g J f F F Y p.p.[.[.U.` s.Q.R.3.6 6 6 6 $.$.@.6 0 P L S K A F L A F F d g g g d ",
"g g G F J I L K F F F J h F G F r.p.[./.` 2.3.h.R.4.i i 6 v $.$.+.6 0 S P P P S G J J g F g F J J k ",
"J l F g g J P L J h l L L 3 L g t.p.[.U.b 8.}.'.R.R.R.A.q.N *.r +.6 0 g S L L L A F K J d j d J L K ",
"J k F h h J K I J I J P J L R L p.p.[./.m d.}.'.R.R.R.C.j.N v @.r 6 0 < < S L S k A K S k k j d L P ",
"I K k H H ( I J J h J L K g L L r.p.[./.i.N. X_.R.R.R.f.w.N n 6 O.7 w g L S J L A T S S k J l k L ( ",
"I L l j P g J J L P J 3 T L 2 F | | (.R.D.V.`.R.R.R.S.t.Q N 6 6 6 9 F J L J S J K S J g k J k j , S ",
"L J J P P J L P L P F g < K J L n N b.R.R.R.R.R.Y.S.A.9.v : 6 6 8 s ( S S F F K F L A F > g F F F L ",
"F L K I J J P I K S k A g K S K S N Q g.S.S.S.S.A.Z.h.w.0.7 6 7 f K / P P J K P L L A J g F A F G F ",
"h F L L J J F F J P L J F A J L P W W N i.Z.Z.Z.Z.h.p.p.Z 6 h z I / / / / / / I K S F T S F G G J f ",
"k k L K J F f F A P P S g g F L L S S N Q q.q.q.{ ` V V - z / / [  ...o.5.5.../ / J K T J D G J F < ",
"F P K L L L J F K K P < f F g F F A G 1 & N M 4 4 ; - - - / [  ...o.k.k.7.7.7... .( / F A f D G F D ",
"k J L g F F F F K L L J F F F D G D D A - ; ; - k _  .[ [ ........k.z.m.B.M.k.o.../ / J D f d d F f ",
"L J L d d F F d J K < g g g g , f D J J - - ; j / [ ............o.k.x.n.n.F.~.c.7...../ I L P F g L ",
"g P K F g L L J J ( L J g g k g D g H ;.=.$ $ + . . % l [ ........o.k.x.n.F.^.^.l.7.../ / S S J L K ",
"I ( K L k J P g g L J G g F L S J ;.;.1.<.:.+ o o o o % / / ..........5.k.v.B.~.l.6...../ / A J S J ",
"J I K < d D g F g J J , g J L J H ;.K. X{.J.o o + + + o j / [  .......o.6.k.k.7.6......./ / G S G S ",
"F J F F h F F d d k k g g J L S ;.;.|.{.{.J.o + % + o + o l / / ..........o.6.........../ / g d d L ",
"G g F F K S J < F l F L K L P P &.;.P.{.I.H.$ % + o o o + # U /  .....................[ I / A g g J ",
"F G F F L J K S K F L S S L P S F ;.<.J.G.<.+ + . . o + % o # / _ ..................../ / / F d g > ",
"J J J F S F J T S G F S K G L S P &.&.-.%.5 o . o o + % $ o X / /  ...............[ _ / / / F d G G ",
"L P ( P P T L S < g g L P A Y S P ( 3 x 5 . o o + o $ $ $ o o k / _ ............../ / 3 j k < F F L ",
"R P T T L K J L J D k L S J L 3 L P L < . o o + + + $ $ $ . o - , l ' [ ......' ' k j - - S J K < S ",
"L T P K L g F D F g g K K F < k 3 g A S   o + + % $ $ % +     - ; j / / / ' _ / / - - - , S J S d k ",
"g L A J J d f d d g d K S S F d k k J , . o + % $ $ % + +     3 - - - k / / / k - - - - K L F T A g ",
"F F J F g F F f F J g P ( L A G F F < < o o + % $ $ + + +     < - - - - - - - - - ; - , S T A L d G ",
"g F d j h J D L J L K F L S J S J F F , o o % $ $ % o + +     . g - - - - - ; - - - - S S P J S k g ",
"F g g z j g J L J G F J P S P S g F F > o o $ $ $ % + + .       , - - - - - - - - - > S P T L 3 F F ",
"D g J D G d J F A F A L ( P ( T J d D p o + p $ $ + o o   o     o 3 - - - - - - - K S P S T S L F g ",
"g d L F < l > D D d J F P S S T Y S A < . % c a $ o     o .     X A > , - - - , > S S J 3 3 k K g , ",
"K P K F J J h g G D d G S Y L A D D A > o + a p $ o   . o o .   O S S < < 1 2 S T L J F L L S L T K ",
"K T K K F F J g F g F F S S Y Y A G < * o + * $ +         o o   . , < A J K L S S S S S 3 ( A J S S ",
"L T P L G F L J f g F J S T S S J F < o o $ $ % o .     o o o     O L T J S K L L L T T P S P L K g ",
"L L L P P J L F < d G L Y S T T J < * o % $ $ % o       . . . o   o - L A A J < S J S S S J L S F J ",
"L K T S F F G F f J G F T T T A k < . o $ $ % O o @ o     n m ! m O * < G L S F T ( T T K S T L F S ",
"P J P K g J J k J L A G S P S L l S o o $ $ + O . > > .   ~ ~ y.; % * f J S S L J S S K L P S P K L ",
"P P A F L F K L P L L G T ( S T S ( B ! e.} B : + < P < % = = = % + * D L K P T S J S S P S P P K L ",
"L T P P T A L J T P A k P T S P ( T ~ ^ u.y.m # % , R P S % % % % * S L S F P ( T L S A J 3 J K P S ",
"J P K P S K J T T J G F P S ( P S S # # # % % % % , L S < f g F L I K k g K P S T S P T f j g g F G "
};
