/* XPM */
static char *New_Project__10__copy1709042366[] = {
/* columns rows colors chars-per-pixel */
"50 50 175 2 ",
"   c #010101",
".  c #0A0A0A",
"X  c #0F130B",
"o  c #0D1409",
"O  c #12150D",
"+  c #13190C",
"@  c #131313",
"#  c #161A11",
"$  c #1C1C1C",
"%  c #2E1F0C",
"&  c #1D221A",
"*  c #1D2414",
"=  c #32220E",
"-  c #222619",
";  c #23291A",
":  c #282D1A",
">  c #272416",
",  c #392C15",
"<  c #26351F",
"1  c #2B341D",
"2  c #273A1F",
"3  c #2C3C1E",
"4  c #263317",
"5  c #3B3211",
"6  c #32361E",
"7  c #313D1F",
"8  c #383519",
"9  c #2E250B",
"0  c #091C2A",
"q  c #051D30",
"w  c #0C222E",
"e  c #0E282D",
"r  c #10262D",
"t  c #142A2C",
"y  c #192B2C",
"u  c #1F3427",
"i  c #1B312A",
"p  c #062136",
"a  c #06243B",
"s  c #0E2733",
"d  c #112D37",
"f  c #1F3630",
"g  c #252525",
"h  c #2D2E23",
"j  c #243425",
"k  c #2B3522",
"l  c #253C23",
"z  c #2C3C22",
"x  c #24362A",
"c  c #2B3C2A",
"v  c #313522",
"b  c #323D23",
"n  c #3A3C23",
"m  c gray19",
"M  c #243F35",
"N  c #573909",
"B  c #4E2E1A",
"V  c #423210",
"C  c #43341C",
"Z  c #573A15",
"A  c #613C00",
"S  c #4E3A27",
"D  c #2D401F",
"F  c #33421F",
"G  c #3F451A",
"H  c #264523",
"J  c #2C4322",
"K  c #2C4A22",
"L  c #334422",
"P  c #394324",
"I  c #354923",
"U  c #3A4C23",
"Y  c #3F4728",
"T  c #3C4B28",
"R  c #374C28",
"E  c #355126",
"W  c #3D5123",
"Q  c #3E5029",
"!  c #2A4635",
"~  c #55410A",
"^  c #41461A",
"/  c #484516",
"(  c #624617",
")  c #754816",
"_  c #424A2A",
"`  c #4C482B",
"'  c #55472B",
"]  c #415423",
"[  c #4A532F",
"{  c #46552A",
"}  c #56473A",
"|  c #4B5430",
" . c #535D35",
".. c #745425",
"X. c #6F493C",
"o. c #556036",
"O. c #5B663A",
"+. c #626E3E",
"@. c #072740",
"#. c #072A44",
"$. c #082F4D",
"%. c #08304E",
"&. c #093252",
"*. c #093658",
"=. c #0A395D",
"-. c #133C50",
";. c #143B49",
":. c #3A3F43",
">. c #1F4042",
",. c #204142",
"<. c #3D474C",
"1. c #16517E",
"2. c #2A5577",
"3. c #54504D",
"4. c #585C5B",
"5. c #657241",
"6. c #6A7744",
"7. c #6E7C47",
"8. c #6E6156",
"9. c #984B1C",
"0. c #85571C",
"q. c #8D5527",
"w. c #80512D",
"e. c #965A32",
"r. c #9D6A29",
"t. c #A1723C",
"y. c #985941",
"u. c #886C55",
"i. c #89674C",
"p. c #B47453",
"a. c #9D6D62",
"s. c #957E6D",
"d. c #C7765C",
"f. c #D37C6A",
"g. c #728049",
"h. c #7E8A4D",
"j. c #858F4E",
"k. c #879356",
"l. c #979E54",
"z. c #AAAD59",
"x. c #A68368",
"c. c #B89678",
"v. c #9FAE71",
"b. c #DC8170",
"n. c #DF9D74",
"m. c #E48676",
"M. c #E9967B",
"N. c #D8A47C",
"B. c #E2A877",
"V. c #225780",
"C. c #3A6484",
"Z. c #406581",
"A. c #456B89",
"S. c #7A9DB8",
"D. c #2D81C1",
"F. c #70A3CB",
"G. c #A3B780",
"H. c #97ADBF",
"J. c #ABA7A4",
"K. c #DDAF8B",
"L. c #C5AE97",
"P. c #EDA581",
"I. c #F2B586",
"U. c #BCD29C",
"Y. c #B6C686",
"T. c #F6C194",
"R. c #FBCEA2",
"E. c #E0CCBC",
"W. c #FFDAB0",
"Q. c #E3C5A2",
"!. c #9AB9D2",
"~. c #B1C7D8",
"^. c #D7D7D7",
"/. c #F7E3D3",
"(. c gray98",
/* pixels */
"T T T R R R c c R P K L I T I Q K J v j b L x w L x q y H j q s u t I z b I I U I J z L J k z z K L ",
"T L T K K J R b T L c E R T P R L R k r y x @.r i q q t d a =.r i a c H J L Q U L c I U z z z K b c ",
"{ R R E R R z L T L v c k z P z T L t a a q =.q @.#.$.@.$.&.=.a #.%.y H J K L I U I I I E K b L L I ",
"T R K T { T J J R T n L J z R L T J d &.&.@.=.#.%.&.*.*.*.*.*.$.$.&.a u J L U U U I L b I L I U T b ",
"R T T R R P R z I P K J I L Y R L r a &.&.&.&.&.#.#.$.$.$.$.$.a @.&.q u i P P ] L L I P I L I I U R ",
"c b z b L T R J L P R L L R z z i r q $.&.$.$.#.#.a $.@.#.$.$.q a #.q e w U U I k J F U I P z I b I ",
"b P R R Y R b R R T K z U R L x 0 w #.*.#.$.$.q a a @.@.a a $.#.&.&.a q q L U ] K K n L U I L I I F ",
"T P K I P U T P I L L R Q U J j q &.&.*.&.$.$.#.a $.a #.*.$.$.*.&.*.&.a q I L I < D I L b F U 7 I L ",
"b L T I R z R W L L K R L L P c q %.&.*.=.=.$.%.$.&.=.=.&.$.=.=.=.=.*.=.@.z k K J b L n b z W F D I ",
"L T I R E P P P L R I J J I I L d %.#.%.#.a $.$.*.*.&.#.a q q q a %.%.a q z k J K k 3 L U J I U L I ",
"J T Q P b U L b z k z K L k P I j q q #.#.%.$.q @.@.p q :.q 4.<.q q q q w k z z L L z I I 3 J I I b ",
"J z R I L I Y 3 z c J b c P I U c t q #.@.#.$.q q q q :.c.3.R.L.<.q q w k b b J L I z L I z k L 3 b ",
"z z K J c L L P b z z K c K K K b t q #.$.#.a q q q 8.N.I.u.u.W.Q.s.X._ I G L J J I J D L k J z z k ",
"b c K J L T R I b K J L c z K J J y q #.$.$.V q q q x.I.x.} } c.W.K.y.' I U U F F K L J J z J L L n ",
"b v L z J P R I L c L I I b I z W t q #.@.$.A ' a.x.N.I.L.J.S u.W.K.y.` L I I I D z L I k h 1 L I P ",
"L L J z c b I Y P P b U F I W I F y q p @.C A d.M.I.I.I.E.^.B i.W.K.y.' 3 F F I b b F I z b b 2 I G ",
"T L b I R ] U L L z P I I z I I J t q #.a A A y.p.I.I.I./.(.9.p.W.K.e.' R U L U D U G L b b n n I ] ",
"W P n c P z P L P R L 3 T U v b F I t q q q A ) p.I.I.I.I.(.9.I.T.K.y.' U F F F L I K z b L b v 1 F ",
"I P L R I I P I I U b 3 3 I L L 7 I u w q q V A e.m.P.I.I.I.I.I.B.t.~ ^ K D D U J I J 2 j z H J J I ",
"H R P I P L R R L L z L b I R P P I R x s q q ) e.f.m.M.P.P.B.B.t.~ / F D k J F I U D L 3 J D J K J ",
"k J I R L J L K L U I L I _ _ Y _ _ _ _ x y q X.e.p.b.m.m.m.m.e.~ ~ G K I F D F 3 F J W F H J K L l ",
"b z I L L J z J L U U _ _  .5.5.+.o. . .` _ c h S S } ..q.q.e.A ~ G I I F K F F J I U W I D K I J 3 ",
"J I I L U R z L P I _ [  .6.g.g.g.6.+.O.o. ._ : > : : , 5 A A = G G F W W W D F D I F F D l D J K D ",
"b b R b J J z J I _ _  .O.g.k.v.l.j.7.+.O.O. .| | | _ 6 : 5 5 1 W W W F D W W W U I I F H l D l H z ",
"R I I k k z J b _  .O.6.g.U.Y.z.z.j.7.5.O.O.O.O.O.O.[ _ v : : k U U I J z U E F W U I U I I I J z I ",
"b P I J z I R R T  .6.g.U.U.Y.z.l.g.5.O.O.O.O. .n @ . . @ $ $ =.;.J F F F F F U G W F F F I F D I I ",
"I ] P L b L U _ | O.5.g.G.G.k.g.6.O.O.O.O.O._ v @ . @ . . @ C.A.A.-.! R D J K K K F F U I F K I L L ",
"I U I n k J L _ [ O.O.5.6.g.7.6.5.O.O.O.o. ._ - . @ @ @ . . !.~.~.2.;.R z D F D z J D U F I D F D L ",
"J L J J k J L _ | O.O.O.O.6.5.O.O.O.O.O.| _ P . @ . @ @ @ @ F.!.~.!.*.! U K K D k I U F k z z k k I ",
"K J J J P L P _ `  .O.O.O.O.O.O.O.O.O. ._ v O @ . . . @ $ $ D.F.S.2.f H F K K D J F F U 3 J D J z F ",
"J K J z I z R _ _  .O.O.O.O.O.O.O.O.O.| _ @ . @ @ . . . . @ V.V.2.=.! W F W E D E I J I J K D k z j ",
"L L L L L L P _ _ [ |  .O.O.O.O.O.O. ._ Y . . $ $ @ . . .   0 *.;.! K F F W K D 2 F W U F I J 2 K F ",
"R U ] U U U 7 : : P _  .O.O.O.O.O.O.[ _ 3 . . $ $ $ @ @ @ .   @ 3 I F U W W K D K F J L I I z J J I ",
"U U W W U L I F : : : n _ O.O.O. ._ v : : . . $ $ $ @ @ X @ . # J L F W G W W F I F F D U G L I 3 F ",
"I I R I I z J 2 1 : : v P _ _ _ Y n 1 : -   . X $ $ $ @ @ @ . # b 3 3 L W W z F W W F F 3 I L F k b ",
"b I F I L H k k 1 : : : : n P P n : : : O   @ $ $ $ $ @ @ @   + n D b U F F 3 F F W W F I I J W D z ",
"J J D J 3 J J l z : : : : : : : : : : > X . @ @ $ $ @ @ @ @   o P n J W W F D b J L U F F W F I z K ",
"z K k c k L J K I 3 : : : : : : : : : O . @ @ $ $ $ @ @ @ .   + 3 F J G F U I z 6 I F J F U L L z k ",
"z z k n b k K I L D 3 1 : : : : : : 1 # . @ O $ $ @ @ . . .   o F L F I W I F U L 1 W D U U I 7 z J ",
"H c L J K z L L J J z k : : : : : : z @   g g $ $ @ @ . . .   X v L I U F D W G I I F U I U U G J b ",
"b k I J b b < K H k J F 7 : : : 2 D D # . m g $ @ @ . . . .   . * D I D 3 U U L I I F I b F J L z k ",
"I U I b n J k z H D 3 J I K I D K D D o   $ $ $ @ .       . .   + I D D W F U L ] I D L F U G I W L ",
"L ] I P K J J z J z K J D K U F D H X     $ $ .         . . .     + 3 L D I I G G L L F 7 ] z b G L ",
"I U R I J K U L H k J I I U F W I +     . $ y           .   .     + I W F I P I b I U U U I U I I z ",
"I I U U U J U J l k K I U F W W L X   . @ $ &           . . = = 9 8 F W D L L 3 7 7 I F F J I I J L ",
"P I I ] L J H J 3 J K L U W W F b X   . @ & $       . + @ @ Z 0.r...k 3 K L 3 L ] ] ] U I G U L z L ",
"U L I b z L L b b I J L G I I F z * @ V Z ....Z 5 4 3 F - $ @ 8 C 8 H 3 L F L I b G F I I I U I I I ",
"I U b L I L I I U I K K E W U U Y > @ > Z r.r.) ( G W F g @ @ @ & 2 K J I L ] U I J L P I G U I F U ",
"I ] U U ] L L L U U b 7 U W F I ] : @ $ > C C = 8 I ] U 3 1 2 : j W U K L b U ] U I F F L 7 I I I L ",
"L U I I 7 I L U ] I K J I U ] U I 6 ; @ @ $ @ $ J U I b 3 J z L I W G 3 z L U F W I U W k k z z J L "
};
