/* XPM */
static char *New_Project__10__copy_21709042649[] = {
/* columns rows colors chars-per-pixel */
"50 50 117 2 ",
"   c #020202",
".  c #060904",
"X  c #090909",
"o  c #0E150A",
"O  c #12150D",
"+  c #151A0D",
"@  c #181F0E",
"#  c #131313",
"$  c #151A10",
"%  c #1C1F12",
"&  c #1B1B1B",
"*  c #1D2313",
"=  c #1E2C16",
"-  c #1D2119",
";  c #1F281A",
":  c #202417",
">  c #232817",
",  c #21261A",
"<  c #232D19",
"1  c #282D1A",
"2  c #3D2A11",
"3  c #26341D",
"4  c #2B341D",
"5  c #26391E",
"6  c #2D3B1E",
"7  c #31371F",
"8  c #313C1F",
"9  c #051D30",
"0  c #0D232D",
"q  c #1D2A25",
"w  c #11272C",
"e  c #152A2B",
"r  c #1C2E2B",
"t  c #1E3326",
"y  c #1C312B",
"u  c #062035",
"i  c #06243B",
"p  c #112C37",
"a  c #1C2E30",
"s  c gray14",
"d  c #2A2A2A",
"f  c #223326",
"g  c #2B3522",
"h  c #253D24",
"j  c #2C3C22",
"k  c #22362B",
"l  c #243C29",
"z  c #2A3D29",
"x  c #323522",
"c  c #323D22",
"v  c #3A3C23",
"b  c #2A3D34",
"n  c gray19",
"m  c #51330E",
"M  c #583B15",
"N  c #2B411E",
"B  c #34431F",
"V  c #274521",
"C  c #2C4322",
"Z  c #2C4A22",
"A  c #2C4128",
"S  c #334422",
"D  c #394324",
"F  c #354922",
"G  c #3A4C23",
"H  c #3E4728",
"J  c #3B4C28",
"K  c #2F5022",
"L  c #355126",
"P  c #3D5123",
"I  c #3E5029",
"U  c #2F4136",
"Y  c #3C4C35",
"T  c #68481E",
"R  c #794D15",
"E  c #424A2A",
"W  c #415323",
"Q  c #455429",
"!  c #49512E",
"~  c #465132",
"^  c #4D5631",
"/  c #4C5B32",
"(  c #535D35",
")  c #704E23",
"_  c #556036",
"`  c #5B663A",
"'  c #5E693C",
"]  c #636F3F",
"[  c #072740",
"{  c #072A44",
"}  c #0B2C45",
"|  c #082F4D",
" . c #08304F",
".. c #093252",
"X. c #093658",
"o. c #0A395D",
"O. c #697643",
"+. c #6D7A46",
"@. c #757E44",
"#. c #916022",
"$. c #9D6A29",
"%. c #728049",
"&. c #7C884F",
"*. c #7A8952",
"=. c #82925B",
"-. c #979E54",
";. c #AAAD59",
":. c #9BA663",
">. c #93A46E",
",. c #A4AF6C",
"<. c #AEB568",
"1. c #B0B96F",
"2. c #A3B780",
"3. c #ACC08A",
"4. c #B8CA8D",
"5. c #B4C993",
"6. c #BCD29C",
/* pixels */
"J H I J L L g z L J A A S L F L z S f g c A 0 j D y z j Z f F J c F F j S G F J F Z j C V g j j Z F ",
"I S J Z Z A J c H S S L D G G A 9 l 9 a x S 9 p z w i t e 0 F S W S S C A S P G S j F F j A z C c j ",
"Q F L L L L z S J c x S z j D e [ r [ } r q 9 i u 9 ..9 i i A S F S C V j Z S F G G F D F F c S S D ",
"J J A J J H S A L H v A c A t } ..[ | o.....X...| | X.| ..X.p V j S j C C F J G G F S c F S F G G j ",
"S J J J H F F c F S Z S S S e i X.[  .............| ........9 t j j j A j D G G v F S F G S F F G J ",
"A c A c A I G A c J J A l l w 9 o.9 i  .| | | { { i { | .. .u t 0 C Z Z S G G F 6 V S D F D C F S F ",
"c H L H G G S H J P S S z 9 9 i ..[ [ { { i { { i u { | i | u u 9 V Z Z S S W W C Z c S G F S S F S ",
"J H F A S J J S F A S F z 9 i ..o... .[ i | i { u u } | { o.} u 9 j Z C 4 S F B 3 Z D S c S G 8 S S ",
"c S J Z J j F J S A F F f { X...o.X.X...X.X...X.{ | | X.X.X.X...u G F j f C j A V v S F c j G F C F ",
"S H D L L D L S S D F Z f i ....o...X...| ..X.X.X. .| ..X.X.X.{ 9 C j x S j g j Z j g S G C F G S S ",
"A J I S S H S S j j c A f 9 i } ..| ....| | ...... . .|  ...{ u 9 N g g c j g j S S j S F 6 j G F c ",
"C j G F A D G j j j A S f 9 { | | | ....| o.| |  .X...|  .| | i 9 x 7 S j v j C S S j S S j j C j S ",
"j g Z A C S D S j g j A t 9 { | X.| ....| | X.....X...| | ....i 9 c c F F B S C Z F N C j j j j j g ",
"c j Z A S H D G S A A S f 9 { | | | ....| | X.....X...|  ... .i 9 F B S F G G B C S S j C j Z v S x ",
"S x A j A S J G S g S F h 9 u i | | ....| | ..X.| X...|  . .i u 9 B S j S B F F 6 j S S g x g S F D ",
"S S S z j c S G D F S J j w 9 9 | ....| | | ..X.| X...| X. .i 9 t 6 j 8 8 S S F c B S G j c c 4 F G ",
"J D c Z Z Q G S S j S F S w 9 9 | o.X.| ..| X.| | | | | X.| i 9 V j g C F F S F B G B B c S v v F W ",
"P D v c G j D D F F D j P F w 9 { o.X.| ..X.X.| ..| ..o.| i 9 y c C j S F C B B S S F c c v c g 4 B ",
"F S A J G D F F F J c 6 c S y 0 9 ..X.| | | | | ....X.X.i 9 0 e S 8 P F B N 6 F C S C 5 g h V C C F ",
"z L D F S S F P S S j S c S F e 9 Y b k r r q r r a b U b 9 A 8 S B B F S j C S F G C S j C C C Z C ",
"g C F F S S F Z S G S S Z C c J Y ! E H 4 1 1 1 1 x J E ~ Y G S W B G B S B B N 6 B C P B Z C Z S V ",
"c c F D A S f A S G G S j j C / ` E E E H v D v D E E E ! ` Q G G W B F F F Z S V F F P B h Z F j j ",
"A F F S F S c S D F G 6 j ^ ` ! E E E E E E E E E E E E E E ( ` W B G B G P N B N G F B V h N C Z N ",
"c c G A Z C j C F G F C S ^ ( ^ E ~ ( +.=.6.4.<.@.` ` ! ! E ^ ( Q P G G B B P P G F B S C j h 6 j h ",
"J S G g g A V g S F g c H ! E E E ` O.+.2.6.6.4.&.] ` ` ( E E E / G B C j G G B W G G F S S F j j S ",
"j G S j j F G F S P F S S J E E ( ' +.>.5.6.6.3.*.@.O.` _ ^ E E E N S B B B B G B P N B B F B F G F ",
"J P F F g S F j 6 F S Z c E E E ` O.@.:.1.1.,.=.@.O.' ` ` ( E E E F B B C C Z N S B B G F B Z S S B ",
"S G F v g Z N j c S S g A E E E E _ O.-.;.;.-.O.` ` ` ` ( E E E E B P P j N N Z 6 S S B F K N B C S ",
"C S j Z g S C h g x c j 3 x v J E ( ( ` ` ` ` ` ` ` ` ( ^ E H c 1 B G P G B K V j F G B j j j g g F ",
"Z z Z C D S S j C c C F 6 > 1 v E E ~ ( ( ( ( ( ( ( ( E E E x 1 > W B B B K N N j C B G 4 S C j j S ",
"C Z C j F j S S S S F F F 8 4 c v E E E E E E E E E E E E v g 1 B B W P F L L N L S C F C Z h j j g ",
"S S S S S S B W B C S S S C 4 1 1 6 v E E E E E E E E 7 4 1 1 c F B B N B G B N 6 Z P G B F 6 j V Z ",
"F G Q G G G F F g j j F G N B 4 1 1 1 x H E E E E c 7 1 1 1 6 N 5 F F F W P B N K B 6 S F S 6 N C F ",
"G G P P F S F G S C v F S F B 4 1 1 1 1 1 1 1 1 1 1 1 1 1 1 6 B C S B B B P P B S G B 6 G G S G 6 S ",
"F G F F F c V V C 6 j S S j 6 c   % % & * , , * : % : : # + B B c N 8 S G P 6 B B W F F 6 F S S x j ",
"c F B S C j g g g h g D G F C <     X X X X # # # # # # . o 6 v v C v P B S 6 B P B G B F F C P 6 j ",
"Z C S C j A V j A S j G G F N O   X X . X X # # # # s # X X 3 6 v v N P P B B c C S G S B G B F j Z ",
"j A g g g F C Z F F S N F B * .   X . X X X X # # & d d # X O 6 N B S G B F S S 7 S B C S G S S j j ",
"j j j c c z C F B Z Z F G G +   . X X X . X X # & & d n # X X < c S S B P F S B S 6 P B G G F 8 C C ",
"V j S C Z g S S C C C B P B +   . X X     X X # & & d n # X X 1 8 S S G B B P B S F B G B W B F C j ",
"j g F S c S g V V g S C F G = . . X .     X X # & & s n # o . < F N S N j B W B F F B S c S 8 S j 4 ",
"S J S S v A g j V Z j C B F B o   . X     . X # & & & d # X . 3 P B C B P G B S W F S N B F F F P v ",
"S W S S C Z C j j c Z C B B L 6 =   X       . X # & & # # X @ B F B 6 S B S G B B 8 F D B W 8 v G B ",
"G W G S C Z G F j h C S F G B B F           X X # # # # # O 6 6 B G F P S F F S B F G W F B G F S j ",
"D D G P G C G j h g Z F L B P P S *             # # # X . $ Z g S B F F N B S 6 B v S 8 B 8 F F C S ",
"F S G G C C Z C j C Z S B P P B 8 4 - # # # X . m R #.$.  O g j C j 6 j Z F j S P W W W F F W B C v ",
"G S F C C S S c c G C S P B G F c F S < , , $ # 2 M T ) . @ h j h Z h j S S B F S B B S F B G F S F ",
"F G C C F S S F G F Z K B G G G G G F F S S 5 s # # & # - 5 N V 6 Z N Z S F G P S S S B G G D F F F ",
"F W G G P B S S J G 6 S F G B F W W P B j c c 6 4 4 6 4 6 Z F c j G P Z B S G W G S F B S 7 B F G S ",
"S H S G S S S P W F Z C G G W G F 8 G v N C 6 c C F F S 5 6 C S G P B j g S F B W F F W h x j j C S "
};
