/* XPM */
static char *_96bedb2fa534b64b63b8309755c8c92X0oWwfd5yzIOOUWJ[] = {
/* columns rows colors chars-per-pixel */
"50 50 237 2 ",
"   c #340001",
".  c #3E0102",
"X  c #27381F",
"o  c #2C3C1F",
"O  c #2A351F",
"+  c #313D1F",
"@  c #30351F",
"#  c #2B2E23",
"$  c #273520",
"%  c #2B3521",
"&  c #273C21",
"*  c #2C3C21",
"=  c #323521",
"-  c #323D22",
";  c #3B3C22",
":  c #322E22",
">  c #4C0102",
",  c #430102",
"<  c #530102",
"1  c #5B0203",
"2  c #5A090B",
"3  c #561415",
"4  c #650203",
"5  c #6C0103",
"6  c #680A0C",
"7  c #740103",
"8  c #7B0204",
"9  c #790A0B",
"0  c #750E12",
"q  c #661719",
"w  c #7B1517",
"e  c #78272A",
"r  c #692C2D",
"t  c #692924",
"y  c #2D421F",
"u  c #32431F",
"i  c #274321",
"p  c #2C4321",
"a  c #274A21",
"s  c #2C4A22",
"d  c #334421",
"f  c #394623",
"g  c #354922",
"h  c #3A4C22",
"j  c #3B4C28",
"k  c #2A5221",
"l  c #3D5122",
"z  c #345324",
"x  c #425323",
"c  c #445626",
"v  c #475530",
"b  c #535C45",
"n  c #734243",
"m  c #59634C",
"M  c #6B735A",
"N  c #72775E",
"B  c #840204",
"V  c #8B0305",
"C  c #830A0B",
"Z  c #8C0A09",
"A  c #8E0708",
"S  c #930305",
"D  c #9B0305",
"F  c #93060A",
"G  c #930B0D",
"H  c #9D0B0B",
"J  c #9C0709",
"K  c #96110D",
"L  c #990F13",
"P  c #851417",
"I  c #981418",
"U  c #830A12",
"Y  c #A40205",
"T  c #AC0205",
"R  c #AC0609",
"E  c #A30B0C",
"W  c #AB0B0D",
"Q  c #A30408",
"!  c #B30205",
"~  c #BB0206",
"^  c #B60609",
"/  c #BB060A",
"(  c #B50A0D",
")  c #A6110E",
"_  c #B2130F",
"`  c #BF120D",
"'  c #A70E13",
"]  c #B90B13",
"[  c #A41214",
"{  c #AB1413",
"}  c #A8171A",
"|  c #B41314",
" . c #B81915",
".. c #B81719",
"X. c #B9241C",
"o. c #A9251D",
"O. c #9B1925",
"+. c #93102B",
"@. c #A81E24",
"#. c #BE1D22",
"$. c #862729",
"%. c #982528",
"&. c #872A34",
"*. c #973638",
"=. c #8E3136",
"-. c #A4282B",
";. c #B62125",
":. c #BA2828",
">. c #A92B30",
",. c #B32730",
"<. c #A83435",
"1. c #B73539",
"2. c #A43624",
"3. c #C20206",
"4. c #CC0207",
"5. c #CB060A",
"6. c #CA0A0C",
"7. c #C3080B",
"8. c #D80609",
"9. c #C60C11",
"0. c #C61818",
"q. c #CE1513",
"w. c #EE0507",
"e. c #E40609",
"r. c #F20A0A",
"t. c #C8251A",
"y. c #C2200F",
"u. c #EB261A",
"i. c #C41A23",
"p. c #CE1E2A",
"a. c #C62527",
"s. c #D52827",
"d. c #C22B3A",
"f. c #C12730",
"g. c #C63737",
"h. c #D83235",
"j. c #E72221",
"k. c #BC4A3A",
"l. c #CF4631",
"z. c #E4613B",
"x. c #963A40",
"c. c #AA3B46",
"v. c #BA3943",
"b. c #AF3557",
"n. c #AF1C44",
"m. c #C93D43",
"M. c #D33C4C",
"N. c #E33947",
"B. c #C73C7D",
"V. c #9D474A",
"C. c #925559",
"Z. c #8E494A",
"A. c #B84447",
"S. c #A94A50",
"D. c #A9595A",
"F. c #B9555B",
"G. c #B24A4F",
"H. c #AC5B64",
"J. c #B85764",
"K. c #B64A62",
"L. c #AA676B",
"P. c #B67678",
"I. c #B2686B",
"U. c #CB454C",
"Y. c #C64848",
"T. c #C44C52",
"R. c #C95958",
"E. c #D15357",
"W. c #D24C4A",
"Q. c #E44F4E",
"!. c #E96653",
"~. c #EE7A55",
"^. c #CB5B64",
"/. c #D85863",
"(. c #D34F6F",
"). c #E84864",
"_. c #E85871",
"`. c #C6636A",
"'. c #D96568",
"]. c #D56976",
"[. c #C9757B",
"{. c #D47372",
"}. c #EB7173",
"|. c #DE7853",
" X c #7F8574",
".X c #84897C",
"XX c #D38671",
"oX c #E39177",
"OX c #C6139B",
"+X c #9E7480",
"@X c #BB7E8D",
"#X c #DD5E80",
"$X c #D76E86",
"%X c #C7778C",
"&X c #D77885",
"*X c #D86B97",
"=X c #E47490",
"-X c #DB7CB0",
";X c #E87BD6",
":X c #9D9A8D",
">X c #B49291",
",X c #ABA29A",
"<X c #B7AFA9",
"1X c #CD8B93",
"2X c #D98493",
"3X c #DA959B",
"4X c #C59193",
"5X c #E78798",
"6X c #E69198",
"7X c #ED8890",
"8X c #D699A7",
"9X c #D595AB",
"0X c #E694AC",
"qX c #C7A8AA",
"wX c #D6AAAC",
"eX c #CBB4B3",
"rX c #CCB9B9",
"tX c #D6B7B8",
"yX c #D3AFB7",
"uX c #EAA8A8",
"iX c #E8A9B9",
"pX c #E4B6B9",
"aX c #F3B4B5",
"sX c #FAC783",
"dX c #EBA8C5",
"fX c #F4AEC4",
"gX c #E8B9CA",
"hX c #F2BAD8",
"jX c #F0B2CD",
"kX c #F5BDE2",
"lX c #F4C4DC",
"zX c #E8C2DA",
"xX c #F7C8E4",
"cX c #FAD1EE",
"vX c #F6D0EB",
"bX c #FCD5F5",
"nX c #FACFF1",
/* pixels */
"f j j j d j $ % j d p s d j j j s d = * - * j * j j l & k * s f d d g & - j d j d i * d & % * * p d ",
"j d j s s s p j j - * j s j d j * p - - = j j d j j - * * d j - j d d s d * g h d * d j * p * s * * ",
"c j s z j j & j j p = p * = j * j * j j - * - f d j d d j f c d g d p s p s g j j h h d z p d * - j ",
"c f p j j j * % j j ; - = p s d j j j * # # p p j d h l h j d s d d % p * s j l h d d * d d j h j p ",
"p j j j j j j & d d s - g d j h - p d % = j p - d * f x u f h p & * * * p d h h + d d h h d d h j j ",
"- d * = p j j & d f j d j d * j * * % d * = j d g h g h x x d a * i s s d h h h * & - h d - p d d f ",
"- j j j j j d j j j p p j g d * # = = % d j j p f x h d h h d h i p i p * - x x d a ; f h h d g d * ",
"j - s p d j j d p g g g j j d * d j s p p % d j d j x d h c + p g p z i * d d d X a - d * d h u d d ",
"= j j p j & d j p j j p d f d j d g h p d g g h g p h c d h * d * g d i $ * * d & ; d - - - h d i d ",
"- j d j j d j d d s s * d g d j d d d d l h h d u h d l h d d h h p & : d & % & s & % f j p g h d d ",
"d j j j d j j % * * - d d % d g X p d :XyX4XP.F.<.G.I.P.>XqX,Xh d o $ % - * % * g d * d g X * h h * ",
"p * s j * d j * * % d - % p j qXL.V.%.I Z B 7 7 7 7 7 7 7 7 w $.Z.L.qX- - - = p d g & p g $ % p * - ",
"* % s p & j d j * * p p % ,XD.9 8 8 B B B B 8 5 5 5 7 7 7 7 7 5 1 1 6 C.tXd f s p d p & p * * * * $ ",
"- % s p % j d j * p p m D.*.%.8 8 B T Y B B B 7 8 7 7 7 7 7 D D 5 1 5 B B S.eXu s g d * & * i j h = ",
"d - * * p j j d - % 4X*.C W.!.g...9.8.6.@.L D V Z G V S G } ..i.[ S D Y Y L %.P.b & h d * # % p h f ",
"j p p & % j * j tXm./ 5.v.1.uXaX}.N.).'.} -.S D _ _ S ,.iXgX&XF.:..._ V B Y D -.*.wXh h * ; = $ d h ",
"j ; - s p l j R.:...q.M.6X| lX]./.).#X%X1X8X^.E J G `.iX2X].[ R E F B 0 S ~ 6.Q.oX=.D.+ - ; ; ; h h ",
"l j = - d wX>.B W './.bX6Xa.].( D V 5 8 @.v...0.E S.H.H e q G B 8 8 %XO.T 9.! T E ,.M.w >X- - % O u ",
"g d - j I.I T ^ { ].5XxXfXQ.9.a.H 8 , 5 Y T Y T ! 4 4 4     7 8 8 P gXhX6Xh.^ T ! Y ' I w Z.rXp p u ",
"& d ,X%.B D T c.8XbXxX{.lXN.4.q.' 1 < S T Y Y T ! 5 4 4   . 5 B 7 H.cXbXiX0.V ~ 3.! %.b.O.T P [.d p ",
"- rX..3.0.S S v.0XcXbXxX5XN.5.5.L , V 4.3.! Y ! ! 4 7 5   1 C.q 9 9XbXlXI { ( ~ 9.] ! ^ T 0.V 9 eX& ",
"* P.T Y B %.R T ! i.2XdX_.!.~.6.#.6 3.w.w.3.Y ! ! 8 J J 4 e zX+XP %XcXjXlX8X8X3Xv.^ ^ j.7.! 0.8 H.* ",
"m A.] R Y ^ 5.~ 3.` H w -.|.sX_.6XF.e.r.w.8.T ! ! D 8.s.F @XbXgXuXlXjXcXxX[.[ A.U.a.:.W Q Y J S -.tX",
"qXA.} Q } ( 6.q.t.` L 7 4 e {._.=X/.8.w.w.~ T ! ! ! w.r.>.lXcXhXlXcXfXlXF.H Y R U.'.oXo.D 8 4 5 O.wX",
"d `.-.>.,.E.!.m.| Y F Y Y V *.].@.W 8.8.u.` Y T ] L ` :.A.~.fXdXB.0X0X:.@.X.W V [ R.XXk.) ;.$.-.3Xf ",
"* tXg.a.t.t.y...1.:.9 S D { 0./.`.f.3.6.}.U.T T :.I G 9 *.uXaX1XO.J.(.*X5X'.-.I k.1.o.F S T S R.h g ",
"j l tX0.K 7 D ! ! ( 1 1 C Y.l.v.iXg.4.5.'.0XT T R S 7 < H.uXL.3 A.dXM.c.dX=X;. ...{ l.y._ [ 1.d d - ",
"d j d 1XJ V S T ~ _ 8 B G 0.( A G.;.d.a.5.&X;.! T D %.t 3XC.9 S 2XT.*.S.<.[.XX8 g.Y.g.F V <.tXu p d ",
"* d * s 3X' Y ;.:.m.8 8 [ s.h.a.H S i.d.M.p.5Xq.T Q 2XhXx.&.V.J.1.c.@.[ a.Y.uXpX!.k.0 V >.b o # X l ",
"s * s d f P.w <.} 1.^ / ^  ...| ..{ | } 1.].kX$XW | ].'.d.c.T.E.Y.R.{.7X7X'.U.;.{ C 6 n rX- p i * - ",
"p s & & h d >X>XI.A 1.U.( ..a.....| ..A.[.1.].iXG.g.T.d.(.(.d.h.W.^.^.&X].#X+.B S [ $. Xd a X * * $ ",
"s d d p d d d h pX%X<.%.T Y B S { :.>.1.A.O.V B B H E [ G 0 W T T ^ g.nXkX;XOXH t.R.N h + g p * i d ",
"f h x h j h d g tX0X$X%.D T S F  .t.E ..0X=.8 B D ! T T F U ` ~ ~ / E.cXvX-Xn.v.A.tXy d h u @ y & h ",
"j j h x h d d g s gX_.*XU Y Y H t.0.F { =XP B D 3.4.~ T Y j.7.~ ~ / $XhXjXK.-.*.v u d y h h d g - u ",
"g h f d j * p i * & pXK.&.B T D D H F E a.8 B ! w.e.3.T T a. .0.0.s./.=XK.P t v l l u d y u g u = * ",
"* g d d d * & # * & % N &.7 G ' Y Y D J _ B V 7.r.u.q.R Y 0.X.a.t.X.>.P 9 r .Xu u h l u g d d l u * ",
"p p p p % s p $ p d * h eX$.7 @.J B B V H A B W 6.` ) Z Z E P 0 7 > 1 4 =.rXd + & * h d u u h d & p ",
"% s % % # d i s d g - p g eXw C L 4 4 0 -.4 1 D ! 1 > < 4 8 < > 8 4 > t <Xh u + ; u d d f h u u * * ",
"p * & = - * s j d p p g l u M e 6 0 1 P ).6 1 D T . . < B 8 < < 7 > r b h d h u u o l u u x h @ p * ",
"i % j s p * d s i & i g l h l eXe 2 1 P U.6 < 5 7 , , > B 5 < < < r <Xg d - l l o - u h g u l d p d ",
"% % g - - ; & p i = % d j u g l rXe 1 6 C 7 < 5 7 8 e $.7 1 > < n :Xp u o l u h h g d d + - o d d o ",
"g l d * ; d $ $ p p * p d y d y i M q 4 8 5 1 1 1 1 < 7 1 4 4 e h g y y h u l u u h u & h u g h u - ",
"d j d d & a p $ i * s i y u z u y a rX&.5 5 > 2 q 2 1 < 4 7 *.,Xh u o d d d d h l u h h u x o - h u ",
"h h j g s s h g * $ s d g h d h g s * rXA.! R D.yXJ.8 2.X.<.eXo u u g h u g h u u g u l u h u f d = ",
"h d h j j p g * * $ a d d d l h u o - d g U.4.>.gX[.w z.Y.+ a = d d h u y u - u - u h u u u d g i d ",
"d d h x p p a p % p k d h l x d - X g d h u R.( *.L.<.T.m - % * p p * * a g * d x x l h u h x u * - ",
"j d g d * d d % d j p d u g g u o f c u u u u R.F 5 *.d p d y & i y * * u u u h o u u d f h h h d d ",
"g h o p g d d h h g u s l x h h h l x d g u y y [.V.rXd d o a p i p a i g d h x d d u u h h u g h h ",
"d l h j l d d d h h o * h h f u x h x + @ - - d N qXl l d a g - * h u d u * x x h d h y d + d d h - ",
"d h d h u d * j x g a p h h h h h u h u d i % yX8XqXwXm & i * d j l h O * d h d l u d x $ = * * i s "
};
