/* XPM */
static char *result[] = {
/* columns rows colors chars-per-pixel */
"50 50 117 2 ",
"   c #3F3851",
".  c #483752",
"X  c #443852",
"o  c #4A3A51",
"O  c #553755",
"+  c #5C3755",
"@  c #543952",
"#  c #5B3B51",
"$  c #6F3D4F",
"%  c #763E4F",
"&  c #7D3F4F",
"*  c #633757",
"=  c #693756",
"-  c #623B51",
";  c #693C51",
":  c #753A55",
">  c #7C3B53",
",  c #7D3758",
"<  c #4B4357",
"1  c #544155",
"2  c #5A4053",
"3  c #574957",
"4  c #584957",
"5  c #644455",
"6  c #6D4352",
"7  c #674857",
"8  c #6F4B57",
"9  c #684A58",
"0  c #714051",
"q  c #7C4552",
"w  c #724A56",
"e  c #7D4A55",
"r  c #744E58",
"t  c #6B555E",
"y  c #6C585F",
"u  c #7C525C",
"i  c #6D5760",
"p  c #6E5C62",
"a  c #6E6166",
"s  c #6F646B",
"d  c #706268",
"f  c #6F6770",
"g  c #6F6971",
"h  c #843F4F",
"j  c #823D52",
"k  c #8E3B55",
"l  c #9D3D55",
"z  c #953A58",
"x  c #A23F53",
"c  c #92414F",
"v  c #864250",
"b  c #884551",
"n  c #814D56",
"m  c #8D4B54",
"M  c #964651",
"N  c #9A4C53",
"B  c #825057",
"V  c #85545A",
"C  c #9E5256",
"Z  c #935659",
"A  c #975D5C",
"S  c #A0424E",
"D  c #AE444E",
"F  c #A54051",
"G  c #A94250",
"H  c #A44851",
"J  c #B24A51",
"K  c #A35656",
"L  c #AC5355",
"P  c #A45C5A",
"I  c #B35C57",
"U  c #BD5956",
"Y  c #B25D5A",
"T  c #BE5C59",
"R  c #A7615D",
"E  c #A9645E",
"W  c #B5635D",
"Q  c #BB6B61",
"!  c #C15D57",
"~  c #C3645B",
"^  c #C7695F",
"/  c #D9685F",
"(  c #C76760",
")  c #C66C61",
"_  c #C96D60",
"`  c #D06D63",
"'  c #DB6D62",
"]  c #CD7263",
"[  c #CE7669",
"{  c #CF7B6C",
"}  c #DD7366",
"|  c #DF7768",
" . c #E27F6D",
".. c #E3836F",
"X. c #E48671",
"o. c #E68B73",
"O. c #E79077",
"+. c #E89177",
"@. c #E99479",
"#. c #EB9B7C",
"$. c #EEA481",
"%. c #EFA883",
"&. c #F1AE87",
"*. c #F5B68C",
"=. c #F5BB8E",
"-. c #F6BF91",
";. c #F7C091",
":. c #F8C393",
">. c #FBCA97",
",. c #FBCC99",
"<. c #FCD19E",
"1. c #FCD5A2",
"2. c #FDD9A6",
"3. c #FDDDAC",
"4. c #FEE0AF",
"5. c #FDE2B4",
"6. c #FDE5BB",
/* pixels */
"4 i a f s a y o 9 y p d f d p d g p s p t 4 < t p s a a p p t o 9 y p s f f d d p 9 < y d d f s y 4 ",
"i ;.1.5.2.<.=.9 @.:.>.3.4.3.,.3.4.,.2.>.=.{ u #.:.5.<.1.,.;.#.9 o.=.>.2.5.3.2.2.:.@.1 =.<.2.5.1.=.y ",
"p >.>.>.>.,.>.9 #.>.>.>.>.>.>.>.>.>.>.>.,...u %.,.>.>.>.>.>.$.9 @.>.>.>.,.>.>.>.,.#.1 >.>.>.>.>.>.p ",
"i >.>.>.>.>.:.9 o.=.>.:.>.>.>.>.>.>.>.:.%.{ u O.-.>.>.>.>.*.O.9 ..&.>.>.>.>.>.>.=.o.1 :.>.>.>.>.>.p ",
"t $.:.>.>.:.#.9  .o.&.&.&.&.&.&.&.&.&.$.X.[ u ..o.&.&.&.%.o.| 9 ..X.$.&.&.&.&.&.o. .1 #.:.>.>.:.#.t ",
"7 o.#.$.$.#...5 }  . . ... . . . .X. . . .( e | .. ... .....| 7 ' .. . . . . ... .} @ ..#.$.$.#.o.7 ",
"5 ' .. . .../ o 5 9 9 9 9 9 9 9 9 8 9 9 7 # @ 7 9 9 9 9 9 9 5 X ; 7 9 9 9 9 9 9 7 5 X / .. . . .' 5 ",
"o 9 7 7 7 5 o           X o @ # @ @ o . + @ # # @ . @ @ # # @ X @ @ # # @ .           X 5 9 9 9 7 o ",
"9 @.#.o...} 5 . + $ - - @ , x D D F > = l D D D z @ l G D G l O z S D D l * O ; ; - . 5 }  .o.#.O.9 ",
"p :.>.=.o. .7 X - ; $ - o @ ; ; ; ; + @ - ; $ 6 - X ; ; ; ; - o - ; $ $ - @ O ; ; + X 9  .@.=.>.;.y ",
"p ,.>.>.&. .9   X = W Q Q Q W q q W Q Q L # L W Q Q Q L # L Q Q W q v W Q Q Q L =     5  .*.>.>.2.s ",
"d 2.>.>.%. .9 X   > ) ] ] ] ] Z Z ] ] ] ^ 2 ^ ] ] ] ] ^ 2 ( ] ] ] Z Z _ ] ] ] ~ >   X 7  .*.>.>.2.a ",
"f 4.>.>.&...9 X   O B V V V B - - V V V q o q V V V V e o e V V B - - B V V V q O X   9  .*.>.>.1.a ",
"g 5.>.>.&. .9 o > c H P $ q E E E E P $ q R R E N @ C E E E C # N E E E P $ q N c j . 7  .*.>.>.6.g ",
"s 2.>.,.&. .9 @ G D ^ ] B R ] ] ] ] _ B P ] ] ] _ 2 ] ] ] ] ] 5 ] ] ] ] ^ V P ^ D D o 9  .*.>.>.2.a ",
"p >.>.:.$. .9 o : v m Z - $ A A A A Z - 0 A A A m o m A A A m @ b A A A Z - $ m h : . 9  .&.:.>.>.a ",
"y =.>.&.X. .9     + m A A A m O X = v h : X @ > h h v : X           O m A A A m +     9  .X.&.>.;.y ",
"7 X.o... .' 5     h ^ ] ] ] ^ v   X o o o X X . o o o o             h ^ ] ] ] ^ &     ; '  ...o.X.7 ",
"o 9 9 9 9 5 o X   * C E E E N +     o 5 9 7 9 5 o X # 5 4 7 2 X X   * C E E E N + X   X ; 7 9 9 5 < ",
"9 #.$.O. .} 5 . = % q n # $ q % ; . 5 |  . ...} 5 5 ` | | | ^ 5 o = % q n # $ q 0 = X 5  . .O.$.#.9 ",
"i :.>.=.O...9 @ D D ^ ^ n P ^ D x o 7  . .@.*.*.y y *.=.#.....7 # D D J ] n P ^ D D o 9  .@.=.>.;.y ",
"d ,.>.,.%. .9 o k M I W 0 v L S k o 7  .#.:.>.>.a y >.>.;.@...7 o k M S W 0 v L M k . 9  .*.>.>.4.a ",
"d 1.>.>.&. .9     O w r r r 6 @ X   7  .*.>.>.>.y a ,.>.>.&...5     @ 6 w r r 6 @     7  .*.>.>.6.g ",
"d 1.>.>.&. .9     > _ ] ] ] ~ %     5 } *.>.5.5.a d 5.5.,.%.} 5     > ~ ] ] ] ~ & X   5  .*.>.>.5.s ",
"d 2.>.>.&. .9 X X : ^ ] ] ] U :     o 5 i a f s 1 < d f p t 5 o X   : U ] ] _ U :     7 ..*.>.>.<.a ",
"p ,.>.>.&...7 X O # # 5 o # # # @ X o 5 i p s s < < f f a y 5 o . @ @ # 5 o @ 5 2 @ X 7 ..=.>.>.4.s ",
"f 3.,.>.&. .9 @ x D ~ ] e K D D x o 5 | =.,.3.3.a a 3.3.>.&.| 5 @ x D ~ ^ n C ~ D F o 7 | *.>.>.<.a ",
"f 6.>.>.&. .9 @ M D ! ^ e K D D x . 9  .*.>.>.>.p a >.>.>.&. .9 @ x D ~ ^ e N ! D M o 5 ..*.>.>.1.a ",
"a 2.>.>.&. .9   o @ - 5 2 2 + @ o   9  .@.;.>.>.p y >.>.;.@. .9   o @ - 5 2 2 2 @ .   7 ..&.>.>.,.a ",
"i :.>.*.o. .9   - + Y ] ] ] ! :     7  ...#.&.&.y t &.&.@... .9     : W ] ] ] T : X   9 ..o.*.>.;.y ",
"t #.$.O. . .5 X - - W ] ] ] W >     5 | ..| ..} 5 5 } .. ...} 5     > ~ ] ] ] ~ :     5 | ..@.#.#.9 ",
"o 7 9 9 5 5 X   o X 5 4 5 5 # .   X o 5 7 7 7 6 o o 5 9 9 9 5 o     o 2 5 5 5 # .     o 7 9 9 7 5 < ",
"9 o.O.o. .} 5 @ l D ! ^ q                         X             @ l D ! ^ e N T D l o 5 '  .X.+.o.7 ",
"p =.>.&.X. .5 @ F D ~ ) e X             @ ; ; - + X - ; ; ; ; @ @ F D ^ _ e C ~ D S . 9  .o.&.>.=.t ",
"p >.>.>.$...9 X - ; 0 r @             < o ; $ $ - X + $ ; ; ; 5 X + $ 6 r # # 6 $ - X 7  .&.:.>.>.a ",
"s 2.>.>.%. .9     = # Y W Q Q W 5 N W W Q N # W Q Q Q W N - Y W W Y 5 N Q Q W L ;     7  .=.>.>.4.a ",
"f 5.>.>.&...9 X X h 2 _ [ ] ] ] 8 W _ ] ] W r ^ ] ] ] ] W r _ ] ] ] w W ] ] ] ~ >   X 7  .*.>.>.6.g ",
"p 1.>.,.&. .7 X   @ o n V V V B @ % V V V 0 @ n V V V V 6 @ e V V B @ 0 V V V q O   X 9  .*.>.>.<.a ",
"s 1.>.>.&. .9 o j k N P ; q E E E E q $ P E E E N @ C E E E C # N E E E P $ q N c j . 9  .*.>.>.2.a ",
"s 1.>.>.&. .9 @ D D ^ _ B R ] ] ] ] P V ] ] ] ] _ 5 ] ] ] ] _ 5 ] ] ] ] _ V P ^ D G o 7  .*.>.>.>.p ",
"y :.>.*.o...9 X : v m Z - $ Z A Z A q - Z Z A A m o m A A A m @ b A A A Z # % m h : X 7  .o.=.>.;.y ",
"7 O.#.o. .} 7   X O v v v h v #           X : h h v v > X       X X O h h h h h + X   5 }  .o.#.O.9 ",
"  1 1 1 1 @ o   X X o @ o o o X             o o o o o o             X o o @ o o .       @ 1 1 1 1 < ",
"5 }  . . .../ o 5 5 7 7 9 7 7 7 7 5 X ; 9 9 7 9 9 5 5 @ 2 9 7 7 9 5 9 9 9 7 9 7 7 5 o / .. . . ./ 5 ",
"7 ..#.$.%.#...5  . . ... ... . . .' 5  . . ..... ...} e W ........ . . ... . . . .} 1 ..#.$.$.#.X.7 ",
"t &.>.>.>.:.#.8  .o.*.*.*.*.*.&.o...7  .@.*.*.*.*.+. .u [ X.%.*.*.*.*.*.*.*.*.*.O. .1 $.:.>.>.>.%.t ",
"p >.>.>.>.>.:.9 ..*.>.>.>.>.>.:.&...9 @.*.>.>.>.>.;.O.u [ &.>.>.>.>.>.>.>.>.>.>.*.o.1 :.>.>.>.>.>.y ",
"p >.>.>.>.>.>.9 #.>.>.>.>.>.>.>.>.X.7 $.>.>.>.>.>.>.#.u ..>.>.>.>.>.>.>.>.>.>.>.>.#.1 >.>.>.>.>.>.y ",
"t ;.1.6.4.<.*.7 O.;.,.2.<.6.2.>.=.X.5 #.:.>.1.1.6.:.#.r ..=.>.2.<.4.5.,.4.5.4.>.:.@.1 *.<.4.6.1.=.y ",
"3 y a f a a t < 9 y a a a f a a y 7 < 9 y a a s g y 9 < 4 t a a a d s a d f s p y 9   t a a f a y 4 "
};
