/* XPM */
static char *bb3f1206a9b54751fc2dba0e008775840EO6yCtGdnt3t2oJ[] = {
/* columns rows colors chars-per-pixel */
"50 50 175 2 ",
"   c #192E0F",
".  c #1A300F",
"X  c #1C3310",
"o  c #1F3B13",
"O  c #2D250A",
"+  c #232B0C",
"@  c #2C2A0C",
"#  c #342507",
"$  c #332608",
"%  c #382708",
"&  c #332B0B",
"*  c #3B2A09",
"=  c #25320E",
"-  c #2A330E",
";  c #2F380F",
":  c #33330E",
">  c #3A350D",
",  c #312E10",
"<  c #2C3113",
"1  c #223C12",
"2  c #2D3C11",
"3  c #2A361F",
"4  c #273A1F",
"5  c #2E3C1E",
"6  c #323313",
"7  c #3C3312",
"8  c #373B17",
"9  c #3F3F11",
"0  c #333919",
"q  c #3B3B19",
"w  c #2C3522",
"e  c #273A21",
"r  c #2C3C21",
"t  c #323622",
"y  c #323D22",
"u  c #3B3C23",
"i  c #422E0A",
"p  c #46310D",
"a  c #49320E",
"s  c #463714",
"d  c #4D3611",
"f  c #443A11",
"g  c #4F3914",
"h  c #503712",
"j  c #523914",
"k  c #5B3F19",
"l  c #244215",
"z  c #2A4614",
"x  c #2D4B15",
"c  c #2C431E",
"v  c #3D4317",
"b  c #304F16",
"n  c #3B4914",
"m  c #33431E",
"M  c #3A421A",
"N  c #354D1F",
"B  c #3B4E1F",
"V  c #2E5017",
"C  c #335317",
"Z  c #355619",
"A  c #3A551D",
"S  c #365818",
"D  c #3A5D1A",
"F  c #3E621A",
"G  c #274621",
"H  c #2C4322",
"J  c #2C4A22",
"K  c #334422",
"L  c #394523",
"P  c #364921",
"I  c #364821",
"U  c #364A21",
"Y  c #354822",
"T  c #374822",
"R  c #374923",
"E  c #344A23",
"W  c #374A23",
"Q  c #344921",
"!  c #344F23",
"~  c #354F21",
"^  c #314825",
"/  c #334924",
"(  c #314827",
")  c #334827",
"_  c #324927",
"`  c #314B26",
"'  c #344925",
"]  c #364824",
"[  c #364924",
"{  c #374924",
"}  c #364925",
"|  c #344A25",
" . c #354B25",
".. c #374827",
"X. c #374927",
"o. c #374A27",
"O. c #324C26",
"+. c #334F27",
"@. c #354C25",
"#. c #374C27",
"$. c #354922",
"%. c #384922",
"&. c #384823",
"*. c #384923",
"=. c #394A22",
"-. c #384A23",
";. c #394A23",
":. c #394B23",
">. c #3A4A23",
",. c #3B4A23",
"<. c #3B4B23",
"1. c #3B4E21",
"2. c #3A4C23",
"3. c #3B4C23",
"4. c #3B4D23",
"5. c #3A4E22",
"6. c #3B4E23",
"7. c #3C4D22",
"8. c #394924",
"9. c #384925",
"0. c #384A24",
"q. c #3A4A24",
"w. c #3A4A25",
"e. c #384826",
"r. c #384926",
"t. c #384A26",
"y. c #394B27",
"u. c #3A4A27",
"i. c #3B4927",
"p. c #3C4B24",
"a. c #3B4D25",
"s. c #3A4F24",
"d. c #3B4D26",
"f. c #394E27",
"g. c #3B4F26",
"h. c #3C4F24",
"j. c #3F4F25",
"k. c #3C4D27",
"l. c #3F4F27",
"z. c #3A4C22",
"x. c #394828",
"c. c #3D4B28",
"v. c #3B4D29",
"b. c #3D4E28",
"n. c #3A4928",
"m. c #335327",
"M. c #375025",
"N. c #345023",
"B. c #395020",
"V. c #385320",
"C. c #3A5721",
"Z. c #3C5721",
"A. c #385027",
"S. c #3E5224",
"D. c #3F5427",
"F. c #3D5122",
"G. c #3E5029",
"H. c #42421D",
"J. c #49401B",
"K. c #50411A",
"L. c #405D1F",
"P. c #405F1E",
"I. c #40651B",
"U. c #40661B",
"Y. c #41661B",
"T. c #41671B",
"R. c #41631C",
"E. c #40641C",
"W. c #40651C",
"Q. c #41651C",
"!. c #41661B",
"~. c #4E4520",
"^. c #404F22",
"/. c #415322",
"(. c #46552A",
/* pixels */
"c.x.b.d.^ O.r y d...H ^ ..e.o.M.^ K t w y H K K D P.P.H J e ^ p.K =.I e K =.o.d.o.H r K H w r r J I ",
"G...v.` J H ` y e.Y K O.` d...d.y #.Y L =.D D T.D D F D H K S.K k.K Y H K K d.1.K r e.I e r H H y y ",
"(.e.` m.A.` H K e.K t H r r ..r e.F T.T.T.F T.T.F D E.W.W.F R.B.I Y H J H J K =.=.1.Y =.~ J K K y L ",
"k.o.` #.D.d.H K o.e.y K y H o.K Z.T.T.F S S D D T.T.T.W.S S F D A A A A A B.1.7.1.Y K r I K o.=.k.r ",
"K b.v.d.e.....r o.Y J y ....d.1.W.F D S S S D F T.F T.F S S S S D T.T.T.F F W.F.K Q Y o.=.K I =.d.d.",
"K y y y ^ b.e.K Y ..d.^ o.` r =.T.F S S C C F F D S D D S S x x F T.F D S S F D m H K =.Y K r Q K Y ",
"y e.o.e.e.e.I W.T.W.~ K k.C.I I T.T.T.S z x D F S S S S S x z Z F S S S S S D S F F B L 1.Y K Y =.K ",
"x.e.J ^ ..d.F T.T.F D D T.T.T.T.F T.T.T.S x D F Z C C C C x x F S S C x Z S S S S F T.A r Y 1.5 Y Y ",
"y K d.K k.A T.T.D S S D T.T.T.F F D F F T.D D S x z z S F D D F F S x z x C D D D S F B t r 1.K H I ",
"K k.e.#.M.D F S S Z D T.T.F D S S S S S F T.F S D F S F D F T.F F T.T.F x C D S F D S Y 1.H I 7.Y Y ",
"H d.S.^ I T.T.S S C F T.T.F F S S S S S F F S S F D D S S F D S S D T.T.C C S S F F A Y I e y =.=.r ",
"H r e.o.F F S S C x S T.T.F S x S S S S F D S S S S S S S S S S S S F T.S z x S S D D D A r w H r K ",
"r w J H A W.F D S x x C T.T.D C x x x x D S S S S F F S S S S S F F D D z z z x S S D F T.H r r e w ",
"r r J H D W.T.W.F x z C T.T.F S S S Z C F S S F F D F F D S S S D F C x x C S C S F T.F F F H L K t ",
"K t H A T.W.F D D F C z D T.D S F T.F F D F F D D S S D F S S S D F F S F D F F D S C C D D r K =.Y ",
"K K H F W.D S S S S D z Z T.F F T.F S S S F F S S S S S S C Z S F F S S S S D T.T.T.x x F R.y e Y =.",
"k.L A T.D S Z S S S S F T.F S F T.F S S D F S S S S Z S C x x S F T.D S S S S F D F S F T.D u y I F.",
"k.e.A T.D V l l x S D T.D S S S F T.D S S S b C z z x S C x S D F F S S S S S S D T.F x D D y w w Y ",
"Y o.C.T.F l l o X z D F S S S S D D Z Z x z z z z z z x x x C D D S S S S S S S C x z z z C J H H I ",
"H o.I T.S l l l X z C T.S S S S D Z Z x C z z z z z z l z x z z z z C S C Z S C x z z x C D Z H H H ",
"r H I D F S z l 1 X X x D b x x x b S D D Z Z z l l l z z z z l l l l C z z x z z z Z D D S T.N.H r ",
"y y Y Y D T.F S o o X o S D C z z z z x x Z b z z z z z z z z l l l l l z z z z z z x D x z F F H r ",
"H e.Y Y C.T.z o   o 1 o 2 n S S Z x z z z z ; X l z l l z z z l l l l l @ + 1 l l 1 1 z z x F F Q G ",
"y K e.r Q T.x X   X X   = $ = n 1 1 X 1 z - %   + @   X 1 = =   - 1 1 = $ 1 l X o 1 z z z b T.D N r ",
"e.Y =.w w A A S X   . 1 x = % % = x 1   & O * + $ +   l z + & + +     & @ 1 S x z x z x C D T.N r I ",
"r e.Y H r Q d.I S C F C x l 2 > * C C   & @ : i % +   o D l & $     : *   X 1 D F T.D A N B Y Y =.I ",
"e.k.=.I y Y =.r e 1.A x z z z z f > z   * O @ p * +   X x S > i = : * @ 1 l z z D D M =.Y Q H Y K K ",
"Y =.L y w H r r r K I S x S C b A d & @ * @ = p i +   X 1 9 p * % % & z x C S S F A K Y I J J Q H Y ",
"H K r H w H H e w t y e A A K K N v d i * : z p p @ X ; i i $ $ : n A D D A S D e I 1.Q e r r w w 1.",
"J r H K Y K K r H t H Y Y =.1.=.I ~ J.p p : z p a % 2 p i # @ 3 7./.=.K K I K H r K =.I w H H r r H ",
"H J H r I K L Y Y K =.Y =.Y =.Y K 7.K s d 6 z p d % % i % & w w Y ,./.7.Y 1.I H ~ Y H K H J H w r w ",
"K K K K K K K F.K H H Y Y H Y I 7.^.K ,.h * c p p i i i O H =.y Y K K H Y B.I J e K 1.=.K Y r e H Q ",
"I 1./.=.7.1.I Y w e r =.1.H 1.K =.F.K =.d p 7 p p i p % , Y K H 4 Q I 1.F.7.~ H Q K r K Y K r H H L ",
"7.7.1.F.=.Y K 1.I H y I K K ~ t I F.=.K q i i p p i i % 6 =.K K H K K 7.1.7.1.K K =.K 5 ,.1.K I r Y ",
"..1.=.Y Y t H H H r r Y Y r w t r H K =./.0 p p i * i % < Y K L t r 3 K 1.1.r K 1./.Q K r Y Y Y t r ",
"r I K Y K r e w w r w L =.Y K r t t K K /.=.K p i i i % 6 K r y u H y 1.Y Y 5 m =.I =.Y I K K B.K r ",
"H H H H r H H e H K r =.7.Y H H H K r y =.Y K p p p i % , K Q r y u H 1.1.K K t H r =.Y m 1.K Y r H ",
"e H w w w K H J I I K K I Y K Y K J r K Y Y H i p p i % @ K I Y r K K =.=.=.Y r t K Y H Y =.K K r e ",
"r r r t y r H =.K J H H I Y 7.Y r H H e H Y m d d p p % & K I H y K I I =.I Y =.K r 1.K =.7.=.y H r ",
"H r K H J w K K H r H 1.7.1.F.1.I w H t t K I j j j i * & H H K t K Y ~ Y 5 7.=.K I K 1.Y 1.7.I H r ",
"r w e.H t y 3 J G w K K =.I Y B.~ ~ r t K =.1.g j d i % & K r K K c K H r I 1.Y =.I K Y y y y K r w ",
"Y 1.K y y K w r J J e H Q Q Q r H J r r Y Q 1.h h a i # $ y 7.=.7.Q H H 7.=.1.K 7.I H H =.=.=.I /.K ",
"Y S.Y Y H H H r H t J H H Q 1.I H J r K t y H.k p p i % # @ Y 1.=.1.e K K Y =.=.=.K I Y m 7.r y =.K ",
"=.F.=.I H J 1.K r e H I Y I Y 1.I H r K Y =.K.j p p i * % $ c 5 K Y I 7.K Y Y Y K I 1.7.1.I =.=.I r ",
"I Y 1.1.1.H ~ r e w J I =.I F.1.K r Y r K r j h p i i % % % < w y Y Y I H K K r K y Y K K K Y Y H y ",
"Y Y I 7.K H H H e K J H =.1.F.K r w Y Y 1.~.d j p i i % # % O r H H r e H Q K K F./.F.7.Y Y F.Y H K ",
"=.K I K r K K y y I H K =.I I K r =.F.7.H.j p p d i i * # # # O r H r r K K K =.K Y K K Y I =.=.Y I ",
"=.1.r H o.K Y =.1.=.J J =.F.1.1.=.7.=.H.d p p i j % % * # O $ @ < H J H Q Y 7.F.K K K L =.=.=.Y Y =.",
"Y S.7.1.1.K Y Y 1.1.r y 1.7.I =.F.7.7.q 7 s 7 0 q M M M 8 5 m t e 7.~ Q K K 7./.1.Y I K K t Y Y =.K ",
"K k.Y d.K Y K k.F.I J H =.1.F.=.Y y 7.y H H t y H 1.=.K r H r K =.F.=.r w Y 1.H F.I =.1.e t r r H J "
};
